<svg width="645" height="380" viewBox="0 0 645 380" fill="none" xmlns="http://www.w3.org/2000/svg">
<path d="M0 38.8931C0 25.2962 0 18.4977 2.65771 13.3306C4.99508 8.78636 8.72192 5.10678 13.2956 2.82757C18.4962 0.236004 25.2941 0.322743 38.8899 0.49622L598.118 7.63174C611.077 7.7971 617.557 7.87978 622.553 10.4296C626.95 12.6737 630.548 16.219 632.856 20.5823C635.479 25.54 635.657 32.0178 636.013 44.9735L643.929 332.935C644.303 346.553 644.49 353.363 641.969 358.607C639.751 363.218 636.117 367 631.598 369.401C626.459 372.131 619.648 372.216 606.026 372.387L38.8824 379.512C25.2889 379.682 18.4922 379.768 13.2927 377.176C8.71984 374.896 4.99386 371.217 2.65705 366.673C0 361.506 0 354.709 0 341.115V38.8931Z" fill="#F8EEE6"/>
</svg>
