<svg width="286" height="180" viewBox="0 0 286 180" fill="none" xmlns="http://www.w3.org/2000/svg">
<path d="M87.9395 92.5402C96.2976 100.692 106.784 105.776 115.282 105.827L109.149 118.966C108.999 119.283 108.932 119.632 108.953 119.981C108.974 120.331 109.083 120.669 109.27 120.965C109.456 121.261 109.714 121.504 110.02 121.673C110.326 121.842 110.669 121.931 111.018 121.931H111.203L118.364 121.293C118.364 121.293 118.364 121.293 118.364 121.345C118.416 121.664 119.842 129.267 128.437 138.552C139.625 150.684 131.585 164.371 131.23 164.942C131.179 165.025 131.145 165.118 131.13 165.215C131.115 165.312 131.12 165.41 131.143 165.505C131.166 165.601 131.208 165.69 131.266 165.769C131.324 165.848 131.397 165.914 131.481 165.964C131.649 166.065 131.85 166.095 132.039 166.048C132.229 166.001 132.392 165.88 132.494 165.712C132.59 165.564 141.48 150.506 129.538 137.552C121.749 129.104 120.034 121.99 119.857 121.175L125.769 120.649C126.127 120.611 126.469 120.48 126.761 120.269C127.053 120.058 127.285 119.774 127.435 119.445C127.584 119.117 127.645 118.755 127.612 118.395C127.579 118.036 127.453 117.691 127.247 117.395L118.948 105.472C126.338 103.849 135.679 96.3567 142.788 86.1523C152.155 72.8631 156.563 56.6933 155.24 40.4735C154.035 26.7047 148.589 15.6851 139.588 8.60804C131.193 2.02745 120.226 -0.870089 107.87 0.226676C81.4511 2.56101 65.9322 21.3765 68.2453 48.1953C70.2406 70.8569 80.0544 84.8258 87.9395 92.5402ZM126.109 118.803C126.066 118.898 125.999 118.979 125.915 119.039C125.83 119.099 125.731 119.135 125.628 119.144L111.078 120.426C110.975 120.437 110.872 120.42 110.778 120.377C110.685 120.334 110.604 120.266 110.545 120.182C110.485 120.098 110.448 119.999 110.439 119.896C110.43 119.793 110.449 119.689 110.494 119.596L116.657 106.316C116.698 106.221 116.764 106.138 116.849 106.078C116.934 106.018 117.034 105.982 117.137 105.976H117.189C117.283 105.973 117.376 105.994 117.46 106.036C117.544 106.079 117.616 106.142 117.669 106.22L126.057 118.218C126.118 118.302 126.155 118.4 126.164 118.503C126.173 118.607 126.154 118.71 126.109 118.803ZM108.003 1.7162C119.975 0.656489 130.58 3.45028 138.679 9.79373C147.377 16.6115 152.602 27.2679 153.769 40.6217C155.617 61.6455 146.926 77.6746 141.576 85.3223C134.112 96.0306 124.239 103.656 117.012 104.293C108.668 105.034 97.6647 100.01 88.9741 91.4953C81.2664 83.9365 71.6742 70.2788 69.7159 48.0323C67.4472 22.1397 82.471 3.9542 108.003 1.70138V1.7162Z" fill="#F74C25"/>
<path d="M98.7383 14.0377C98.9097 13.9377 99.0349 13.7727 99.0865 13.5789C99.138 13.3852 99.1116 13.1786 99.0131 13.0046C98.9643 12.9185 98.8993 12.8429 98.8218 12.7823C98.7443 12.7216 98.6557 12.6771 98.5612 12.6512C98.3704 12.5989 98.1669 12.6256 97.9955 12.7256C97.7727 12.8538 76.1578 25.718 81.4984 53.7689C81.5316 53.9432 81.6243 54.1 81.7602 54.2117C81.896 54.3235 82.0664 54.3829 82.2412 54.3797C82.2879 54.3871 82.3355 54.3871 82.3823 54.3797C82.5752 54.3414 82.7453 54.227 82.8552 54.0617C82.9652 53.8963 83.0062 53.6934 82.9691 53.4975C77.8291 26.5173 98.5155 14.1583 98.7383 14.0377Z" fill="#F74C25"/>
<path d="M74.2598 111.299C72.2244 119.233 67.7934 126.104 62.7176 129.233L71.1902 134.874C71.3953 135.009 71.5631 135.193 71.678 135.411C71.7928 135.628 71.851 135.87 71.8471 136.116C71.8433 136.361 71.7774 136.601 71.6557 136.814C71.534 137.027 71.3605 137.205 71.1512 137.332L71.0404 137.4L66.515 139.628C66.515 139.628 66.515 139.628 66.5339 139.66C66.6192 139.869 68.5392 144.948 66.7759 153.648C64.4962 164.999 74.3119 170.273 74.7328 170.486C74.7939 170.518 74.8481 170.561 74.8924 170.613C74.9367 170.666 74.9701 170.727 74.9908 170.792C75.0116 170.858 75.0191 170.927 75.013 170.995C75.0069 171.064 74.9874 171.13 74.9555 171.191C74.8918 171.312 74.7824 171.403 74.6514 171.444C74.5204 171.485 74.3785 171.472 74.2566 171.409C74.1449 171.355 63.3193 165.569 65.7507 153.449C67.3367 145.545 65.768 140.655 65.5768 140.102L61.8406 141.942C61.6121 142.049 61.3593 142.096 61.1071 142.076C60.855 142.056 60.6122 141.97 60.4028 141.828C60.1934 141.685 60.0246 141.49 59.9132 141.263C59.8017 141.035 59.7513 140.783 59.7671 140.53L60.3904 130.356C55.3678 132.078 47.0335 130.992 39.0472 127.466C28.5812 122.915 20.037 114.828 14.9103 104.622C10.607 95.9289 9.85018 87.3371 12.6632 79.8128C15.2941 72.807 20.811 67.0716 28.6186 63.2242C45.3086 54.9914 61.4794 60.613 69.8812 77.534C76.9561 91.8469 76.1712 103.799 74.2598 111.299ZM60.9633 140.959C61.0234 141 61.0933 141.025 61.1657 141.03C61.2382 141.035 61.3106 141.021 61.3757 140.989L70.5667 136.452C70.6319 136.421 70.6877 136.373 70.7281 136.313C70.7684 136.253 70.7921 136.184 70.7964 136.111C70.8023 136.039 70.7884 135.966 70.7562 135.901C70.7241 135.836 70.6748 135.781 70.6138 135.742L62.0721 130.028C62.0126 129.985 61.9426 129.96 61.8698 129.955C61.797 129.949 61.7243 129.965 61.6597 129.998L61.6287 130.017C61.5712 130.05 61.5229 130.096 61.4882 130.153C61.4535 130.209 61.4335 130.273 61.43 130.339L60.7806 140.59C60.7747 140.662 60.7886 140.735 60.8208 140.8C60.853 140.865 60.9022 140.92 60.9633 140.959ZM29.0825 64.1656C21.5188 67.8952 16.1811 73.4364 13.6408 80.1922C10.9148 87.4506 11.6721 95.7439 15.846 104.175C22.4118 117.452 33.4721 123.893 39.4709 126.527C47.8537 130.225 56.5557 131.197 61.121 128.944C66.3932 126.346 71.156 119.323 73.2582 111.05C75.1201 103.708 75.8857 92.023 68.9401 77.9724C60.8498 61.6229 45.2057 56.1984 29.0771 64.1568L29.0825 64.1656Z" fill="#F74C25"/>
<path d="M39.1338 68.1746C38.9946 68.1771 38.8593 68.1239 38.7577 68.0265C38.6561 67.9292 38.5965 67.7957 38.592 67.6555C38.5898 67.5861 38.6012 67.5171 38.6256 67.4524C38.6499 67.3878 38.6867 67.3288 38.7339 67.2788C38.8292 67.1779 38.961 67.1198 39.1002 67.1172C39.2806 67.1128 56.9338 66.9442 63.9702 85.7076C64.0139 85.8242 64.0156 85.952 63.9749 86.0685C63.9343 86.185 63.8538 86.2828 63.7479 86.3446C63.7225 86.366 63.694 86.3834 63.6633 86.396C63.5336 86.4434 63.3899 86.4368 63.2637 86.3778C63.1374 86.3187 63.0388 86.212 62.9895 86.0811C56.2236 68.0327 39.3115 68.1657 39.1338 68.1746Z" fill="#F74C25"/>
<path d="M211.74 111.299C213.776 119.233 218.207 126.104 223.282 129.233L214.81 134.874C214.605 135.009 214.437 135.193 214.322 135.411C214.207 135.628 214.149 135.87 214.153 136.116C214.157 136.361 214.223 136.601 214.344 136.814C214.466 137.027 214.64 137.205 214.849 137.332L214.96 137.4L219.485 139.628C219.485 139.628 219.485 139.628 219.466 139.66C219.381 139.869 217.461 144.948 219.224 153.648C221.504 164.999 211.688 170.273 211.267 170.486C211.206 170.518 211.152 170.561 211.108 170.613C211.063 170.666 211.03 170.727 211.009 170.792C210.988 170.858 210.981 170.927 210.987 170.995C210.993 171.064 211.013 171.13 211.045 171.191C211.108 171.312 211.218 171.403 211.349 171.444C211.48 171.485 211.622 171.472 211.743 171.409C211.855 171.355 222.681 165.569 220.249 153.449C218.663 145.545 220.232 140.655 220.423 140.102L224.159 141.942C224.388 142.049 224.641 142.096 224.893 142.076C225.145 142.056 225.388 141.97 225.597 141.828C225.807 141.685 225.975 141.49 226.087 141.263C226.198 141.035 226.249 140.783 226.233 140.53L225.61 130.356C230.632 132.078 238.966 130.992 246.953 127.466C257.419 122.915 265.963 114.828 271.09 104.622C275.393 95.9289 276.15 87.3371 273.337 79.8128C270.706 72.807 265.189 67.0716 257.381 63.2242C240.691 54.9914 224.521 60.613 216.119 77.534C209.044 91.8469 209.829 103.799 211.74 111.299ZM225.037 140.959C224.977 141 224.907 141.025 224.834 141.03C224.762 141.035 224.689 141.021 224.624 140.989L215.433 136.452C215.368 136.421 215.312 136.373 215.272 136.313C215.232 136.253 215.208 136.184 215.204 136.111C215.198 136.039 215.212 135.966 215.244 135.901C215.276 135.836 215.325 135.781 215.386 135.742L223.928 130.028C223.987 129.985 224.057 129.96 224.13 129.955C224.203 129.949 224.276 129.965 224.34 129.998L224.371 130.017C224.429 130.05 224.477 130.096 224.512 130.153C224.547 130.209 224.567 130.273 224.57 130.339L225.219 140.59C225.225 140.662 225.211 140.735 225.179 140.8C225.147 140.865 225.098 140.92 225.037 140.959ZM256.917 64.1656C264.481 67.8952 269.819 73.4364 272.359 80.1922C275.085 87.4506 274.328 95.7439 270.154 104.175C263.588 117.452 252.528 123.893 246.529 126.527C238.146 130.225 229.444 131.197 224.879 128.944C219.607 126.346 214.844 119.323 212.742 111.05C210.88 103.708 210.114 92.023 217.06 77.9724C225.15 61.6229 240.794 56.1984 256.923 64.1568L256.917 64.1656Z" fill="#F74C25"/>
<path d="M246.866 68.1746C247.005 68.1771 247.141 68.1239 247.242 68.0265C247.344 67.9292 247.403 67.7957 247.408 67.6555C247.41 67.5861 247.399 67.5171 247.374 67.4524C247.35 67.3878 247.313 67.3288 247.266 67.2788C247.171 67.1779 247.039 67.1198 246.9 67.1172C246.719 67.1128 229.066 66.9442 222.03 85.7076C221.986 85.8242 221.984 85.952 222.025 86.0685C222.066 86.185 222.146 86.2828 222.252 86.3446C222.277 86.366 222.306 86.3834 222.337 86.396C222.466 86.4434 222.61 86.4368 222.736 86.3778C222.863 86.3187 222.961 86.212 223.01 86.0811C229.776 68.0327 246.688 68.1657 246.866 68.1746Z" fill="#F74C25"/>
<path d="M209.303 38.32C208.091 37.8084 206.738 37.736 205.478 38.1153C204.218 38.4945 203.13 39.3016 202.402 40.397C201.675 41.4924 201.353 42.8073 201.493 44.1144C201.633 45.4215 202.226 46.6387 203.169 47.5556L187.041 67.2256L181.692 73.7527L154.281 107.21L151.229 110.91L140.472 124.03C140.269 124.198 140.109 124.411 140.005 124.652C140.001 124.667 140.001 124.682 140.005 124.696V124.763C138.612 128.959 155.362 137.677 167.075 142.524C176.062 146.268 188.745 150.531 195.071 150.531C197.005 150.531 198.339 150.124 198.776 149.192C198.772 149.174 198.772 149.157 198.776 149.14C198.881 148.869 198.916 148.577 198.879 148.289L202.272 107.528L202.932 99.602L203.095 99.2394L202.969 99.121L204.547 80.5018L205.836 65.0425L207.155 49.1985C208.463 49.1951 209.73 48.7389 210.74 47.9076C211.749 47.0763 212.44 45.9213 212.693 44.6389C212.946 43.3566 212.747 42.0262 212.129 40.8742C211.511 39.7221 210.512 38.8195 209.303 38.32ZM187.611 68.8611L187.878 68.9647C188.435 69.195 188.929 69.5549 189.319 70.0145C189.709 70.474 189.983 71.02 190.119 71.6068C190.255 72.1937 190.248 72.8045 190.1 73.3883C189.952 73.9722 189.666 74.5123 189.267 74.9636C188.868 75.4149 188.366 75.7643 187.804 75.9829C187.242 76.2014 186.636 76.2827 186.037 76.22C185.437 76.1573 184.861 75.9524 184.356 75.6224C183.852 75.2923 183.434 74.8467 183.137 74.3225L187.611 68.8611ZM154.859 108.852L156.059 109.126L159.444 106.018L159.852 110.599L163.867 112.819L159.637 114.625L158.726 119.139L155.703 115.675L151.125 116.201L153.488 112.257L152.977 111.124L154.859 108.852ZM167.601 141.184C149.436 133.621 140.968 126.894 141.346 125.274L141.605 124.963C142.198 124.71 142.844 124.603 143.487 124.652C147.532 124.652 157.14 126.754 171.187 132.6L171.631 132.785C174.943 134.176 178.121 135.627 181.084 137.092C192.938 142.96 197.027 146.89 197.383 148.237V148.629C196.479 150.065 185.737 148.77 167.601 141.184ZM172.787 131.653C172.944 131.02 173.23 130.426 173.628 129.908C174.025 129.391 174.525 128.961 175.097 128.645C175.669 128.33 176.299 128.136 176.949 128.075C177.6 128.015 178.255 128.089 178.875 128.294C179.495 128.498 180.067 128.828 180.553 129.263C181.039 129.699 181.431 130.23 181.702 130.823C181.973 131.416 182.119 132.059 182.13 132.711C182.141 133.363 182.017 134.011 181.766 134.613C181.627 134.939 181.453 135.249 181.247 135.538L180.062 134.961L179.373 134.628L177.151 133.599L174.847 132.57L174.054 132.23L172.787 131.653ZM200.887 107.002C200.229 107.379 199.486 107.581 198.728 107.589C197.969 107.597 197.222 107.412 196.556 107.05C195.89 106.688 195.327 106.162 194.922 105.522C194.517 104.882 194.282 104.149 194.24 103.393C194.199 102.637 194.351 101.883 194.684 101.202C195.016 100.521 195.517 99.937 196.14 99.5044C196.762 99.0718 197.485 98.8054 198.239 98.7305C198.994 98.6557 199.755 98.7748 200.45 99.0766C200.825 99.2312 201.177 99.438 201.495 99.6908L200.887 107.002ZM201.628 98.0331C201.428 97.9221 201.228 97.8037 201.013 97.7075C200.123 97.3203 199.151 97.1575 198.182 97.2335C197.214 97.3096 196.28 97.6221 195.461 98.1436C194.642 98.6651 193.964 99.3797 193.486 100.224C193.009 101.069 192.746 102.018 192.722 102.988C192.698 103.958 192.913 104.918 193.347 105.786C193.782 106.653 194.424 107.401 195.215 107.962C196.007 108.524 196.925 108.883 197.888 109.007C198.851 109.131 199.83 109.017 200.739 108.675L197.642 145.928C194.605 142.509 187.004 138.394 182.573 136.167C182.787 135.846 182.97 135.507 183.122 135.153C183.457 134.396 183.638 133.581 183.653 132.753C183.669 131.926 183.519 131.104 183.212 130.335C182.906 129.566 182.448 128.866 181.867 128.277C181.286 127.687 180.593 127.219 179.829 126.9C179.064 126.581 178.244 126.418 177.415 126.42C176.587 126.422 175.767 126.59 175.004 126.912C174.241 127.235 173.551 127.707 172.973 128.3C172.395 128.893 171.941 129.595 171.639 130.365C171.544 130.607 171.465 130.854 171.402 131.105C162.03 127.235 148.932 122.898 143.005 123.276L150.962 113.566L148.287 118.007L155.066 117.267L159.556 122.402L160.904 115.742L167.179 113.063L161.252 109.718L160.652 102.925L156.948 106.314L182.136 75.5436C182.695 76.3365 183.465 76.957 184.359 77.3345C185 77.5998 185.687 77.738 186.381 77.7415C187.587 77.7438 188.756 77.3332 189.695 76.5781C190.634 75.8231 191.285 74.7692 191.54 73.5924C191.795 72.4156 191.638 71.1871 191.096 70.112C190.553 69.0368 189.658 68.1799 188.559 67.6845L204.302 48.4806C204.5 48.5897 204.702 48.6885 204.91 48.7766C205.149 48.8794 205.397 48.9611 205.651 49.0209L204.354 64.5615L203.184 65.3015L197.109 62.667L198.716 69.0905L194.338 74.0635L200.954 74.5149L203.213 78.3187L201.628 98.0331ZM199.309 65.1905L203.354 66.937L204.243 66.382L203.465 75.7508L201.865 73.0571L197.472 72.7611L200.383 69.4605L199.309 65.1905ZM210.992 45.1357C210.638 45.9908 210.009 46.7037 209.204 47.1619C208.399 47.6202 207.464 47.7978 206.547 47.6666C206.186 47.6174 205.833 47.5229 205.495 47.3854C205.178 47.2533 204.88 47.0817 204.606 46.8748C203.979 46.4071 203.496 45.7729 203.212 45.0444C202.928 44.316 202.855 43.5225 203 42.7543C203.146 41.9862 203.504 41.2744 204.035 40.6998C204.566 40.1253 205.247 39.7112 206.002 39.5047C206.757 39.2982 207.554 39.3075 208.304 39.5318C209.054 39.756 209.725 40.186 210.242 40.7729C210.759 41.3598 211.101 42.0799 211.228 42.8512C211.356 43.6225 211.264 44.4141 210.963 45.1357H210.992Z" fill="#F74C25"/>
<path d="M188.166 114.598L187.604 119.999L182.678 122.613L187.855 124.807L188.905 130.136L192.648 126.093L198.225 126.771L195.399 122.085L197.796 117.17L192.293 118.32L188.166 114.598ZM195.407 124.993L192.027 124.578L189.763 127.029L189.127 123.799L186.013 122.471L188.972 120.892L189.312 117.62L191.797 119.87L195.118 119.156L193.639 122.128L195.407 124.993Z" fill="#F74C25"/>
<path d="M178.474 99.0592L183.464 96.2286L188.68 98.6339L187.462 93.1268L191.423 89.0276L185.681 88.4556L182.908 83.5205L180.578 88.6536L174.904 89.7023L179.203 93.4568L178.474 99.0592ZM178.181 90.6042L181.63 89.9662L183.051 86.8277L184.742 89.8416L188.236 90.1862L185.831 92.6868L186.583 96.038L183.404 94.5714L180.398 96.2947L180.841 92.8921L178.181 90.6042Z" fill="#F74C25"/>
<path d="M179.69 104.326C178.804 103.92 177.827 103.812 176.885 104.015C175.942 104.219 175.075 104.725 174.394 105.469C173.713 106.214 173.248 107.164 173.057 108.199C172.867 109.235 172.96 110.309 173.324 111.286C173.693 112.264 174.317 113.1 175.117 113.69C175.917 114.279 176.857 114.595 177.82 114.598C178.454 114.596 179.081 114.46 179.668 114.198C180.26 113.933 180.797 113.541 181.25 113.045C181.702 112.549 182.06 111.959 182.302 111.31C182.548 110.663 182.676 109.969 182.678 109.267C182.68 108.566 182.556 107.871 182.313 107.223C182.07 106.574 181.714 105.984 181.264 105.487C180.814 104.99 180.279 104.596 179.69 104.326ZM180.964 110.726C180.726 111.351 180.339 111.895 179.844 112.297C179.348 112.7 178.762 112.947 178.149 113.012C177.535 113.078 176.917 112.959 176.361 112.668C175.804 112.378 175.329 111.927 174.987 111.363C174.645 110.799 174.449 110.144 174.419 109.467C174.39 108.79 174.527 108.117 174.818 107.519C175.109 106.922 175.542 106.422 176.071 106.074C176.599 105.726 177.204 105.542 177.82 105.542C178.27 105.544 178.715 105.642 179.13 105.83C179.955 106.214 180.61 106.939 180.953 107.849C181.296 108.759 181.3 109.781 180.964 110.694V110.726Z" fill="#F74C25"/>
</svg>
