<svg width="188" height="50" viewBox="0 0 188 50" fill="none" xmlns="http://www.w3.org/2000/svg" preserveAspectRatio="none">
<path d="M25.2236 0.979798L164.055 3.62012C170.214 3.73725 173.169 3.80027 175.598 4.69371C179.363 6.07882 182.445 8.86996 184.195 12.4802C185.323 14.809 185.678 17.7436 186.402 23.8607C186.856 27.6932 187.193 30.5434 187.31 32.8188C187.427 35.0908 187.323 36.751 186.912 38.2071C185.624 42.7764 182.312 46.5032 177.926 48.32C176.528 48.899 174.892 49.1982 172.622 49.3488C170.348 49.4997 167.478 49.5 163.619 49.5H24.7623C20.669 49.5 17.6265 49.4997 15.2095 49.3192C12.7975 49.1391 11.0486 48.7817 9.53684 48.0882C6.16445 46.5411 3.45892 43.8355 1.91179 40.4632C1.21826 38.9514 0.860853 37.2025 0.680779 34.7905C0.500324 32.3735 0.5 29.331 0.5 25.2377C0.5 21.0737 0.50033 17.9784 0.685125 15.5223C0.869543 13.0711 1.23557 11.2975 1.94564 9.77075C3.52966 6.36486 6.29659 3.65005 9.73199 2.13107C11.272 1.45017 13.0522 1.11793 15.5064 0.980152C17.9657 0.842094 21.0604 0.900621 25.2236 0.979798Z" stroke="#F74C25"/>
</svg>
