<svg width="298" height="70" viewBox="0 0 298 70" fill="none" xmlns="http://www.w3.org/2000/svg" preserveAspectRatio="none">
<path d="M298 26.0353C298 16.9371 298 12.388 296.219 8.93621C294.653 5.90064 292.157 3.44593 289.095 1.93124C285.614 0.208866 281.065 0.285566 271.968 0.438965L28.7182 4.54084C20.9027 4.67263 16.9949 4.73852 13.8661 6.22385C11.1085 7.5329 8.78302 9.60343 7.16393 12.1911C5.32682 15.1272 4.80955 19.0012 3.77503 26.7491L1.8706 41.0119C0.534155 51.021 -0.13407 56.0255 1.40981 59.9098C2.76528 63.3201 5.25187 66.1607 8.45274 67.9556C12.0985 70 17.1475 70 27.2454 70H272.4C281.361 70 285.841 70 289.264 68.2561C292.274 66.7221 294.722 64.2744 296.256 61.2638C298 57.8413 298 53.3608 298 44.4L298 26.0353Z" fill="#F74C25"/>
</svg>
