<svg width="309" height="70" viewBox="0 0 309 70" fill="none" xmlns="http://www.w3.org/2000/svg" preserveAspectRatio="none">
<path d="M1.38168 27.7863C0.555165 18.1436 0.141908 13.3223 1.76501 9.60193C3.19103 6.33335 5.66813 3.63484 8.80299 1.93489C12.3711 0 17.2101 0 26.8882 0L282.506 0C292.061 0 296.839 0 300.384 1.90254C303.498 3.57439 305.971 6.23065 307.417 9.4565C309.062 13.1274 308.722 17.8929 308.041 27.4239L306.698 46.2239C306.1 54.6022 305.801 58.7914 303.978 61.9661C302.373 64.7613 299.962 67.0067 297.059 68.4082C293.763 70 289.563 70 281.163 70H28.4996C20.2081 70 16.0624 70 12.7914 68.4377C9.91099 67.062 7.50791 64.856 5.89117 62.1036C4.05526 58.9781 3.70121 54.8475 2.99311 46.5863L1.38168 27.7863Z" fill="#F74C25"/>
</svg>
