<svg width="278" height="70" viewBox="0 0 278 70" fill="none" xmlns="http://www.w3.org/2000/svg" preserveAspectRatio="none">
<path d="M26.0534 0.970795L249.684 5.01118C253.627 5.08242 256.556 5.13568 258.892 5.35705C261.223 5.57783 262.927 5.96319 264.423 6.67986C267.104 7.96415 269.36 9.99246 270.92 12.523C271.791 13.9351 272.354 15.5887 272.82 17.8828C273.288 20.183 273.65 23.09 274.138 27.0031L275.919 41.296C276.54 46.2756 277.001 49.9789 277.114 52.9198C277.228 55.8556 276.992 57.9806 276.251 59.8133C274.924 63.0916 272.517 65.8178 269.428 67.5394C267.701 68.5018 265.621 68.9985 262.694 69.2488C259.762 69.4996 256.03 69.5 251.012 69.5H25.6C21.1113 69.5 17.7749 69.4996 15.1319 69.2837C12.4948 69.0682 10.5922 68.6406 8.96315 67.8106C6.04663 66.3246 3.67544 63.9534 2.1894 61.0369C1.35935 59.4078 0.931787 57.5052 0.716326 54.8681C0.500389 52.2251 0.5 48.8887 0.5 44.4V26.0667C0.5 21.5043 0.500395 18.1129 0.721249 15.4294C0.94163 12.7516 1.37896 10.8238 2.22774 9.18009C3.74712 6.23766 6.16895 3.85919 9.13835 2.39321C10.7972 1.57426 12.7325 1.17183 15.4138 0.999852C18.1009 0.827509 21.4918 0.888379 26.0534 0.970795Z" stroke="#F74C25"/>
</svg>
