<svg width="298" height="70" viewBox="0 0 298 70" fill="none" xmlns="http://www.w3.org/2000/svg" preserveAspectRatio="none">
<path d="M0 26.0353C0 16.9371 0 12.388 1.78082 8.93621C3.34691 5.90064 5.84337 3.44593 8.90492 1.93124C12.3862 0.208866 16.9347 0.285566 26.0316 0.438965L269.282 4.54084C277.097 4.67263 281.005 4.73852 284.134 6.22385C286.891 7.5329 289.217 9.60343 290.836 12.1911C292.673 15.1272 293.19 19.0012 294.225 26.7491L296.129 41.0119C297.466 51.021 298.134 56.0255 296.59 59.9098C295.235 63.3201 292.748 66.1607 289.547 67.9556C285.901 70 280.853 70 270.755 70H25.6C16.6392 70 12.1587 70 8.73615 68.2561C5.72556 66.7221 3.27787 64.2744 1.7439 61.2638C0 57.8413 0 53.3608 0 44.4L0 26.0353Z" fill="#F74C25"/>
</svg>
