<svg width="296" height="70" viewBox="0 0 296 70" fill="none" xmlns="http://www.w3.org/2000/svg" preserveAspectRatio="none">
<path d="M4.86006 21.9796C5.97341 14.1861 6.53008 10.2894 8.41121 7.35825C10.0689 4.7752 12.4346 2.72345 15.2261 1.44769C18.3939 0 22.3302 0 30.2028 0H265.797C273.67 0 277.606 0 280.774 1.44769C283.565 2.72345 285.931 4.7752 287.589 7.35825C289.47 10.2894 290.027 14.1861 291.14 21.9796L293.826 40.7796C295.266 50.8588 295.985 55.8984 294.458 59.8143C293.117 63.252 290.629 66.1205 287.416 67.9341C283.755 70 278.664 70 268.483 70H27.5171C17.3356 70 12.2448 70 8.5842 67.9341C5.37075 66.1205 2.8829 63.252 1.542 59.8143C0.0145201 55.8984 0.73446 50.8588 2.17434 40.7796L4.86006 21.9796Z" fill="#F74C25"/>
</svg>
