<svg width="74" height="74" viewBox="0 0 74 74" fill="none" xmlns="http://www.w3.org/2000/svg">
<circle cx="37" cy="37" r="37" fill="#F9F5ED"/>
<path d="M46 37.0121C46 37.644 45.8182 38.2783 45.4545 38.7861C45.3864 38.8858 45.0682 39.2965 44.8182 39.5638L44.6818 39.7096C42.7727 41.9235 38.0227 45.2527 35.6136 46.3196C35.6136 46.3439 34.1818 46.9781 33.5 47H33.4091C32.3636 47 31.3864 46.3706 30.8864 45.3499C30.6136 44.7886 30.3636 43.1604 30.3409 43.1385C30.1364 41.678 30 39.4423 30 36.9879C30 34.4143 30.1364 32.079 30.3864 30.6452C30.3864 30.6209 30.6364 29.3086 30.7955 28.8712C31.0455 28.2418 31.5 27.7047 32.0682 27.3645C32.5227 27.1239 33 27 33.5 27C34.0227 27.0267 35 27.3888 35.3864 27.5589C37.9318 28.6282 42.7955 32.1276 44.6591 34.2661C44.9773 34.6063 45.3182 35.0219 45.4091 35.1166C45.7955 35.6513 46 36.3074 46 37.0121Z" fill="#F74C25"/>
</svg>
