<svg width="50" height="50" viewBox="0 0 50 50" fill="none" xmlns="http://www.w3.org/2000/svg">
<path d="M50 25C50 38.8071 38.8071 50 25 50C11.1929 50 0 38.8071 0 25C0 11.1929 11.1929 0 25 0C38.8071 0 50 11.1929 50 25Z" fill="currentColor"/>
<path d="M39 24.5C39 31.9558 32.9558 38 25.5 38C18.0442 38 12 31.9558 12 24.5C12 17.0442 18.0442 11 25.5 11C32.9558 11 39 17.0442 39 24.5Z" fill="#252525"/>
<path d="M21.5125 8.3373L22.525 8.33313H27.475L28.4889 8.3373L29.7583 8.35119L30.3597 8.36091L30.9403 8.37619L31.5 8.39563L32.0389 8.41786L32.5583 8.44702L33.0583 8.48175L33.5375 8.52342L34 8.56925C36.4167 8.84148 38.0736 9.42484 39.3236 10.6749C40.5736 11.9249 41.1569 13.5806 41.4292 15.9987L41.4764 16.4612L41.5167 16.9418L41.5514 17.4418L41.5792 17.9599L41.6139 18.7766L41.6306 19.3461L41.6486 20.2406L41.6611 21.5115L41.6667 22.8726L41.6653 27.4742L41.6611 28.4881L41.6472 29.7576L41.6375 30.359L41.6222 30.9396L41.6028 31.4994L41.5806 32.0383L41.5514 32.5578L41.5167 33.0578L41.475 33.537L41.4292 33.9995C41.1569 36.4162 40.5736 38.0733 39.3236 39.3233C38.0736 40.5734 36.4181 41.1567 34 41.429L33.5375 41.4762L33.0569 41.5165L32.5569 41.5512L32.0389 41.579L31.2222 41.6137L30.6528 41.6304L29.7583 41.6484L28.4875 41.6609L27.1264 41.6665L22.525 41.6651L21.5111 41.6609L20.2417 41.647L19.6403 41.6373L19.0597 41.622L18.5 41.6026L17.9611 41.5803L17.4417 41.5512L16.9417 41.5165L16.4625 41.4748L16 41.429C13.5833 41.1567 11.9264 40.5734 10.6764 39.3233C9.42639 38.0733 8.84306 36.4176 8.57083 33.9995L8.52361 33.537L8.48333 33.0564L8.44861 32.5564L8.42083 32.0383L8.38611 31.2216L8.36944 30.6521L8.35139 29.7576L8.33889 28.4867L8.33333 27.1256L8.33472 22.524L8.33889 21.5101L8.35278 20.2406L8.3625 19.6392L8.37778 19.0586L8.39722 18.4988L8.41944 17.9599L8.44861 17.4405L8.48333 16.9404L8.525 16.4612L8.57083 15.9987C8.84306 13.582 9.42639 11.9249 10.6764 10.6749C11.9264 9.42484 13.5819 8.84148 16 8.56925L16.4625 8.52203L16.9431 8.48175L17.4431 8.44702L17.9611 8.41924L18.7778 8.38452L19.3472 8.36785L20.2417 8.3498L21.5125 8.3373ZM17.7639 18.4711H13.9583C14.1389 27.1381 18.4722 32.3466 26.0694 32.3466H26.5V27.3881C29.2917 27.6659 31.4028 29.7076 32.25 32.3466H36.1944C35.1111 28.402 32.2639 26.2214 30.4861 25.388C32.2639 24.3602 34.7639 21.8601 35.3611 18.4711H31.7778C31 21.2212 28.6944 23.7213 26.5 23.9574V18.4711H22.9167V28.0826C20.6944 27.527 17.8889 24.8324 17.7639 18.4711Z" fill="currentColor"/>
</svg>
