<svg width="29" height="29" viewBox="0 0 29 29" fill="none" xmlns="http://www.w3.org/2000/svg">
<path fill-rule="evenodd" clip-rule="evenodd" d="M15.7755 15.9363L15.7444 27.637C15.7424 28.3878 15.1322 28.998 14.3815 29C13.6307 29.002 13.0237 28.395 13.0257 27.6442L13.0568 15.9435L1.35577 15.9746C0.605005 15.9766 -0.00199016 15.3696 4.27238e-06 14.6188C0.00199874 13.8681 0.612227 13.2578 1.36299 13.2559L13.064 13.2248L13.0955 1.36299C13.0975 0.612228 13.7077 0.0019983 14.4585 5.09005e-06C15.2093 -0.00199003 15.8162 0.605005 15.8143 1.35577L15.7827 13.2175L27.6442 13.186C28.395 13.184 29.002 13.791 29 14.5418C28.998 15.2926 28.3878 15.9028 27.637 15.9048L15.7755 15.9363Z" fill="currentColor"/>
</svg>
