<svg width="72" height="60" viewBox="0 0 72 60" fill="none" xmlns="http://www.w3.org/2000/svg">
<mask id="path-1-inside-1_66_419" fill="white">
<path d="M6.7853e-06 44.3918C-0.00365654 48.3198 1.47615 52.1043 4.14339 54.9882C6.81062 57.8722 10.4686 59.6429 14.3855 59.9462C18.3024 60.2494 22.1894 59.0628 25.2689 56.6238C28.3484 54.1847 30.3932 50.6731 30.9944 46.7914H33.8192C34.0665 47.4909 34.5241 48.097 35.1292 48.5265C35.7343 48.956 36.4574 49.1881 37.1995 49.1909H48.0594C48.2402 51.0072 48.8332 52.7583 49.7931 54.3108C50.753 55.8634 52.0545 57.1765 53.5986 58.1502C55.1427 59.1239 56.8886 59.7325 58.7035 59.9298C60.5184 60.127 62.3543 59.9076 64.0716 59.2883C65.7889 58.669 67.3422 57.6662 68.6133 56.3561C69.8844 55.0459 70.8398 53.4632 71.4067 51.7282C71.9736 49.9932 72.1371 48.1517 71.8848 46.344C71.6325 44.5363 70.971 42.8099 69.9507 41.2964L71.933 29.3874C72.1192 28.2318 71.8791 27.048 71.2575 26.0562C70.6359 25.0643 69.6751 24.3321 68.5539 23.9956C65.3718 23.1552 62.0901 22.7516 58.7992 22.7958H49.1993V3.59934C49.1993 2.64473 48.8201 1.72923 48.1449 1.05422C47.4698 0.379215 46.5542 0 45.5994 0H19.1998C17.9267 0 16.7058 0.505619 15.8057 1.40563C14.9055 2.30564 14.3998 3.52631 14.3998 4.79912C14.4007 5.18649 14.4953 5.56791 14.6756 5.91076C14.856 6.25362 15.1167 6.54773 15.4354 6.76795L13.0798 19.338C9.32364 19.7098 5.69869 20.9193 2.47197 22.8774C1.7655 23.3219 1.23437 23.9969 0.968485 24.788C0.702604 25.5791 0.718313 26.4378 1.01295 27.2186C1.30759 27.9995 1.86306 28.6546 2.58532 29.073C3.30757 29.4914 4.15225 29.6474 4.97634 29.5146L6.13552 32.0233C4.23015 33.4741 2.68527 35.3449 1.62111 37.4902C0.556944 39.6354 0.00218793 41.9972 6.7853e-06 44.3918ZM15.5998 57.5894C12.9891 57.5894 10.4371 56.8154 8.26637 55.3652C6.09567 53.915 4.40381 51.8538 3.40475 49.4423C2.40569 47.0308 2.14429 44.3772 2.65361 41.8171C3.16292 39.257 4.42009 36.9054 6.26611 35.0597C8.11214 33.214 10.4641 31.9571 13.0246 31.4478C15.5852 30.9386 18.2392 31.2 20.6512 32.1989C23.0631 33.1977 25.1246 34.8893 26.5751 37.0596C28.0255 39.23 28.7996 41.7816 28.7996 44.3918C28.7955 47.8908 27.4035 51.2452 24.9289 53.7193C22.4544 56.1935 19.0993 57.5853 15.5998 57.5894ZM59.9992 57.5894C58.1005 57.5894 56.2445 57.0265 54.6658 55.9718C53.0871 54.9171 51.8567 53.4181 51.1301 51.6642C50.4035 49.9104 50.2134 47.9805 50.5838 46.1186C50.9542 44.2568 51.8685 42.5465 53.2111 41.2042C54.5536 39.8618 56.2642 38.9477 58.1264 38.5773C59.9886 38.207 61.9188 38.3971 63.6729 39.1235C65.4271 39.85 66.9264 41.0802 67.9812 42.6587C69.036 44.2371 69.5991 46.0928 69.5991 47.9911C69.5962 50.5359 68.5839 52.9756 66.7842 54.775C64.9845 56.5744 62.5444 57.5865 59.9992 57.5894ZM69.5823 28.7947H64.7991C64.4809 28.7947 64.1757 28.6683 63.9506 28.4433C63.7256 28.2183 63.5992 27.9131 63.5992 27.5949V25.4701C65.0402 25.6254 66.4656 25.9015 67.8603 26.2956C68.3923 26.4484 68.8546 26.7811 69.1685 27.2369C69.4823 27.6927 69.6294 28.2433 69.5823 28.7947ZM44.3994 22.7958V7.19867H46.7994V22.7958H44.3994ZM42.0282 34.7324C41.9347 34.7819 41.8288 34.8032 41.7234 34.7936H39.6835C39.4569 34.7962 39.2344 34.7333 39.0428 34.6124C38.8512 34.4915 38.6986 34.3177 38.6035 34.1121C36.9375 30.3987 34.3976 27.1435 31.2006 24.6243C28.0035 22.1051 24.2443 20.3968 20.2437 19.6452L22.5945 7.19867H41.9994V16.0278C41.3611 15.7998 40.6713 15.757 40.0096 15.9043C39.348 16.0517 38.7415 16.3832 38.2603 16.8605L34.8631 20.2559C34.1926 20.9302 33.8163 21.8425 33.8163 22.7934C33.8163 23.7443 34.1926 24.6565 34.8631 25.3309C35.1938 25.6685 35.5885 25.9368 36.024 26.1201C36.4596 26.3035 36.9273 26.3982 37.3999 26.3987H37.4107C37.7359 26.3939 38.0589 26.3447 38.3707 26.2524L42.0258 31.5374L42.0282 34.7324ZM38.2591 23.6356C38.147 23.7493 38.0134 23.8397 37.8661 23.9015C37.7189 23.9633 37.5608 23.9952 37.4011 23.9956C37.2441 23.9948 37.0889 23.9625 36.9446 23.9007C36.8004 23.8389 36.6699 23.7488 36.5611 23.6356C36.3391 23.4111 36.2146 23.108 36.2146 22.7922C36.2146 22.4764 36.3391 22.1733 36.5611 21.9488L39.9571 18.5546C40.0654 18.4296 40.1983 18.3284 40.3476 18.2573C40.4969 18.1861 40.6592 18.1466 40.8245 18.1412C40.9898 18.1358 41.1544 18.1646 41.308 18.2257C41.4616 18.2869 41.601 18.3792 41.7172 18.4968C41.8335 18.6144 41.9242 18.7547 41.9836 18.909C42.0431 19.0632 42.07 19.2281 42.0627 19.3933C42.0554 19.5585 42.014 19.7204 41.9412 19.8688C41.8684 20.0172 41.7656 20.149 41.6395 20.2559L38.2591 23.6356ZM42.0078 27.301L40.3639 24.9242L41.9994 23.2937V23.9956L42.0078 27.301ZM19.1998 2.39956H45.5994C45.9177 2.39956 46.2229 2.52596 46.4479 2.75096C46.673 2.97597 46.7994 3.28114 46.7994 3.59934V4.79912H16.7998C16.7998 4.16271 17.0526 3.55238 17.5027 3.10237C17.9528 2.65237 18.5632 2.39956 19.1998 2.39956ZM17.7946 7.19867H20.1525L17.8642 19.3164C17.1142 19.2421 16.3618 19.1965 15.5998 19.1965H15.5422L17.7946 7.19867ZM3.33716 26.5499C3.182 26.2811 3.13521 25.9633 3.20634 25.6612C3.27747 25.3591 3.46116 25.0955 3.71996 24.9242C6.48665 23.2398 9.58032 22.1636 12.7952 21.7673C16.0101 21.3709 19.2726 21.6635 22.3657 22.6255C25.4587 23.5875 28.3115 25.1968 30.7343 27.3466C33.157 29.4964 35.0943 32.1372 36.4171 35.0935C36.7019 35.7203 37.1613 36.2518 37.7404 36.6241C38.3195 36.9965 38.9937 37.1941 39.6823 37.1931H41.7222C42.058 37.2224 42.3961 37.1826 42.7158 37.076C43.0355 36.9694 43.33 36.7983 43.5809 36.5734C43.8318 36.3485 44.0339 36.0745 44.1747 35.7683C44.3155 35.4622 44.392 35.1305 44.3994 34.7936V25.1954H58.7992C59.662 25.1954 60.448 25.2265 61.1992 25.2685V27.5949C61.1992 28.5495 61.5785 29.465 62.2536 30.14C62.9287 30.815 63.8444 31.1942 64.7991 31.1942H69.2007L67.9035 38.9868C66.2498 37.5283 64.2256 36.5546 62.0538 36.1728C59.882 35.791 57.647 36.0161 55.5949 36.8231C53.5429 37.6302 51.7535 38.9879 50.4238 40.7468C49.0942 42.5056 48.276 44.5973 48.0594 46.7914H37.1995C36.8813 46.7914 36.576 46.665 36.351 46.44C36.1259 46.215 35.9995 45.9098 35.9995 45.5916V44.3918C35.9992 41.6327 35.4389 38.9024 34.3527 36.3661C33.2665 33.8298 31.6769 31.5401 29.6801 29.6357C27.6833 27.7314 25.3209 26.2519 22.7357 25.2867C20.1505 24.3216 17.3963 23.8909 14.6398 24.0208C11.2257 24.178 7.90852 25.206 5.00394 27.007C4.86613 27.0928 4.71208 27.1491 4.55146 27.1724C4.39085 27.1958 4.22713 27.1857 4.07061 27.1428C3.91408 27.0998 3.76812 27.025 3.6419 26.923C3.51568 26.821 3.41193 26.6939 3.33716 26.5499ZM7.16511 28.5307C9.4992 27.2636 12.0899 26.5413 14.743 26.4179C17.1759 26.302 19.6071 26.681 21.8893 27.5319C24.1714 28.3829 26.2571 29.6881 28.0201 31.3685C29.783 33.0489 31.1865 35.0695 32.1455 37.3081C33.1046 39.5466 33.5992 41.9565 33.5996 44.3918H31.1996C31.1991 41.6891 30.4962 39.033 29.1599 36.6837C27.8235 34.3344 25.8995 32.3726 23.5765 30.9907C21.2535 29.6087 18.6111 28.854 15.9085 28.8005C13.2059 28.747 10.5358 29.3966 8.1599 30.6855L7.16511 28.5307Z"/>
</mask>
<path d="M6.7853e-06 44.3918C-0.00365654 48.3198 1.47615 52.1043 4.14339 54.9882C6.81062 57.8722 10.4686 59.6429 14.3855 59.9462C18.3024 60.2494 22.1894 59.0628 25.2689 56.6238C28.3484 54.1847 30.3932 50.6731 30.9944 46.7914H33.8192C34.0665 47.4909 34.5241 48.097 35.1292 48.5265C35.7343 48.956 36.4574 49.1881 37.1995 49.1909H48.0594C48.2402 51.0072 48.8332 52.7583 49.7931 54.3108C50.753 55.8634 52.0545 57.1765 53.5986 58.1502C55.1427 59.1239 56.8886 59.7325 58.7035 59.9298C60.5184 60.127 62.3543 59.9076 64.0716 59.2883C65.7889 58.669 67.3422 57.6662 68.6133 56.3561C69.8844 55.0459 70.8398 53.4632 71.4067 51.7282C71.9736 49.9932 72.1371 48.1517 71.8848 46.344C71.6325 44.5363 70.971 42.8099 69.9507 41.2964L71.933 29.3874C72.1192 28.2318 71.8791 27.048 71.2575 26.0562C70.6359 25.0643 69.6751 24.3321 68.5539 23.9956C65.3718 23.1552 62.0901 22.7516 58.7992 22.7958H49.1993V3.59934C49.1993 2.64473 48.8201 1.72923 48.1449 1.05422C47.4698 0.379215 46.5542 0 45.5994 0H19.1998C17.9267 0 16.7058 0.505619 15.8057 1.40563C14.9055 2.30564 14.3998 3.52631 14.3998 4.79912C14.4007 5.18649 14.4953 5.56791 14.6756 5.91076C14.856 6.25362 15.1167 6.54773 15.4354 6.76795L13.0798 19.338C9.32364 19.7098 5.69869 20.9193 2.47197 22.8774C1.7655 23.3219 1.23437 23.9969 0.968485 24.788C0.702604 25.5791 0.718313 26.4378 1.01295 27.2186C1.30759 27.9995 1.86306 28.6546 2.58532 29.073C3.30757 29.4914 4.15225 29.6474 4.97634 29.5146L6.13552 32.0233C4.23015 33.4741 2.68527 35.3449 1.62111 37.4902C0.556944 39.6354 0.00218793 41.9972 6.7853e-06 44.3918ZM15.5998 57.5894C12.9891 57.5894 10.4371 56.8154 8.26637 55.3652C6.09567 53.915 4.40381 51.8538 3.40475 49.4423C2.40569 47.0308 2.14429 44.3772 2.65361 41.8171C3.16292 39.257 4.42009 36.9054 6.26611 35.0597C8.11214 33.214 10.4641 31.9571 13.0246 31.4478C15.5852 30.9386 18.2392 31.2 20.6512 32.1989C23.0631 33.1977 25.1246 34.8893 26.5751 37.0596C28.0255 39.23 28.7996 41.7816 28.7996 44.3918C28.7955 47.8908 27.4035 51.2452 24.9289 53.7193C22.4544 56.1935 19.0993 57.5853 15.5998 57.5894ZM59.9992 57.5894C58.1005 57.5894 56.2445 57.0265 54.6658 55.9718C53.0871 54.9171 51.8567 53.4181 51.1301 51.6642C50.4035 49.9104 50.2134 47.9805 50.5838 46.1186C50.9542 44.2568 51.8685 42.5465 53.2111 41.2042C54.5536 39.8618 56.2642 38.9477 58.1264 38.5773C59.9886 38.207 61.9188 38.3971 63.6729 39.1235C65.4271 39.85 66.9264 41.0802 67.9812 42.6587C69.036 44.2371 69.5991 46.0928 69.5991 47.9911C69.5962 50.5359 68.5839 52.9756 66.7842 54.775C64.9845 56.5744 62.5444 57.5865 59.9992 57.5894ZM69.5823 28.7947H64.7991C64.4809 28.7947 64.1757 28.6683 63.9506 28.4433C63.7256 28.2183 63.5992 27.9131 63.5992 27.5949V25.4701C65.0402 25.6254 66.4656 25.9015 67.8603 26.2956C68.3923 26.4484 68.8546 26.7811 69.1685 27.2369C69.4823 27.6927 69.6294 28.2433 69.5823 28.7947ZM44.3994 22.7958V7.19867H46.7994V22.7958H44.3994ZM42.0282 34.7324C41.9347 34.7819 41.8288 34.8032 41.7234 34.7936H39.6835C39.4569 34.7962 39.2344 34.7333 39.0428 34.6124C38.8512 34.4915 38.6986 34.3177 38.6035 34.1121C36.9375 30.3987 34.3976 27.1435 31.2006 24.6243C28.0035 22.1051 24.2443 20.3968 20.2437 19.6452L22.5945 7.19867H41.9994V16.0278C41.3611 15.7998 40.6713 15.757 40.0096 15.9043C39.348 16.0517 38.7415 16.3832 38.2603 16.8605L34.8631 20.2559C34.1926 20.9302 33.8163 21.8425 33.8163 22.7934C33.8163 23.7443 34.1926 24.6565 34.8631 25.3309C35.1938 25.6685 35.5885 25.9368 36.024 26.1201C36.4596 26.3035 36.9273 26.3982 37.3999 26.3987H37.4107C37.7359 26.3939 38.0589 26.3447 38.3707 26.2524L42.0258 31.5374L42.0282 34.7324ZM38.2591 23.6356C38.147 23.7493 38.0134 23.8397 37.8661 23.9015C37.7189 23.9633 37.5608 23.9952 37.4011 23.9956C37.2441 23.9948 37.0889 23.9625 36.9446 23.9007C36.8004 23.8389 36.6699 23.7488 36.5611 23.6356C36.3391 23.4111 36.2146 23.108 36.2146 22.7922C36.2146 22.4764 36.3391 22.1733 36.5611 21.9488L39.9571 18.5546C40.0654 18.4296 40.1983 18.3284 40.3476 18.2573C40.4969 18.1861 40.6592 18.1466 40.8245 18.1412C40.9898 18.1358 41.1544 18.1646 41.308 18.2257C41.4616 18.2869 41.601 18.3792 41.7172 18.4968C41.8335 18.6144 41.9242 18.7547 41.9836 18.909C42.0431 19.0632 42.07 19.2281 42.0627 19.3933C42.0554 19.5585 42.014 19.7204 41.9412 19.8688C41.8684 20.0172 41.7656 20.149 41.6395 20.2559L38.2591 23.6356ZM42.0078 27.301L40.3639 24.9242L41.9994 23.2937V23.9956L42.0078 27.301ZM19.1998 2.39956H45.5994C45.9177 2.39956 46.2229 2.52596 46.4479 2.75096C46.673 2.97597 46.7994 3.28114 46.7994 3.59934V4.79912H16.7998C16.7998 4.16271 17.0526 3.55238 17.5027 3.10237C17.9528 2.65237 18.5632 2.39956 19.1998 2.39956ZM17.7946 7.19867H20.1525L17.8642 19.3164C17.1142 19.2421 16.3618 19.1965 15.5998 19.1965H15.5422L17.7946 7.19867ZM3.33716 26.5499C3.182 26.2811 3.13521 25.9633 3.20634 25.6612C3.27747 25.3591 3.46116 25.0955 3.71996 24.9242C6.48665 23.2398 9.58032 22.1636 12.7952 21.7673C16.0101 21.3709 19.2726 21.6635 22.3657 22.6255C25.4587 23.5875 28.3115 25.1968 30.7343 27.3466C33.157 29.4964 35.0943 32.1372 36.4171 35.0935C36.7019 35.7203 37.1613 36.2518 37.7404 36.6241C38.3195 36.9965 38.9937 37.1941 39.6823 37.1931H41.7222C42.058 37.2224 42.3961 37.1826 42.7158 37.076C43.0355 36.9694 43.33 36.7983 43.5809 36.5734C43.8318 36.3485 44.0339 36.0745 44.1747 35.7683C44.3155 35.4622 44.392 35.1305 44.3994 34.7936V25.1954H58.7992C59.662 25.1954 60.448 25.2265 61.1992 25.2685V27.5949C61.1992 28.5495 61.5785 29.465 62.2536 30.14C62.9287 30.815 63.8444 31.1942 64.7991 31.1942H69.2007L67.9035 38.9868C66.2498 37.5283 64.2256 36.5546 62.0538 36.1728C59.882 35.791 57.647 36.0161 55.5949 36.8231C53.5429 37.6302 51.7535 38.9879 50.4238 40.7468C49.0942 42.5056 48.276 44.5973 48.0594 46.7914H37.1995C36.8813 46.7914 36.576 46.665 36.351 46.44C36.1259 46.215 35.9995 45.9098 35.9995 45.5916V44.3918C35.9992 41.6327 35.4389 38.9024 34.3527 36.3661C33.2665 33.8298 31.6769 31.5401 29.6801 29.6357C27.6833 27.7314 25.3209 26.2519 22.7357 25.2867C20.1505 24.3216 17.3963 23.8909 14.6398 24.0208C11.2257 24.178 7.90852 25.206 5.00394 27.007C4.86613 27.0928 4.71208 27.1491 4.55146 27.1724C4.39085 27.1958 4.22713 27.1857 4.07061 27.1428C3.91408 27.0998 3.76812 27.025 3.6419 26.923C3.51568 26.821 3.41193 26.6939 3.33716 26.5499ZM7.16511 28.5307C9.4992 27.2636 12.0899 26.5413 14.743 26.4179C17.1759 26.302 19.6071 26.681 21.8893 27.5319C24.1714 28.3829 26.2571 29.6881 28.0201 31.3685C29.783 33.0489 31.1865 35.0695 32.1455 37.3081C33.1046 39.5466 33.5992 41.9565 33.5996 44.3918H31.1996C31.1991 41.6891 30.4962 39.033 29.1599 36.6837C27.8235 34.3344 25.8995 32.3726 23.5765 30.9907C21.2535 29.6087 18.6111 28.854 15.9085 28.8005C13.2059 28.747 10.5358 29.3966 8.1599 30.6855L7.16511 28.5307Z" fill="#252525" stroke="#F8EEE6" mask="url(#path-1-inside-1_66_419)"/>
<path d="M15.5998 53.0402H15.6001C17.8932 53.0373 20.0915 52.1252 21.713 50.504C23.3345 48.8828 24.2467 46.6848 24.2496 44.3921V44.3918C24.2496 42.6812 23.7423 41.0092 22.7919 39.5869C21.8414 38.1647 20.4905 37.0562 18.9099 36.4016C17.3294 35.7471 15.5902 35.5758 13.9123 35.9095C12.2343 36.2432 10.6931 37.0669 9.48338 38.2764C8.27367 39.4859 7.44984 41.0269 7.11608 42.7045C6.78231 44.3822 6.95361 46.1211 7.60831 47.7014C8.263 49.2817 9.37169 50.6324 10.7942 51.5827C12.2166 52.533 13.889 53.0402 15.5998 53.0402ZM9.73855 35.6214C11.4734 34.4624 13.5131 33.8438 15.5996 33.8438C18.3967 33.8469 21.0783 34.9592 23.0561 36.9367C25.034 38.9142 26.1465 41.5954 26.1496 44.392C26.1496 46.4781 25.5308 48.5174 24.3717 50.2519C23.2124 51.9865 21.5648 53.3385 19.637 54.1368C17.7093 54.9352 15.5881 55.1441 13.5416 54.7371C11.4951 54.3301 9.61529 53.3255 8.13987 51.8503C6.66445 50.3751 5.65968 48.4957 5.25261 46.4496C4.84555 44.4035 5.05447 42.2826 5.85296 40.3552C6.65144 38.4278 8.00364 36.7805 9.73855 35.6214Z" fill="#252525" stroke="#F8EEE6" stroke-width="0.5"/>
<path d="M56.1381 42.2136C57.2809 41.45 58.6246 41.0425 59.9991 41.0425C61.8418 41.0444 63.6085 41.7771 64.9115 43.0798C66.2145 44.3826 66.9473 46.149 66.9491 47.9914C66.9491 49.3656 66.5415 50.709 65.7779 51.8516C65.0142 52.9943 63.9288 53.885 62.6589 54.4109C61.3889 54.9368 59.9915 55.0744 58.6434 54.8063C57.2952 54.5382 56.0568 53.8764 55.0849 52.9046C54.1129 51.9328 53.451 50.6947 53.1829 49.3468C52.9147 47.9989 53.0523 46.6017 53.5783 45.332C54.1044 44.0623 54.9951 42.9771 56.1381 42.2136ZM57.1936 52.1893C58.0241 52.7441 59.0005 53.0403 59.9992 53.0403C61.3385 53.0403 62.623 52.5083 63.5701 51.5614C64.5171 50.6145 65.0492 49.3303 65.0492 47.9912C65.0492 46.9925 64.753 46.0163 64.1981 45.186C63.6432 44.3557 62.8545 43.7085 61.9317 43.3264C61.009 42.9442 59.9936 42.8442 59.014 43.0391C58.0345 43.2339 57.1346 43.7147 56.4284 44.4209C55.7221 45.127 55.2412 46.0267 55.0463 47.0061C54.8515 47.9856 54.9515 49.0008 55.3337 49.9234C55.7159 50.846 56.3632 51.6346 57.1936 52.1893Z" fill="#252525" stroke="#F8EEE6" stroke-width="0.5"/>
</svg>
