<svg width="94" height="100" viewBox="0 0 94 100" fill="none" xmlns="http://www.w3.org/2000/svg">
<ellipse cx="45.8125" cy="97.0589" rx="9.44455" ry="2.94126" fill="#827E7E"/>
<path d="M70.9655 22.8279C83.7333 35.5517 81.5933 56.8142 68.8256 69.538L48.8195 90.8079C45.8108 93.8062 43.5028 91.2447 40.4941 88.2463L25.1521 70.6368C12.3843 57.913 12.3842 35.5516 25.152 22.8278C37.9198 10.104 58.1978 10.1041 70.9655 22.8279Z" fill="#F74C25"/>
<path d="M46.24 48.44C45.976 50.168 45.304 51.272 43.936 51.848L46.384 56.024H41.32L39.184 52.352H31.384V56H26.92V39.224H40.672C44.008 39.224 45.688 40.232 46.216 42.896C46.336 43.544 46.384 44.864 46.384 45.68C46.384 46.472 46.36 47.72 46.24 48.44ZM31.384 42.896V48.464H40.264C41.104 48.464 41.776 47.768 41.776 46.952V44.408C41.776 43.568 41.104 42.896 40.264 42.896H31.384ZM55.075 39.224H68.395V45.248H63.931V42.896H55.771C54.115 42.896 53.539 44 53.539 45.752V49.736C53.539 51.896 54.235 52.352 55.795 52.352H63.931V49.976H68.395V56.024H55.675C50.995 56.024 48.931 54.272 48.931 49.496V45.992C48.931 41.384 50.395 39.224 55.075 39.224Z" fill="white"/>
<path d="M37.2261 18.9703C33.0149 21.4262 31.1614 22.1783 25.9602 27.7401" stroke="white" stroke-width="2" stroke-linecap="round"/>
</svg>
