<svg width="1440" height="150" viewBox="0 0 1440 150" fill="none" xmlns="http://www.w3.org/2000/svg" preserveAspectRatio="none">
<mask id="mask0_78_469" style="mask-type:alpha" maskUnits="userSpaceOnUse" x="0" y="0" width="1440" height="150">
<rect width="1440" height="150" transform="matrix(1 0 0 -1 0 150)" fill="#D9D9D9"/>
</mask>
<g mask="url(#mask0_78_469)">
<path d="M30.5985 168.059C12.7287 161.404 0 144.188 0 124V122C0 101.948 12.5575 84.8286 30.2374 78.0772C29.5085 36.8965 62.5838 0 107.118 0H327.223C372.081 0 411.597 24.6296 432.314 61.5672C442.667 53.6818 455.592 49 469.611 49C500.932 49 526.794 72.3717 530.709 102.627C538.599 97.4977 548.015 94.5182 558.127 94.5182C569.944 94.5182 580.812 98.5877 589.403 105.402C594.525 102.938 600.265 101.557 606.329 101.557C612.787 101.557 618.879 103.123 624.247 105.897C630.537 103.107 637.5 101.557 644.825 101.557C651.815 101.557 658.474 102.968 664.535 105.521C673.684 78.0929 699.57 58.3198 730.074 58.3198C768.223 58.3198 799.149 89.2454 799.149 127.394V130.195C799.149 130.4 799.148 130.606 799.146 130.811C799.145 131.005 799.142 131.199 799.139 131.393C807.757 114.858 825.057 103.568 844.994 103.568C859.801 103.568 873.153 109.796 882.575 119.775C887.472 117.754 892.838 116.639 898.464 116.639C902.018 116.639 905.468 117.084 908.761 117.921C918.232 106.106 932.785 98.5402 949.105 98.5402C959.61 98.5402 969.383 101.675 977.539 107.06C986.7 96.1712 1000.43 89.2518 1015.77 89.2518C1033.98 89.2518 1049.91 98.9947 1058.63 113.551C1067.61 100.249 1082.81 91.5017 1100.07 91.5017C1118.33 91.5017 1134.31 101.309 1143.02 115.946C1149.77 112.531 1157.42 110.606 1165.51 110.606C1172.92 110.606 1179.96 112.222 1186.28 115.119C1194.98 88.5618 1219.97 69.3804 1249.43 69.3804C1267.84 69.3804 1284.5 76.868 1296.54 88.9641C1309.2 64.6232 1334.66 48 1363.99 48C1405.96 48 1439.99 82.0237 1439.99 123.994V126.136C1439.99 168.106 1405.96 202.13 1363.99 202.13C1340.2 202.13 1318.97 191.197 1305.03 174.083C1293.16 192.181 1272.69 204.134 1249.43 204.134C1233.49 204.134 1218.85 198.515 1207.4 189.148C1198.49 202.839 1183.06 211.892 1165.51 211.892C1147.24 211.892 1131.26 202.084 1122.56 187.447C1115.8 190.863 1108.16 192.787 1100.07 192.787C1081.86 192.787 1065.93 183.044 1057.2 168.488C1048.23 181.789 1033.02 190.537 1015.77 190.537C1006.32 190.537 997.476 187.91 989.939 183.346C980.485 195.517 965.71 203.348 949.105 203.348C938.587 203.348 928.803 200.206 920.641 194.809C914.218 198.852 906.614 201.191 898.464 201.191C891.212 201.191 884.393 199.339 878.453 196.082C869.437 203.75 857.756 208.376 844.994 208.376C816.882 208.376 794.013 185.928 793.333 157.98C782.639 182.293 758.339 199.269 730.074 199.269C713.36 199.269 698.032 193.333 686.084 183.453C676.86 196.263 661.816 204.603 644.825 204.603C626.579 204.603 610.58 194.985 601.62 180.543C599.72 180.314 597.863 179.95 596.057 179.46C586.823 190.016 573.254 196.684 558.127 196.684C534.813 196.684 515.198 180.845 509.455 159.341C498.713 168.458 484.804 173.958 469.611 173.958C458.509 173.958 448.092 171.021 439.096 165.883C421.16 211.136 377.006 243.629 324.701 243.629H231.838C217.408 243.629 203.227 242.139 189.472 239.279C173.935 263.756 146.592 280 115.454 280C67.0706 280 27.8478 240.777 27.8478 192.393V189.925C27.8478 182.375 28.8028 175.048 30.5985 168.059Z" fill="white"/>
</g>
</svg>
