<svg width="60" height="64" viewBox="0 0 60 64" fill="none" xmlns="http://www.w3.org/2000/svg">
<ellipse cx="29.2421" cy="62.1176" rx="6.02844" ry="1.88241" fill="#E8E8E8"/>
<path d="M45.2973 14.6099C53.4469 22.7531 52.081 36.3611 43.9313 44.5043L31.1615 58.117C29.241 60.036 27.7679 58.3966 25.8474 56.4776L16.0546 45.2076C7.905 37.0643 7.90494 22.753 16.0546 14.6098C24.2042 6.46658 37.1476 6.46664 45.2973 14.6099Z" fill="#F74C25"/>
<path d="M28.0886 31.36C27.9126 32.512 27.4646 33.248 26.5526 33.632L28.1846 36.416H24.8086L23.3846 33.968H18.1846V36.4H15.2086V25.216H24.3766C26.6006 25.216 27.7206 25.888 28.0726 27.664C28.1526 28.096 28.1846 28.976 28.1846 29.52C28.1846 30.048 28.1686 30.88 28.0886 31.36ZM18.1846 27.664V31.376H24.1046C24.6646 31.376 25.1126 30.912 25.1126 30.368V28.672C25.1126 28.112 24.6646 27.664 24.1046 27.664H18.1846ZM33.9786 25.216H42.8586V29.232H39.8826V27.664H34.4426C33.3386 27.664 32.9546 28.4 32.9546 29.568V32.224C32.9546 33.664 33.4186 33.968 34.4586 33.968H39.8826V32.384H42.8586V36.416H34.3786C31.2586 36.416 29.8826 35.248 29.8826 32.064V29.728C29.8826 26.656 30.8586 25.216 33.9786 25.216Z" fill="white"/>
<path d="M23.7614 12.141C21.0734 13.7128 19.8903 14.1941 16.5704 17.7537" stroke="white" stroke-width="2" stroke-linecap="round"/>
</svg>
