<svg width="10" height="180" viewBox="0 0 10 180" fill="none" xmlns="http://www.w3.org/2000/svg" preserveAspectRatio="none">
<g clip-path="url(#clip0_45_418)">
<path d="M8.83187e-07 6.35063L2.88457 -4.0116e-07" stroke="white" stroke-width="2"/>
<path d="M2.58698e-06 18.6019L8.33571 -1.15925e-06" stroke="white" stroke-width="2"/>
<path d="M3.09507e-06 29.5673L9.99998 7.31195" stroke="white" stroke-width="2"/>
<path d="M6.89639e-06 41.7251L9.99998 19.566" stroke="white" stroke-width="2"/>
<path d="M6.90953e-06 52.7659C0.00133006 52.7636 0.00255143 52.7646 0.00367102 52.7687C0.00499418 52.7732 0.00641911 52.7738 0.00794582 52.7704L9.99998 30.5123" stroke="white" stroke-width="2"/>
<path d="M1.07244e-05 64.9446L9.99998 42.6898" stroke="white" stroke-width="2"/>
<path d="M1.07111e-05 75.8154L9.99998 53.6563" stroke="white" stroke-width="2"/>
<path d="M1.0709e-05 88.0745L9.98869 65.9351C9.99082 65.9306 9.99306 65.9295 9.9954 65.9317L9.99998 65.9357" stroke="white" stroke-width="2"/>
<path d="M1.45525e-05 99.1316L9.99999 76.7807" stroke="white" stroke-width="2"/>
<path d="M1.45392e-05 111.289L9.99999 89.0342" stroke="white" stroke-width="2"/>
<path d="M1.83375e-05 122.235L0.00429314 122.239C0.00612519 122.24 0.00780458 122.239 0.00933129 122.236L9.99999 100.097" stroke="white" stroke-width="2"/>
<path d="M1.83539e-05 134.51L9.99999 112.255" stroke="white" stroke-width="2"/>
<path d="M1.83539e-05 145.477L9.99999 123.221" stroke="white" stroke-width="2"/>
<path d="M2.21549e-05 157.633L9.99999 135.475" stroke="white" stroke-width="2"/>
<path d="M2.21685e-05 168.697L9.99999 146.442" stroke="white" stroke-width="2"/>
<path d="M0.409336 180C0.408623 179.993 0.408318 179.986 0.40842 179.98C0.408522 179.976 0.409081 179.973 0.410099 179.97L9.99038 158.62C9.9919 158.617 9.99353 158.616 9.99526 158.618L10 158.622" stroke="white" stroke-width="2"/>
<path d="M5.31253 180L10 169.663" stroke="white" stroke-width="2"/>
<path d="M0 0L8.83187e-07 6.35063L2.88457 -4.0116e-07L0 0Z" fill="#FDE143"/>
<path d="M8.83187e-07 6.35062L2.58698e-06 18.6019L8.33571 -1.15925e-06L2.88457 -4.0116e-07L8.83187e-07 6.35062Z" fill="#363636"/>
<path d="M2.58698e-06 18.6019L4.11194e-06 29.5673L9.99998 7.31194L9.99998 -1.39071e-06L8.3357 -1.15925e-06L2.58698e-06 18.6019Z" fill="#FDE143"/>
<path d="M3.09507e-06 29.5673L4.78587e-06 41.7251L9.99998 19.566L9.99998 7.31195L3.09507e-06 29.5673Z" fill="#363636"/>
<path d="M6.89639e-06 41.7251L8.43183e-06 52.7659C0.00133158 52.7636 0.00255295 52.7645 0.00367255 52.7687C0.0049957 52.7732 0.00642063 52.7737 0.00794734 52.7704L9.99998 30.5122L9.99998 19.566L6.89639e-06 41.7251Z" fill="#FDE143"/>
<path d="M6.90953e-06 52.7659L8.60323e-06 64.9446L9.99998 42.6898L9.99998 30.5123L0.00794582 52.7704C0.00641911 52.7738 0.00499418 52.7732 0.00367102 52.7687C0.00255143 52.7646 0.00133006 52.7636 6.90953e-06 52.7659Z" fill="#363636"/>
<path d="M1.07244e-05 64.9446L1.22362e-05 75.8154L9.99998 53.6563L9.99998 42.6898L1.07244e-05 64.9446Z" fill="#FDE143"/>
<path d="M1.10729e-05 87.7611L1.27924e-05 100.125L10.0763 78.1875L10.0763 63.0057L10.0717 63.0013C10.0693 62.9987 10.0671 63 10.0649 63.005L1.10729e-05 87.7611Z" fill="#FDE143"/>
<path d="M1.45525e-05 99.1316L1.62433e-05 111.29L9.99999 89.0342L9.99999 76.7807L1.45525e-05 99.1316Z" fill="#363636"/>
<path d="M1.45392e-05 111.289L1.60613e-05 122.235L0.00429086 122.239C0.00612292 122.24 0.0078023 122.239 0.00932902 122.236L9.99999 100.097L9.99999 89.0342L1.45392e-05 111.289Z" fill="#FDE143"/>
<path d="M1.83375e-05 122.235L2.00447e-05 134.51L9.99999 112.255L9.99999 100.097L0.00933129 122.236C0.00780458 122.239 0.00612519 122.24 0.00429314 122.239L1.83375e-05 122.235Z" fill="#363636"/>
<path d="M1.83539e-05 134.51L1.9879e-05 145.477L9.99999 123.221L9.99999 112.255L1.83539e-05 134.51Z" fill="#FDE143"/>
<path d="M1.83539e-05 145.477L2.00444e-05 157.633L9.99999 135.475L9.99999 123.221L1.83539e-05 145.477Z" fill="#363636"/>
<path d="M2.21549e-05 157.633L2.36937e-05 168.697L10 146.442L9.99999 135.475L2.21549e-05 157.633Z" fill="#FDE143"/>
<path d="M2.21685e-05 168.697L2.37404e-05 180L0.409336 180C0.408623 179.993 0.408318 179.986 0.40842 179.98C0.408521 179.976 0.409081 179.973 0.410099 179.97L9.99038 158.621C9.9919 158.617 9.99353 158.616 9.99526 158.618L10 158.622L9.99999 146.442L2.21685e-05 168.697Z" fill="#363636"/>
<path d="M0.409336 180L5.31253 180L10 169.663L10 158.622L9.99526 158.618C9.99353 158.616 9.9919 158.617 9.99038 158.62L0.410099 179.97C0.409081 179.973 0.408522 179.976 0.40842 179.98C0.408318 179.986 0.408623 179.993 0.409336 180Z" fill="#FDE143"/>
<path d="M5.31253 180L10 180L10 169.663L5.31253 180Z" fill="#363636"/>
<path d="M1.07111e-05 75.8154L1.2416e-05 88.0746L9.98869 65.9351C9.99082 65.9306 9.99306 65.9295 9.9954 65.9317L9.99998 65.9357L9.99998 53.6563L1.07111e-05 75.8154Z" fill="#363636"/>
</g>
<defs>
<clipPath id="clip0_45_418">
<rect width="180" height="9.99998" fill="white" transform="matrix(1.39071e-07 1 1 -1.39071e-07 0 0)"/>
</clipPath>
</defs>
</svg>
