<svg width="170" height="50" viewBox="0 0 170 50" fill="none" xmlns="http://www.w3.org/2000/svg">
<path d="M50.344 38.578V41.026H45.352V49.762H42.36V41.026H37.368V38.578H50.344Z" fill="#F74C25"/>
<path d="M64.6544 41.026H54.6544V42.946H63.1024V45.394H54.6544V47.33H64.6544V49.762H51.6784V38.578H64.6544V41.026Z" fill="#F74C25"/>
<path d="M70.2925 38.578H79.1725V42.594H76.1965V41.026H70.7565C69.6525 41.026 69.2685 41.762 69.2685 42.93V45.586C69.2685 47.026 69.7325 47.33 70.7725 47.33H76.1965V45.746H79.1725V49.778H70.6925C67.5725 49.778 66.1965 48.61 66.1965 45.426V43.09C66.1965 40.018 67.1725 38.578 70.2925 38.578Z" fill="#F74C25"/>
<path d="M91.2575 38.578H94.2335V49.778H91.2575V45.394H84.2335V49.778H81.2575V38.578H84.2335V42.962H91.2575V38.578Z" fill="#F74C25"/>
<path d="M116.935 44.722C116.759 45.874 116.311 46.61 115.399 46.994L117.031 49.778H113.655L112.231 47.33H107.031V49.762H104.055V38.578H113.223C115.447 38.578 116.567 39.25 116.919 41.026C116.999 41.458 117.031 42.338 117.031 42.882C117.031 43.41 117.015 44.242 116.935 44.722ZM107.031 41.026V44.738H112.951C113.511 44.738 113.959 44.274 113.959 43.73V42.034C113.959 41.474 113.511 41.026 112.951 41.026H107.031Z" fill="#F74C25"/>
<path d="M122.825 38.578H131.705V42.594H128.729V41.026H123.289C122.185 41.026 121.801 41.762 121.801 42.93V45.586C121.801 47.026 122.265 47.33 123.305 47.33H128.729V45.746H131.705V49.778H123.225C120.105 49.778 118.729 48.61 118.729 45.426V43.09C118.729 40.018 119.705 38.578 122.825 38.578Z" fill="#F74C25"/>
<path d="M9.276 1.374H12.876V9.774H10.644V3.318L7.248 9.774H6.588L3.192 3.318V9.774H0.959999V1.374H4.56L6.912 5.934L9.276 1.374Z" fill="black"/>
<path d="M21.5916 1.374L24.1356 9.774H21.8556L21.2676 7.818H16.7556L16.1676 9.774H13.8876L16.4316 1.374H21.5916ZM19.8756 3.21H18.1476L17.3556 5.874H20.6676L19.8756 3.21Z" fill="black"/>
<path d="M28.448 1.374H35.324V9.774H33.092V3.21H28.64C28.232 3.21 27.884 3.546 27.884 3.966V6.39C27.884 7.014 27.836 7.35 27.764 7.746C27.656 8.358 27.32 8.85 26.912 9.186C26.396 9.618 25.688 9.774 24.632 9.774V7.938C25.484 7.83 25.568 6.954 25.58 6.822C25.58 5.922 25.58 4.83 25.58 4.602C25.58 4.194 25.616 3.534 25.676 3.21C25.94 1.878 26.768 1.374 28.448 1.374Z" fill="black"/>
<path d="M46.7454 3.21H39.2454V4.65H45.5814V6.486H39.2454V7.938H46.7454V9.774H37.0134V1.374H46.7454V3.21Z" fill="black"/>
<path d="M55.5935 1.374L57.8255 1.362V9.762H55.5935V6.486H50.3255V9.762H48.0935V1.374L50.3255 1.362V4.65H55.5935V1.374Z" fill="black"/>
<path d="M69.2102 4.53L69.2222 6.738C69.2222 7.722 69.1022 8.07 69.0422 8.286C68.8622 8.874 68.4902 9.318 67.8542 9.546C67.5542 9.666 67.0382 9.762 66.3662 9.762H59.4902V1.362L61.7222 1.374V4.53H69.2102ZM65.9582 7.926C66.8102 7.926 66.9902 7.41 66.9902 6.738V6.366H61.7222V7.926H65.9582Z" fill="black"/>
<path d="M77.5191 9.774L75.2631 6.546H72.7911V9.774H70.5591V1.374H72.7911V4.602H75.1311L77.3391 1.374H80.0511L77.0991 5.49L80.2911 9.774H77.5191Z" fill="black"/>
<path d="M88.2727 1.374L90.8167 9.774H88.5367L87.9487 7.818H83.4367L82.8487 9.774H80.5687L83.1127 1.374H88.2727ZM86.5567 3.21H84.8287L84.0367 5.874H87.3487L86.5567 3.21Z" fill="black"/>
<path d="M92.8131 7.674C92.1291 7.386 91.7931 6.834 91.6611 5.97C91.6011 5.61 91.5891 4.998 91.5891 4.59C91.5891 4.182 91.6131 3.522 91.6731 3.198C91.9371 1.866 92.7771 1.362 94.4451 1.362H101.321V9.762H99.0891V7.926H95.1891L94.1211 9.762H91.5891L92.8131 7.674ZM99.0891 5.982V3.198H94.6491C94.2291 3.198 93.8931 3.534 93.8931 3.954V5.226C93.8931 5.646 94.2291 5.982 94.6491 5.982H99.0891Z" fill="black"/>
<path d="M118.821 1.374C121.161 1.374 122.193 2.25 122.193 4.638V6.39C122.193 8.682 121.461 9.774 119.121 9.774H116.457V10.926H114.225V9.774H111.561C109.221 9.774 108.489 8.682 108.489 6.39V4.638C108.489 2.25 109.521 1.374 111.861 1.374H114.225V0.222H116.457V1.374H118.821ZM111.909 7.938H114.225V3.21H111.921C111.141 3.21 110.793 3.438 110.793 4.518V6.51C110.793 7.386 111.081 7.938 111.909 7.938ZM119.889 6.51V4.518C119.889 3.438 119.541 3.21 118.761 3.21H116.457V7.938H118.773C119.601 7.938 119.889 7.386 119.889 6.51Z" fill="black"/>
<path d="M133.431 3.21H125.931V4.65H132.267V6.486H125.931V7.938H133.431V9.774H123.699V1.374H133.431V3.21Z" fill="black"/>
<path d="M144.427 3.198C144.487 3.522 144.511 4.182 144.511 4.59C144.511 4.998 144.499 5.622 144.439 5.97C144.223 7.35 143.515 7.938 141.655 7.938H137.011V9.762H134.779V1.362H141.655C143.323 1.362 144.163 1.866 144.427 3.198ZM142.207 5.226V3.966C142.207 3.546 141.871 3.198 141.451 3.198H137.011V5.982H141.451C141.871 5.982 142.207 5.646 142.207 5.226Z" fill="black"/>
<path d="M154.176 1.374H157.776V9.774H155.544V3.318L152.148 9.774H151.488L148.092 3.318V9.774H145.86V1.374H149.46L151.812 5.934L154.176 1.374Z" fill="black"/>
<path d="M166.491 1.374L169.035 9.774H166.755L166.167 7.818H161.655L161.067 9.774H158.787L161.331 1.374H166.491ZM164.775 3.21H163.047L162.255 5.874H165.567L164.775 3.21Z" fill="black"/>
<g clip-path="url(#clip0_45_363)">
<path d="M5.99781 15.762L0 20.9542" stroke="#9A8C3D" stroke-width="2"/>
<path d="M17.5684 15.762L0 30.7663" stroke="#9A8C3D" stroke-width="2"/>
<path d="M27.9246 15.762L6.90572 33.762" stroke="#9A8C3D" stroke-width="2"/>
<path d="M39.4071 15.762L18.479 33.762" stroke="#9A8C3D" stroke-width="2"/>
<path d="M49.8344 15.762C49.8323 15.7644 49.8332 15.7666 49.8371 15.7686C49.8413 15.771 49.8419 15.7735 49.8387 15.7763L28.8171 33.762" stroke="#9A8C3D" stroke-width="2"/>
<path d="M61.3365 15.762L40.3182 33.762" stroke="#9A8C3D" stroke-width="2"/>
<path d="M71.6035 15.762L50.6754 33.762" stroke="#9A8C3D" stroke-width="2"/>
<path d="M83.1815 15.762L62.2721 33.7417C62.2678 33.7455 62.2667 33.7495 62.2689 33.7538L62.2726 33.762" stroke="#9A8C3D" stroke-width="2"/>
<path d="M93.6243 15.762L72.5151 33.762" stroke="#9A8C3D" stroke-width="2"/>
<path d="M105.107 15.762L84.0878 33.762" stroke="#9A8C3D" stroke-width="2"/>
<path d="M115.444 15.762L115.448 15.7697C115.449 15.773 115.448 15.776 115.445 15.7788L94.5359 33.762" stroke="#9A8C3D" stroke-width="2"/>
<path d="M127.037 15.762L106.018 33.762" stroke="#9A8C3D" stroke-width="2"/>
<path d="M137.395 15.762L116.376 33.762" stroke="#9A8C3D" stroke-width="2"/>
<path d="M148.875 15.762L127.949 33.762" stroke="#9A8C3D" stroke-width="2"/>
<path d="M159.325 15.762L138.307 33.762" stroke="#9A8C3D" stroke-width="2"/>
<path d="M170 16.4988C169.993 16.4975 169.987 16.4969 169.981 16.4971C169.978 16.4973 169.974 16.4983 169.972 16.5001L149.808 33.7447C149.805 33.7474 149.804 33.7504 149.806 33.7535L149.809 33.762" stroke="#9A8C3D" stroke-width="2"/>
<path d="M170 25.3245L160.237 33.762" stroke="#9A8C3D" stroke-width="2"/>
<path d="M0 15.762H5.99781L0 20.9542V15.762Z" fill="#FDE143"/>
<path d="M5.99781 15.762H17.5684L0 30.7663V20.9542L5.99781 15.762Z" fill="#363636"/>
<path d="M17.5684 15.762H27.9246L6.90572 33.762H0V30.7663L17.5684 15.762Z" fill="#FDE143"/>
<path d="M27.9246 15.762H39.4071L18.479 33.762H6.90572L27.9246 15.762Z" fill="#363636"/>
<path d="M39.4071 15.762H49.8344C49.8323 15.7644 49.8332 15.7666 49.8371 15.7686C49.8413 15.771 49.8419 15.7735 49.8387 15.7763L28.8171 33.762H18.479L39.4071 15.762Z" fill="#FDE143"/>
<path d="M49.8344 15.762H61.3365L40.3182 33.762H28.8171L49.8387 15.7763C49.8419 15.7735 49.8413 15.771 49.8371 15.7686C49.8332 15.7666 49.8323 15.7644 49.8344 15.762Z" fill="#363636"/>
<path d="M61.3365 15.762H71.6035L50.6754 33.762H40.3182L61.3365 15.762Z" fill="#FDE143"/>
<path d="M82.8855 15.762H94.5625L73.8438 33.8994H59.5053L59.5012 33.8911C59.4988 33.8869 59.5 33.8828 59.5048 33.8789L82.8855 15.762Z" fill="#FDE143"/>
<path d="M93.6243 15.762H105.107L84.0878 33.762H72.5151L93.6243 15.762Z" fill="#363636"/>
<path d="M105.107 15.762H115.444L115.448 15.7697C115.449 15.773 115.448 15.776 115.445 15.7788L94.5359 33.762H84.0878L105.107 15.762Z" fill="#FDE143"/>
<path d="M115.444 15.762H127.037L106.018 33.762H94.5359L115.445 15.7788C115.448 15.776 115.449 15.773 115.448 15.7697L115.444 15.762Z" fill="#363636"/>
<path d="M127.037 15.762H137.395L116.376 33.762H106.018L127.037 15.762Z" fill="#FDE143"/>
<path d="M137.395 15.762H148.875L127.949 33.762H116.376L137.395 15.762Z" fill="#363636"/>
<path d="M148.875 15.762H159.325L138.307 33.762H127.949L148.875 15.762Z" fill="#FDE143"/>
<path d="M159.325 15.762H170V16.4988C169.993 16.4975 169.987 16.4969 169.981 16.4971C169.977 16.4973 169.974 16.4983 169.972 16.5001L149.808 33.7447C149.805 33.7474 149.804 33.7504 149.806 33.7535L149.809 33.762H138.307L159.325 15.762Z" fill="#363636"/>
<path d="M170 16.4988V25.3245L160.237 33.762H149.809L149.806 33.7535C149.804 33.7504 149.805 33.7474 149.808 33.7447L169.972 16.5001C169.974 16.4983 169.978 16.4973 169.981 16.4971C169.987 16.4969 169.993 16.4975 170 16.4988Z" fill="#FDE143"/>
<path d="M170 25.3245V33.762H160.237L170 25.3245Z" fill="#363636"/>
<path d="M71.6035 15.762H83.1815L62.2721 33.7417C62.2678 33.7455 62.2668 33.7495 62.2689 33.7538L62.2726 33.762H50.6754L71.6035 15.762Z" fill="#363636"/>
</g>
<defs>
<clipPath id="clip0_45_363">
<rect width="170" height="18" fill="white" transform="translate(0 15.762)"/>
</clipPath>
</defs>
</svg>
