<svg width="420" height="469" viewBox="0 0 420 469" fill="none" xmlns="http://www.w3.org/2000/svg" preserveAspectRatio="none">
<path d="M420 39.348C420 25.6078 420 18.7377 417.304 13.5406C414.933 8.97062 411.156 5.28413 406.529 3.02548C401.268 0.456881 394.4 0.624395 380.664 0.959422L46.6381 9.10639C33.7567 9.42057 27.3159 9.57766 22.3667 12.1646C18.0105 14.4415 14.4584 18.001 12.1907 22.3621C9.61432 27.3168 9.47089 33.7578 9.18396 46.6399L0.853699 420.668C0.55484 434.088 0.405396 440.797 2.90137 445.984C5.09689 450.547 8.67917 454.298 13.1357 456.701C18.2019 459.433 24.9113 459.593 38.3302 459.913L380.686 468.064C394.415 468.391 401.28 468.554 406.538 465.984C411.162 463.725 414.937 460.039 417.306 455.47C420 450.274 420 443.408 420 429.675V39.348Z" fill="#F8EEE6"/>
</svg>
