<svg width="440" height="449" viewBox="0 0 440 449" fill="none" xmlns="http://www.w3.org/2000/svg" preserveAspectRatio="none">
<path d="M0.874276 39.255C0.568918 25.5444 0.416238 18.6891 2.98908 13.4389C5.25153 8.82204 8.93679 5.05379 13.5021 2.68911C18.6937 0 25.5507 0 39.2648 0H400.735C414.449 0 421.306 0 426.498 2.68911C431.063 5.05379 434.748 8.82204 437.011 13.4389C439.584 18.6891 439.431 25.5444 439.126 39.255L430.836 411.455C430.543 424.625 430.396 431.21 427.74 436.228C425.403 440.643 421.747 444.218 417.281 446.456C412.206 449 405.619 449 392.446 449H47.5543C34.3809 449 27.7943 449 22.7188 446.456C18.2529 444.218 14.5966 440.643 12.2597 436.228C9.60379 431.21 9.45713 424.625 9.16381 411.455L0.874276 39.255Z" fill="#F8EEE6"/>
</svg>
