<svg width="420" height="469" viewBox="0 0 420 469" fill="none" xmlns="http://www.w3.org/2000/svg" preserveAspectRatio="none">
<mask id="mask0_68_516" style="mask-type:alpha" maskUnits="userSpaceOnUse" x="0" y="0" width="420" height="469">
<path d="M0 39.348C0 25.6078 0 18.7377 2.69612 13.5406C5.06691 8.97062 8.8444 5.28413 13.4708 3.02548C18.7321 0.456881 25.6002 0.624395 39.3363 0.959422L373.362 9.10639C386.243 9.42057 392.684 9.57766 397.633 12.1646C401.99 14.4415 405.542 18.001 407.809 22.3621C410.386 27.3168 410.529 33.7578 410.816 46.6399L419.146 420.668C419.445 434.088 419.595 440.797 417.099 445.984C414.903 450.547 411.321 454.298 406.864 456.701C401.798 459.433 395.089 459.593 381.67 459.913L39.314 468.064C25.5849 468.391 18.7203 468.554 13.4621 465.984C8.83827 463.725 5.06331 460.039 2.6942 455.47C0 450.274 0 443.408 0 429.675V39.348Z" fill="#F8EEE6"/>
</mask>
<g mask="url(#mask0_68_516)">
<path d="M0 39.348C0 25.6078 0 18.7377 2.69612 13.5406C5.06691 8.97062 8.8444 5.28413 13.4708 3.02548C18.7321 0.456881 25.6002 0.624395 39.3363 0.959422L373.362 9.10639C386.243 9.42057 392.684 9.57766 397.633 12.1646C401.99 14.4415 405.542 18.001 407.809 22.3621C410.386 27.3168 410.529 33.7578 410.816 46.6399L419.146 420.668C419.445 434.088 419.595 440.797 417.099 445.984C414.903 450.547 411.321 454.298 406.864 456.701C401.798 459.433 395.089 459.593 381.67 459.913L39.314 468.064C25.5849 468.391 18.7203 468.554 13.4621 465.984C8.83827 463.725 5.06331 460.039 2.6942 455.47C0 450.274 0 443.408 0 429.675V39.348Z" fill="#F8EEE6"/>
</g>
</svg>
