<svg width="298" height="60" viewBox="0 0 298 60" fill="none" xmlns="http://www.w3.org/2000/svg">
<path d="M260.033 48.6277V48.6161L259.883 48.6165C259.248 48.6183 258.64 48.8746 258.192 49.3286C257.744 49.7826 257.493 50.3972 257.493 51.0375C257.493 51.5148 257.633 51.9814 257.895 52.3784C258.158 52.7755 258.531 53.0852 258.968 53.2681C259.405 53.4511 259.886 53.499 260.35 53.4057C260.814 53.3124 261.24 53.0822 261.574 52.7444C261.908 52.4066 262.135 51.9764 262.228 51.5083C262.32 51.0402 262.272 50.5551 262.092 50.114C261.911 49.673 261.605 49.2958 261.212 49.0303C260.86 48.7929 260.454 48.6544 260.033 48.6277ZM262.099 54.3919C261.443 54.8349 260.672 55.0713 259.883 55.0713C258.827 55.0697 257.813 54.6446 257.065 53.8886C256.317 53.1325 255.896 52.1073 255.895 51.0374C255.895 50.2393 256.129 49.4592 256.567 48.7959C257.006 48.1325 257.629 47.6157 258.357 47.3106C259.086 47.0055 259.888 46.9257 260.661 47.0812C261.435 47.2367 262.145 47.6206 262.703 48.1847C263.261 48.7487 263.641 49.4675 263.795 50.2503C263.949 51.0331 263.87 51.8445 263.568 52.5817C263.266 53.319 262.755 53.9489 262.099 54.3919Z" fill="#252525" stroke="#F8EEE6" stroke-width="0.3"/>
<path d="M271.228 48.6277V48.6161L271.078 48.6165C270.443 48.6183 269.835 48.8746 269.387 49.3286C268.939 49.7826 268.688 50.3972 268.688 51.0375C268.688 51.5147 268.828 51.9814 269.09 52.3784C269.353 52.7755 269.726 53.0852 270.163 53.2681C270.6 53.4511 271.081 53.499 271.545 53.4057C272.009 53.3124 272.435 53.0822 272.769 52.7444C273.103 52.4066 273.33 51.9764 273.422 51.5083C273.515 51.0402 273.467 50.5551 273.287 50.114C273.106 49.673 272.8 49.2958 272.407 49.0303C272.055 48.7929 271.648 48.6544 271.228 48.6277ZM273.293 54.3919C272.638 54.8349 271.867 55.0713 271.078 55.0713C270.021 55.0697 269.008 54.6446 268.26 53.8886C267.512 53.1325 267.091 52.1073 267.089 51.0374C267.089 50.2393 267.323 49.4592 267.762 48.7959C268.2 48.1325 268.824 47.6157 269.552 47.3106C270.281 47.0055 271.082 46.9257 271.856 47.0812C272.629 47.2367 273.34 47.6206 273.898 48.1847C274.456 48.7487 274.836 49.4675 274.99 50.2503C275.144 51.0331 275.065 51.8445 274.763 52.5817C274.461 53.319 273.949 53.9489 273.293 54.3919Z" fill="#252525" stroke="#F8EEE6" stroke-width="0.3"/>
<path d="M248.682 48.6166L248.682 48.6166C248.048 48.6184 247.441 48.8737 246.993 49.3262C246.545 49.7787 246.293 50.3916 246.292 51.0308V51.0312C246.292 51.5084 246.432 51.975 246.694 52.3721C246.957 52.7691 247.33 53.0788 247.767 53.2618C248.204 53.4448 248.685 53.4927 249.149 53.3994C249.613 53.3061 250.038 53.0758 250.373 52.738C250.707 52.4002 250.934 51.97 251.026 51.502C251.118 51.0339 251.071 50.5487 250.89 50.1077C250.71 49.6667 250.404 49.2895 250.01 49.0239C249.617 48.7584 249.155 48.6166 248.682 48.6166ZM245.366 53.2729C244.927 52.6095 244.693 51.8294 244.693 51.0313C244.695 49.9614 245.116 48.9362 245.864 48.1802C246.612 47.4242 247.625 46.9991 248.682 46.9974C249.471 46.9974 250.241 47.2338 250.897 47.6768C251.553 48.1199 252.065 48.7497 252.367 49.487C252.669 50.2243 252.748 51.0357 252.594 51.8184C252.44 52.6012 252.06 53.3201 251.502 53.8841C250.944 54.4481 250.233 54.832 249.46 54.9875C248.686 55.143 247.885 55.0632 247.156 54.7581C246.427 54.453 245.804 53.9362 245.366 53.2729Z" fill="#252525" stroke="#F8EEE6" stroke-width="0.3"/>
<mask id="path-4-inside-1_80_936" fill="white">
<path d="M292.898 22.9025H292.753L286.171 7.38928C286.552 6.61307 286.731 5.75196 286.692 4.88663C286.653 4.02129 286.398 3.18005 285.95 2.44169C285.502 1.70333 284.876 1.09202 284.13 0.665017C283.385 0.238015 282.544 0.00929366 281.687 0.000277311C280.83 -0.00873904 279.985 0.202245 279.231 0.613466C278.477 1.02469 277.838 1.62269 277.375 2.35146C276.912 3.08023 276.639 3.91592 276.583 4.78025C276.526 5.64458 276.688 6.50927 277.052 7.29333L265.819 17.4457H255.105C254.854 17.4457 254.612 17.5468 254.434 17.7268C254.256 17.9067 254.156 18.1508 254.156 18.4053V24.1628H246.043C245.792 24.1628 245.55 24.2639 245.372 24.4438C245.194 24.6238 245.094 24.8679 245.094 25.1224V38.0256C245.094 38.2801 245.194 38.5241 245.372 38.7041C245.55 38.884 245.792 38.9851 246.043 38.9851H250.074V42.0878H246.86C244.51 42.0878 242.256 43.0314 240.595 44.711C238.933 46.3906 238 48.6686 238 51.0439C238 53.4192 238.933 55.6972 240.595 57.3768C242.256 59.0564 244.51 60 246.86 60H272.907C275.257 60 277.51 59.0564 279.172 57.3768C280.833 55.6972 281.767 53.4192 281.767 51.0439C281.767 48.6686 280.833 46.3906 279.172 44.711C277.51 43.0314 275.257 42.0878 272.907 42.0878H269.692V38.9851H273.059C273.311 38.9851 273.552 38.884 273.73 38.7041C273.908 38.5241 274.008 38.2801 274.008 38.0256V30.8991C274.014 30.7574 273.989 30.6161 273.934 30.4855C273.88 30.3549 273.797 30.2383 273.692 30.1442L267.686 18.3349L278.172 8.88623C279.065 9.73408 280.232 10.2259 281.456 10.2706C282.68 10.3153 283.879 9.90984 284.83 9.12933L290.873 23.3631C289.95 23.7631 289.166 24.4314 288.62 25.2831C288.074 26.1348 287.79 27.1315 287.806 28.1464C287.821 29.1613 288.135 30.1486 288.707 30.9827C289.279 31.8169 290.084 32.4603 291.019 32.831L282.887 41.5824C282.765 41.7132 282.682 41.8758 282.648 42.0517C282.613 42.2277 282.628 42.4099 282.69 42.5778C282.753 42.7457 282.861 42.8925 283.002 43.0015C283.143 43.1105 283.311 43.1774 283.488 43.1945L293.525 44.1989H293.866C294.79 44.1989 295.675 43.8282 296.328 43.1683C296.98 42.5085 297.347 41.6136 297.347 40.6804V30.6368C297.349 30.6006 297.349 30.5642 297.347 30.528C297.782 29.7478 298.007 28.8658 298 27.9701C297.992 27.0745 297.752 26.1965 297.304 25.4239C296.855 24.6514 296.214 24.0113 295.444 23.5677C294.675 23.1241 293.803 22.8926 292.917 22.8961L292.898 22.9025ZM266.098 19.3649L271.452 29.9395H259.137L256.055 24.8793V19.3649H266.098ZM279.874 51.0311C279.874 51.9552 279.694 52.8703 279.345 53.724C278.995 54.5778 278.482 55.3535 277.836 56.007C277.189 56.6604 276.422 57.1787 275.577 57.5324C274.733 57.886 273.827 58.068 272.913 58.068H246.86C245.013 58.068 243.243 57.3266 241.937 56.007C240.632 54.6873 239.898 52.8974 239.898 51.0311C239.898 49.1648 240.632 47.3749 241.937 46.0552C243.243 44.7355 245.013 43.9942 246.86 43.9942H272.907C274.752 43.9976 276.52 44.7413 277.823 46.062C279.126 47.3827 279.857 49.1723 279.856 51.0375L279.874 51.0311ZM267.813 42.075H251.992V38.9851H267.813V42.075ZM272.16 37.0532H246.993V26.1011H254.587L257.789 31.398C257.873 31.5386 257.992 31.6547 258.134 31.7354C258.276 31.8161 258.436 31.8585 258.599 31.8586H272.141L272.16 37.0532ZM281.653 8.31688C281.027 8.31688 280.415 8.12929 279.895 7.77782C279.374 7.42635 278.969 6.9268 278.729 6.34233C278.49 5.75786 278.427 5.11472 278.549 4.49426C278.671 3.87379 278.973 3.30385 279.415 2.85651C279.858 2.40918 280.422 2.10454 281.035 1.98112C281.649 1.85771 282.285 1.92105 282.864 2.16314C283.442 2.40524 283.936 2.81521 284.284 3.34122C284.631 3.86723 284.817 4.48565 284.817 5.11827C284.819 5.54101 284.737 5.9599 284.578 6.35071C284.418 6.74152 284.184 7.0965 283.888 7.39513C283.592 7.69376 283.24 7.93011 282.853 8.09052C282.466 8.25093 282.052 8.33222 281.634 8.32968L281.653 8.31688ZM289.721 28.0395C289.721 27.4069 289.907 26.7885 290.255 26.2624C290.602 25.7364 291.096 25.3265 291.675 25.0844C292.253 24.8423 292.889 24.7789 293.503 24.9024C294.117 25.0258 294.68 25.3304 295.123 25.7777C295.565 26.2251 295.867 26.795 295.989 27.4155C296.111 28.036 296.048 28.6791 295.809 29.2636C295.569 29.848 295.164 30.3476 294.643 30.699C294.123 31.0505 293.511 31.2381 292.886 31.2381C292.046 31.2381 291.242 30.9011 290.648 30.3013C290.055 29.7014 289.721 28.8878 289.721 28.0395ZM294.93 41.8831C294.767 42.0342 294.575 42.1488 294.365 42.2194C294.156 42.2899 293.934 42.3149 293.715 42.2925L285.589 41.4737L293.31 33.1573C294.07 33.0985 294.808 32.8667 295.467 32.4792V40.6932C295.467 40.9189 295.419 41.1418 295.326 41.3471C295.233 41.5523 295.098 41.7351 294.93 41.8831Z"/>
</mask>
<path d="M292.898 22.9025H292.753L286.171 7.38928C286.552 6.61307 286.731 5.75196 286.692 4.88663C286.653 4.02129 286.398 3.18005 285.95 2.44169C285.502 1.70333 284.876 1.09202 284.13 0.665017C283.385 0.238015 282.544 0.00929366 281.687 0.000277311C280.83 -0.00873904 279.985 0.202245 279.231 0.613466C278.477 1.02469 277.838 1.62269 277.375 2.35146C276.912 3.08023 276.639 3.91592 276.583 4.78025C276.526 5.64458 276.688 6.50927 277.052 7.29333L265.819 17.4457H255.105C254.854 17.4457 254.612 17.5468 254.434 17.7268C254.256 17.9067 254.156 18.1508 254.156 18.4053V24.1628H246.043C245.792 24.1628 245.55 24.2639 245.372 24.4438C245.194 24.6238 245.094 24.8679 245.094 25.1224V38.0256C245.094 38.2801 245.194 38.5241 245.372 38.7041C245.55 38.884 245.792 38.9851 246.043 38.9851H250.074V42.0878H246.86C244.51 42.0878 242.256 43.0314 240.595 44.711C238.933 46.3906 238 48.6686 238 51.0439C238 53.4192 238.933 55.6972 240.595 57.3768C242.256 59.0564 244.51 60 246.86 60H272.907C275.257 60 277.51 59.0564 279.172 57.3768C280.833 55.6972 281.767 53.4192 281.767 51.0439C281.767 48.6686 280.833 46.3906 279.172 44.711C277.51 43.0314 275.257 42.0878 272.907 42.0878H269.692V38.9851H273.059C273.311 38.9851 273.552 38.884 273.73 38.7041C273.908 38.5241 274.008 38.2801 274.008 38.0256V30.8991C274.014 30.7574 273.989 30.6161 273.934 30.4855C273.88 30.3549 273.797 30.2383 273.692 30.1442L267.686 18.3349L278.172 8.88623C279.065 9.73408 280.232 10.2259 281.456 10.2706C282.68 10.3153 283.879 9.90984 284.83 9.12933L290.873 23.3631C289.95 23.7631 289.166 24.4314 288.62 25.2831C288.074 26.1348 287.79 27.1315 287.806 28.1464C287.821 29.1613 288.135 30.1486 288.707 30.9827C289.279 31.8169 290.084 32.4603 291.019 32.831L282.887 41.5824C282.765 41.7132 282.682 41.8758 282.648 42.0517C282.613 42.2277 282.628 42.4099 282.69 42.5778C282.753 42.7457 282.861 42.8925 283.002 43.0015C283.143 43.1105 283.311 43.1774 283.488 43.1945L293.525 44.1989H293.866C294.79 44.1989 295.675 43.8282 296.328 43.1683C296.98 42.5085 297.347 41.6136 297.347 40.6804V30.6368C297.349 30.6006 297.349 30.5642 297.347 30.528C297.782 29.7478 298.007 28.8658 298 27.9701C297.992 27.0745 297.752 26.1965 297.304 25.4239C296.855 24.6514 296.214 24.0113 295.444 23.5677C294.675 23.1241 293.803 22.8926 292.917 22.8961L292.898 22.9025ZM266.098 19.3649L271.452 29.9395H259.137L256.055 24.8793V19.3649H266.098ZM279.874 51.0311C279.874 51.9552 279.694 52.8703 279.345 53.724C278.995 54.5778 278.482 55.3535 277.836 56.007C277.189 56.6604 276.422 57.1787 275.577 57.5324C274.733 57.886 273.827 58.068 272.913 58.068H246.86C245.013 58.068 243.243 57.3266 241.937 56.007C240.632 54.6873 239.898 52.8974 239.898 51.0311C239.898 49.1648 240.632 47.3749 241.937 46.0552C243.243 44.7355 245.013 43.9942 246.86 43.9942H272.907C274.752 43.9976 276.52 44.7413 277.823 46.062C279.126 47.3827 279.857 49.1723 279.856 51.0375L279.874 51.0311ZM267.813 42.075H251.992V38.9851H267.813V42.075ZM272.16 37.0532H246.993V26.1011H254.587L257.789 31.398C257.873 31.5386 257.992 31.6547 258.134 31.7354C258.276 31.8161 258.436 31.8585 258.599 31.8586H272.141L272.16 37.0532ZM281.653 8.31688C281.027 8.31688 280.415 8.12929 279.895 7.77782C279.374 7.42635 278.969 6.9268 278.729 6.34233C278.49 5.75786 278.427 5.11472 278.549 4.49426C278.671 3.87379 278.973 3.30385 279.415 2.85651C279.858 2.40918 280.422 2.10454 281.035 1.98112C281.649 1.85771 282.285 1.92105 282.864 2.16314C283.442 2.40524 283.936 2.81521 284.284 3.34122C284.631 3.86723 284.817 4.48565 284.817 5.11827C284.819 5.54101 284.737 5.9599 284.578 6.35071C284.418 6.74152 284.184 7.0965 283.888 7.39513C283.592 7.69376 283.24 7.93011 282.853 8.09052C282.466 8.25093 282.052 8.33222 281.634 8.32968L281.653 8.31688ZM289.721 28.0395C289.721 27.4069 289.907 26.7885 290.255 26.2624C290.602 25.7364 291.096 25.3265 291.675 25.0844C292.253 24.8423 292.889 24.7789 293.503 24.9024C294.117 25.0258 294.68 25.3304 295.123 25.7777C295.565 26.2251 295.867 26.795 295.989 27.4155C296.111 28.036 296.048 28.6791 295.809 29.2636C295.569 29.848 295.164 30.3476 294.643 30.699C294.123 31.0505 293.511 31.2381 292.886 31.2381C292.046 31.2381 291.242 30.9011 290.648 30.3013C290.055 29.7014 289.721 28.8878 289.721 28.0395ZM294.93 41.8831C294.767 42.0342 294.575 42.1488 294.365 42.2194C294.156 42.2899 293.934 42.3149 293.715 42.2925L285.589 41.4737L293.31 33.1573C294.07 33.0985 294.808 32.8667 295.467 32.4792V40.6932C295.467 40.9189 295.419 41.1418 295.326 41.3471C295.233 41.5523 295.098 41.7351 294.93 41.8831Z" fill="#252525" stroke="#F8EEE6" stroke-width="0.6" mask="url(#path-4-inside-1_80_936)"/>
<mask id="path-5-inside-2_80_936" fill="white">
<path d="M6.7853e-06 44.3918C-0.00365654 48.3198 1.47615 52.1043 4.14339 54.9882C6.81062 57.8722 10.4686 59.6429 14.3855 59.9462C18.3024 60.2494 22.1894 59.0628 25.2689 56.6238C28.3484 54.1847 30.3932 50.6731 30.9944 46.7914H33.8192C34.0665 47.4909 34.5241 48.097 35.1292 48.5265C35.7343 48.956 36.4574 49.1881 37.1995 49.1909H48.0594C48.2402 51.0072 48.8332 52.7583 49.7931 54.3108C50.753 55.8634 52.0545 57.1765 53.5986 58.1502C55.1427 59.1239 56.8886 59.7325 58.7035 59.9298C60.5184 60.127 62.3543 59.9076 64.0716 59.2883C65.7889 58.669 67.3422 57.6662 68.6133 56.3561C69.8844 55.0459 70.8398 53.4632 71.4067 51.7282C71.9736 49.9932 72.1371 48.1517 71.8848 46.344C71.6325 44.5363 70.971 42.8099 69.9507 41.2964L71.933 29.3874C72.1192 28.2318 71.8791 27.048 71.2575 26.0562C70.6359 25.0643 69.6751 24.3321 68.5539 23.9956C65.3718 23.1552 62.0901 22.7516 58.7992 22.7958H49.1993V3.59934C49.1993 2.64473 48.8201 1.72923 48.1449 1.05422C47.4698 0.379215 46.5542 0 45.5994 0H19.1998C17.9267 0 16.7058 0.505619 15.8057 1.40563C14.9055 2.30564 14.3998 3.52631 14.3998 4.79912C14.4007 5.18649 14.4953 5.56791 14.6756 5.91076C14.856 6.25362 15.1167 6.54773 15.4354 6.76795L13.0798 19.338C9.32364 19.7098 5.69869 20.9193 2.47197 22.8774C1.7655 23.3219 1.23437 23.9969 0.968485 24.788C0.702604 25.5791 0.718313 26.4378 1.01295 27.2186C1.30759 27.9995 1.86306 28.6546 2.58532 29.073C3.30757 29.4914 4.15225 29.6474 4.97634 29.5146L6.13552 32.0233C4.23015 33.4741 2.68527 35.3449 1.62111 37.4902C0.556944 39.6354 0.00218793 41.9972 6.7853e-06 44.3918ZM15.5998 57.5894C12.9891 57.5894 10.4371 56.8154 8.26637 55.3652C6.09567 53.915 4.40381 51.8538 3.40475 49.4423C2.40569 47.0308 2.14429 44.3772 2.65361 41.8171C3.16292 39.257 4.42009 36.9054 6.26611 35.0597C8.11214 33.214 10.4641 31.9571 13.0246 31.4478C15.5852 30.9386 18.2392 31.2 20.6512 32.1989C23.0631 33.1977 25.1246 34.8893 26.5751 37.0596C28.0255 39.23 28.7996 41.7816 28.7996 44.3918C28.7955 47.8908 27.4035 51.2452 24.9289 53.7193C22.4544 56.1935 19.0993 57.5853 15.5998 57.5894ZM59.9992 57.5894C58.1005 57.5894 56.2445 57.0265 54.6658 55.9718C53.0871 54.9171 51.8567 53.4181 51.1301 51.6642C50.4035 49.9104 50.2134 47.9805 50.5838 46.1186C50.9542 44.2568 51.8685 42.5465 53.2111 41.2042C54.5536 39.8618 56.2642 38.9477 58.1264 38.5773C59.9886 38.207 61.9188 38.3971 63.6729 39.1235C65.4271 39.85 66.9264 41.0802 67.9812 42.6587C69.036 44.2371 69.5991 46.0928 69.5991 47.9911C69.5962 50.5359 68.5839 52.9756 66.7842 54.775C64.9845 56.5744 62.5444 57.5865 59.9992 57.5894ZM69.5823 28.7947H64.7991C64.4809 28.7947 64.1757 28.6683 63.9506 28.4433C63.7256 28.2183 63.5992 27.9131 63.5992 27.5949V25.4701C65.0402 25.6254 66.4656 25.9015 67.8603 26.2956C68.3923 26.4484 68.8546 26.7811 69.1685 27.2369C69.4823 27.6927 69.6294 28.2433 69.5823 28.7947ZM44.3994 22.7958V7.19867H46.7994V22.7958H44.3994ZM42.0282 34.7324C41.9347 34.7819 41.8288 34.8032 41.7234 34.7936H39.6835C39.4569 34.7962 39.2344 34.7333 39.0428 34.6124C38.8512 34.4915 38.6986 34.3177 38.6035 34.1121C36.9375 30.3987 34.3976 27.1435 31.2006 24.6243C28.0035 22.1051 24.2443 20.3968 20.2437 19.6452L22.5945 7.19867H41.9994V16.0278C41.3611 15.7998 40.6713 15.757 40.0096 15.9043C39.348 16.0517 38.7415 16.3832 38.2603 16.8605L34.8631 20.2559C34.1926 20.9302 33.8163 21.8425 33.8163 22.7934C33.8163 23.7443 34.1926 24.6565 34.8631 25.3309C35.1938 25.6685 35.5885 25.9368 36.024 26.1201C36.4596 26.3035 36.9273 26.3982 37.3999 26.3987H37.4107C37.7359 26.3939 38.0589 26.3447 38.3707 26.2524L42.0258 31.5374L42.0282 34.7324ZM38.2591 23.6356C38.147 23.7493 38.0134 23.8397 37.8661 23.9015C37.7189 23.9633 37.5608 23.9952 37.4011 23.9956C37.2441 23.9948 37.0889 23.9625 36.9446 23.9007C36.8004 23.8389 36.6699 23.7488 36.5611 23.6356C36.3391 23.4111 36.2146 23.108 36.2146 22.7922C36.2146 22.4764 36.3391 22.1733 36.5611 21.9488L39.9571 18.5546C40.0654 18.4296 40.1983 18.3284 40.3476 18.2573C40.4969 18.1861 40.6592 18.1466 40.8245 18.1412C40.9898 18.1358 41.1544 18.1646 41.308 18.2257C41.4616 18.2869 41.601 18.3792 41.7172 18.4968C41.8335 18.6144 41.9242 18.7547 41.9836 18.909C42.0431 19.0632 42.07 19.2281 42.0627 19.3933C42.0554 19.5585 42.014 19.7204 41.9412 19.8688C41.8684 20.0172 41.7656 20.149 41.6395 20.2559L38.2591 23.6356ZM42.0078 27.301L40.3639 24.9242L41.9994 23.2937V23.9956L42.0078 27.301ZM19.1998 2.39956H45.5994C45.9177 2.39956 46.2229 2.52596 46.4479 2.75096C46.673 2.97597 46.7994 3.28114 46.7994 3.59934V4.79912H16.7998C16.7998 4.16271 17.0526 3.55238 17.5027 3.10237C17.9528 2.65237 18.5632 2.39956 19.1998 2.39956ZM17.7946 7.19867H20.1525L17.8642 19.3164C17.1142 19.2421 16.3618 19.1965 15.5998 19.1965H15.5422L17.7946 7.19867ZM3.33716 26.5499C3.182 26.2811 3.13521 25.9633 3.20634 25.6612C3.27747 25.3591 3.46116 25.0955 3.71996 24.9242C6.48665 23.2398 9.58032 22.1636 12.7952 21.7673C16.0101 21.3709 19.2726 21.6635 22.3657 22.6255C25.4587 23.5875 28.3115 25.1968 30.7343 27.3466C33.157 29.4964 35.0943 32.1372 36.4171 35.0935C36.7019 35.7203 37.1613 36.2518 37.7404 36.6241C38.3195 36.9965 38.9937 37.1941 39.6823 37.1931H41.7222C42.058 37.2224 42.3961 37.1826 42.7158 37.076C43.0355 36.9694 43.33 36.7983 43.5809 36.5734C43.8318 36.3485 44.0339 36.0745 44.1747 35.7683C44.3155 35.4622 44.392 35.1305 44.3994 34.7936V25.1954H58.7992C59.662 25.1954 60.448 25.2265 61.1992 25.2685V27.5949C61.1992 28.5495 61.5785 29.465 62.2536 30.14C62.9287 30.815 63.8444 31.1942 64.7991 31.1942H69.2007L67.9035 38.9868C66.2498 37.5283 64.2256 36.5546 62.0538 36.1728C59.882 35.791 57.647 36.0161 55.5949 36.8231C53.5429 37.6302 51.7535 38.9879 50.4238 40.7468C49.0942 42.5056 48.276 44.5973 48.0594 46.7914H37.1995C36.8813 46.7914 36.576 46.665 36.351 46.44C36.1259 46.215 35.9995 45.9098 35.9995 45.5916V44.3918C35.9992 41.6327 35.4389 38.9024 34.3527 36.3661C33.2665 33.8298 31.6769 31.5401 29.6801 29.6357C27.6833 27.7314 25.3209 26.2519 22.7357 25.2867C20.1505 24.3216 17.3963 23.8909 14.6398 24.0208C11.2257 24.178 7.90852 25.206 5.00394 27.007C4.86613 27.0928 4.71208 27.1491 4.55146 27.1724C4.39085 27.1958 4.22713 27.1857 4.07061 27.1428C3.91408 27.0998 3.76812 27.025 3.6419 26.923C3.51568 26.821 3.41193 26.6939 3.33716 26.5499ZM7.16511 28.5307C9.4992 27.2636 12.0899 26.5413 14.743 26.4179C17.1759 26.302 19.6071 26.681 21.8893 27.5319C24.1714 28.3829 26.2571 29.6881 28.0201 31.3685C29.783 33.0489 31.1865 35.0695 32.1455 37.3081C33.1046 39.5466 33.5992 41.9565 33.5996 44.3918H31.1996C31.1991 41.6891 30.4962 39.033 29.1599 36.6837C27.8235 34.3344 25.8995 32.3726 23.5765 30.9907C21.2535 29.6087 18.6111 28.854 15.9085 28.8005C13.2059 28.747 10.5358 29.3966 8.1599 30.6855L7.16511 28.5307Z"/>
</mask>
<path d="M6.7853e-06 44.3918C-0.00365654 48.3198 1.47615 52.1043 4.14339 54.9882C6.81062 57.8722 10.4686 59.6429 14.3855 59.9462C18.3024 60.2494 22.1894 59.0628 25.2689 56.6238C28.3484 54.1847 30.3932 50.6731 30.9944 46.7914H33.8192C34.0665 47.4909 34.5241 48.097 35.1292 48.5265C35.7343 48.956 36.4574 49.1881 37.1995 49.1909H48.0594C48.2402 51.0072 48.8332 52.7583 49.7931 54.3108C50.753 55.8634 52.0545 57.1765 53.5986 58.1502C55.1427 59.1239 56.8886 59.7325 58.7035 59.9298C60.5184 60.127 62.3543 59.9076 64.0716 59.2883C65.7889 58.669 67.3422 57.6662 68.6133 56.3561C69.8844 55.0459 70.8398 53.4632 71.4067 51.7282C71.9736 49.9932 72.1371 48.1517 71.8848 46.344C71.6325 44.5363 70.971 42.8099 69.9507 41.2964L71.933 29.3874C72.1192 28.2318 71.8791 27.048 71.2575 26.0562C70.6359 25.0643 69.6751 24.3321 68.5539 23.9956C65.3718 23.1552 62.0901 22.7516 58.7992 22.7958H49.1993V3.59934C49.1993 2.64473 48.8201 1.72923 48.1449 1.05422C47.4698 0.379215 46.5542 0 45.5994 0H19.1998C17.9267 0 16.7058 0.505619 15.8057 1.40563C14.9055 2.30564 14.3998 3.52631 14.3998 4.79912C14.4007 5.18649 14.4953 5.56791 14.6756 5.91076C14.856 6.25362 15.1167 6.54773 15.4354 6.76795L13.0798 19.338C9.32364 19.7098 5.69869 20.9193 2.47197 22.8774C1.7655 23.3219 1.23437 23.9969 0.968485 24.788C0.702604 25.5791 0.718313 26.4378 1.01295 27.2186C1.30759 27.9995 1.86306 28.6546 2.58532 29.073C3.30757 29.4914 4.15225 29.6474 4.97634 29.5146L6.13552 32.0233C4.23015 33.4741 2.68527 35.3449 1.62111 37.4902C0.556944 39.6354 0.00218793 41.9972 6.7853e-06 44.3918ZM15.5998 57.5894C12.9891 57.5894 10.4371 56.8154 8.26637 55.3652C6.09567 53.915 4.40381 51.8538 3.40475 49.4423C2.40569 47.0308 2.14429 44.3772 2.65361 41.8171C3.16292 39.257 4.42009 36.9054 6.26611 35.0597C8.11214 33.214 10.4641 31.9571 13.0246 31.4478C15.5852 30.9386 18.2392 31.2 20.6512 32.1989C23.0631 33.1977 25.1246 34.8893 26.5751 37.0596C28.0255 39.23 28.7996 41.7816 28.7996 44.3918C28.7955 47.8908 27.4035 51.2452 24.9289 53.7193C22.4544 56.1935 19.0993 57.5853 15.5998 57.5894ZM59.9992 57.5894C58.1005 57.5894 56.2445 57.0265 54.6658 55.9718C53.0871 54.9171 51.8567 53.4181 51.1301 51.6642C50.4035 49.9104 50.2134 47.9805 50.5838 46.1186C50.9542 44.2568 51.8685 42.5465 53.2111 41.2042C54.5536 39.8618 56.2642 38.9477 58.1264 38.5773C59.9886 38.207 61.9188 38.3971 63.6729 39.1235C65.4271 39.85 66.9264 41.0802 67.9812 42.6587C69.036 44.2371 69.5991 46.0928 69.5991 47.9911C69.5962 50.5359 68.5839 52.9756 66.7842 54.775C64.9845 56.5744 62.5444 57.5865 59.9992 57.5894ZM69.5823 28.7947H64.7991C64.4809 28.7947 64.1757 28.6683 63.9506 28.4433C63.7256 28.2183 63.5992 27.9131 63.5992 27.5949V25.4701C65.0402 25.6254 66.4656 25.9015 67.8603 26.2956C68.3923 26.4484 68.8546 26.7811 69.1685 27.2369C69.4823 27.6927 69.6294 28.2433 69.5823 28.7947ZM44.3994 22.7958V7.19867H46.7994V22.7958H44.3994ZM42.0282 34.7324C41.9347 34.7819 41.8288 34.8032 41.7234 34.7936H39.6835C39.4569 34.7962 39.2344 34.7333 39.0428 34.6124C38.8512 34.4915 38.6986 34.3177 38.6035 34.1121C36.9375 30.3987 34.3976 27.1435 31.2006 24.6243C28.0035 22.1051 24.2443 20.3968 20.2437 19.6452L22.5945 7.19867H41.9994V16.0278C41.3611 15.7998 40.6713 15.757 40.0096 15.9043C39.348 16.0517 38.7415 16.3832 38.2603 16.8605L34.8631 20.2559C34.1926 20.9302 33.8163 21.8425 33.8163 22.7934C33.8163 23.7443 34.1926 24.6565 34.8631 25.3309C35.1938 25.6685 35.5885 25.9368 36.024 26.1201C36.4596 26.3035 36.9273 26.3982 37.3999 26.3987H37.4107C37.7359 26.3939 38.0589 26.3447 38.3707 26.2524L42.0258 31.5374L42.0282 34.7324ZM38.2591 23.6356C38.147 23.7493 38.0134 23.8397 37.8661 23.9015C37.7189 23.9633 37.5608 23.9952 37.4011 23.9956C37.2441 23.9948 37.0889 23.9625 36.9446 23.9007C36.8004 23.8389 36.6699 23.7488 36.5611 23.6356C36.3391 23.4111 36.2146 23.108 36.2146 22.7922C36.2146 22.4764 36.3391 22.1733 36.5611 21.9488L39.9571 18.5546C40.0654 18.4296 40.1983 18.3284 40.3476 18.2573C40.4969 18.1861 40.6592 18.1466 40.8245 18.1412C40.9898 18.1358 41.1544 18.1646 41.308 18.2257C41.4616 18.2869 41.601 18.3792 41.7172 18.4968C41.8335 18.6144 41.9242 18.7547 41.9836 18.909C42.0431 19.0632 42.07 19.2281 42.0627 19.3933C42.0554 19.5585 42.014 19.7204 41.9412 19.8688C41.8684 20.0172 41.7656 20.149 41.6395 20.2559L38.2591 23.6356ZM42.0078 27.301L40.3639 24.9242L41.9994 23.2937V23.9956L42.0078 27.301ZM19.1998 2.39956H45.5994C45.9177 2.39956 46.2229 2.52596 46.4479 2.75096C46.673 2.97597 46.7994 3.28114 46.7994 3.59934V4.79912H16.7998C16.7998 4.16271 17.0526 3.55238 17.5027 3.10237C17.9528 2.65237 18.5632 2.39956 19.1998 2.39956ZM17.7946 7.19867H20.1525L17.8642 19.3164C17.1142 19.2421 16.3618 19.1965 15.5998 19.1965H15.5422L17.7946 7.19867ZM3.33716 26.5499C3.182 26.2811 3.13521 25.9633 3.20634 25.6612C3.27747 25.3591 3.46116 25.0955 3.71996 24.9242C6.48665 23.2398 9.58032 22.1636 12.7952 21.7673C16.0101 21.3709 19.2726 21.6635 22.3657 22.6255C25.4587 23.5875 28.3115 25.1968 30.7343 27.3466C33.157 29.4964 35.0943 32.1372 36.4171 35.0935C36.7019 35.7203 37.1613 36.2518 37.7404 36.6241C38.3195 36.9965 38.9937 37.1941 39.6823 37.1931H41.7222C42.058 37.2224 42.3961 37.1826 42.7158 37.076C43.0355 36.9694 43.33 36.7983 43.5809 36.5734C43.8318 36.3485 44.0339 36.0745 44.1747 35.7683C44.3155 35.4622 44.392 35.1305 44.3994 34.7936V25.1954H58.7992C59.662 25.1954 60.448 25.2265 61.1992 25.2685V27.5949C61.1992 28.5495 61.5785 29.465 62.2536 30.14C62.9287 30.815 63.8444 31.1942 64.7991 31.1942H69.2007L67.9035 38.9868C66.2498 37.5283 64.2256 36.5546 62.0538 36.1728C59.882 35.791 57.647 36.0161 55.5949 36.8231C53.5429 37.6302 51.7535 38.9879 50.4238 40.7468C49.0942 42.5056 48.276 44.5973 48.0594 46.7914H37.1995C36.8813 46.7914 36.576 46.665 36.351 46.44C36.1259 46.215 35.9995 45.9098 35.9995 45.5916V44.3918C35.9992 41.6327 35.4389 38.9024 34.3527 36.3661C33.2665 33.8298 31.6769 31.5401 29.6801 29.6357C27.6833 27.7314 25.3209 26.2519 22.7357 25.2867C20.1505 24.3216 17.3963 23.8909 14.6398 24.0208C11.2257 24.178 7.90852 25.206 5.00394 27.007C4.86613 27.0928 4.71208 27.1491 4.55146 27.1724C4.39085 27.1958 4.22713 27.1857 4.07061 27.1428C3.91408 27.0998 3.76812 27.025 3.6419 26.923C3.51568 26.821 3.41193 26.6939 3.33716 26.5499ZM7.16511 28.5307C9.4992 27.2636 12.0899 26.5413 14.743 26.4179C17.1759 26.302 19.6071 26.681 21.8893 27.5319C24.1714 28.3829 26.2571 29.6881 28.0201 31.3685C29.783 33.0489 31.1865 35.0695 32.1455 37.3081C33.1046 39.5466 33.5992 41.9565 33.5996 44.3918H31.1996C31.1991 41.6891 30.4962 39.033 29.1599 36.6837C27.8235 34.3344 25.8995 32.3726 23.5765 30.9907C21.2535 29.6087 18.6111 28.854 15.9085 28.8005C13.2059 28.747 10.5358 29.3966 8.1599 30.6855L7.16511 28.5307Z" fill="#252525" stroke="#F8EEE6" mask="url(#path-5-inside-2_80_936)"/>
<path d="M15.5998 53.0402H15.6001C17.8932 53.0373 20.0915 52.1252 21.713 50.504C23.3345 48.8828 24.2467 46.6848 24.2497 44.3921V44.3918C24.2497 42.6812 23.7424 41.0092 22.7919 39.5869C21.8414 38.1647 20.4905 37.0562 18.9099 36.4016C17.3294 35.7471 15.5902 35.5758 13.9123 35.9095C12.2344 36.2432 10.6931 37.0669 9.48341 38.2764C8.2737 39.4859 7.44987 41.0269 7.11611 42.7045C6.78234 44.3822 6.95364 46.1211 7.60834 47.7014C8.26303 49.2817 9.37172 50.6324 10.7942 51.5827C12.2166 52.533 13.889 53.0402 15.5998 53.0402ZM9.73858 35.6214C11.4735 34.4624 13.5131 33.8438 15.5996 33.8438C18.3967 33.8469 21.0783 34.9592 23.0562 36.9367C25.034 38.9142 26.1465 41.5954 26.1496 44.392C26.1496 46.4781 25.5309 48.5174 24.3717 50.2519C23.2125 51.9865 21.5648 53.3385 19.6371 54.1368C17.7093 54.9352 15.5881 55.1441 13.5416 54.7371C11.4951 54.3301 9.61532 53.3255 8.1399 51.8503C6.66448 50.3751 5.65971 48.4957 5.25264 46.4496C4.84558 44.4035 5.0545 42.2826 5.85299 40.3552C6.65147 38.4278 8.00367 36.7805 9.73858 35.6214Z" fill="#252525" stroke="#F8EEE6" stroke-width="0.5"/>
<path d="M56.1381 42.2136C57.2809 41.45 58.6246 41.0425 59.9991 41.0425C61.8418 41.0444 63.6085 41.7771 64.9115 43.0798C66.2145 44.3826 66.9473 46.149 66.9491 47.9914C66.9491 49.3656 66.5415 50.709 65.7779 51.8516C65.0142 52.9943 63.9288 53.885 62.6589 54.4109C61.3889 54.9368 59.9915 55.0744 58.6434 54.8063C57.2952 54.5382 56.0568 53.8764 55.0849 52.9046C54.1129 51.9328 53.451 50.6947 53.1829 49.3468C52.9147 47.9989 53.0523 46.6017 53.5783 45.332C54.1044 44.0623 54.9951 42.9771 56.1381 42.2136ZM57.1936 52.1893C58.0241 52.7441 59.0005 53.0403 59.9992 53.0403C61.3385 53.0403 62.623 52.5083 63.5701 51.5614C64.5171 50.6145 65.0492 49.3303 65.0492 47.9912C65.0492 46.9925 64.753 46.0163 64.1981 45.186C63.6432 44.3557 62.8545 43.7085 61.9317 43.3264C61.009 42.9442 59.9936 42.8442 59.014 43.0391C58.0345 43.2339 57.1346 43.7147 56.4284 44.4209C55.7221 45.127 55.2412 46.0267 55.0463 47.0061C54.8515 47.9856 54.9515 49.0008 55.3337 49.9234C55.7159 50.846 56.3632 51.6346 57.1936 52.1893Z" fill="#252525" stroke="#F8EEE6" stroke-width="0.5"/>
<mask id="path-8-inside-3_80_936" fill="white">
<path d="M142.681 23.6321C132.744 23.6321 124.794 31.5566 124.794 41.4623C124.794 51.3679 132.744 59.2924 142.681 59.2924C152.619 59.2924 160.568 51.3679 160.568 41.4623C160.568 31.5566 152.477 23.6321 142.681 23.6321ZM142.681 57.8774C133.595 57.8774 126.213 50.5189 126.213 41.4623C126.213 32.4057 133.595 25.0472 142.681 25.0472C151.767 25.0472 159.149 32.4057 159.149 41.4623C159.149 50.5189 151.767 57.8774 142.681 57.8774ZM142.681 30.7075C136.719 30.7075 131.892 35.5189 131.892 41.4623C131.892 47.4057 136.719 52.217 142.681 52.217C148.644 52.217 153.47 47.4057 153.47 41.4623C153.328 35.5189 148.644 30.7075 142.681 30.7075ZM142.681 50.8019C137.57 50.8019 133.311 46.6981 133.311 41.4623C133.311 36.3679 137.428 32.1226 142.681 32.1226C147.934 32.1226 152.051 36.2264 152.051 41.4623C151.909 46.5566 147.792 50.8019 142.681 50.8019ZM142.681 34.3868C138.706 34.3868 135.583 37.6415 135.583 41.4623C135.583 45.283 138.848 48.5377 142.681 48.5377C146.514 48.5377 149.779 45.283 149.779 41.4623C149.779 37.6415 146.656 34.3868 142.681 34.3868ZM142.681 47.1226C139.558 47.1226 137.003 44.5755 137.003 41.4623C137.003 38.3491 139.558 35.8019 142.681 35.8019C145.804 35.8019 148.36 38.3491 148.36 41.4623C148.36 44.5755 145.804 47.1226 142.681 47.1226ZM142.681 39.1981C141.545 39.1981 140.552 40.1887 140.552 41.3208C140.552 42.4528 141.545 43.4434 142.681 43.4434C143.817 43.4434 144.811 42.4528 144.811 41.3208C144.811 40.0472 143.817 39.1981 142.681 39.1981ZM142.681 42.0283C142.255 42.0283 141.971 41.7453 141.971 41.3208C141.971 40.8962 142.255 40.6132 142.681 40.6132C143.107 40.6132 143.391 40.8962 143.391 41.3208C143.391 41.7453 143.107 42.0283 142.681 42.0283ZM199.892 37.9245C193.93 37.9245 189.103 42.7358 189.103 48.6792C189.103 54.6226 193.93 59.434 199.892 59.434C205.855 59.434 210.682 54.6226 210.682 48.6792C210.682 42.7358 205.855 37.9245 199.892 37.9245ZM199.892 57.8774C194.782 57.8774 190.523 53.7736 190.523 48.5377C190.523 43.3019 194.64 39.1981 199.892 39.1981C205.145 39.1981 209.262 43.3019 209.262 48.5377C209.262 53.7736 205.003 57.8774 199.892 57.8774ZM199.892 43.0189C196.911 43.0189 194.498 45.4245 194.498 48.3962C194.498 51.3679 196.911 53.7736 199.892 53.7736C202.874 53.7736 205.287 51.3679 205.287 48.3962C205.287 45.4245 202.874 43.0189 199.892 43.0189ZM199.892 52.3585C197.763 52.3585 195.917 50.6604 195.917 48.3962C195.917 46.1321 197.621 44.434 199.892 44.434C202.164 44.434 203.867 46.1321 203.867 48.3962C203.867 50.6604 202.022 52.3585 199.892 52.3585ZM199.892 46.2736C198.757 46.2736 197.763 47.2641 197.763 48.3962C197.763 49.5283 198.757 50.5189 199.892 50.5189C201.028 50.5189 202.022 49.5283 202.022 48.3962C202.022 47.2641 201.028 46.2736 199.892 46.2736ZM199.892 49.1038C199.467 49.1038 199.183 48.8207 199.183 48.3962C199.183 47.9717 199.467 47.6887 199.892 47.6887C200.318 47.6887 200.602 47.9717 200.602 48.3962C200.602 48.8207 200.318 49.1038 199.892 49.1038ZM121.812 44.8585L112.301 46.8396C112.159 46.4151 112.017 45.849 111.733 45.566L121.954 43.4434C122.38 43.3019 122.522 43.0189 122.522 42.5943C122.38 42.1698 122.096 42.0283 121.67 42.0283L110.455 44.2924C109.745 43.8679 109.036 43.5849 108.184 43.5849C107.19 43.5849 106.196 44.0094 105.487 44.5755C104.777 44.434 104.067 44.2924 103.357 44.2924C99.2402 44.2924 95.833 47.4057 95.5491 51.5094C93.5616 51.7925 92 53.6321 92 55.7547C92 58.1604 93.9875 60 96.2589 60C96.5428 60 96.8268 59.717 96.8268 59.2924C96.8268 58.8679 96.5428 58.5849 96.1169 58.5849C94.5553 58.5849 93.2777 57.3113 93.2777 55.7547C93.2777 54.1981 94.5553 52.9245 96.1169 52.9245H98.3884C97.6786 53.6321 97.2527 54.6226 97.2527 55.7547C97.2527 58.1604 99.2402 60 101.512 60C101.937 60 102.221 59.717 102.221 59.2924C102.221 58.8679 101.937 58.5849 101.512 58.5849C99.95 58.5849 98.6723 57.3113 98.6723 55.7547C98.6723 54.1981 99.95 52.9245 101.512 52.9245H103.783C103.073 53.6321 102.647 54.6226 102.647 55.7547C102.647 58.1604 104.635 60 106.906 60C107.332 60 107.616 59.717 107.616 59.2924C107.616 58.8679 107.332 58.5849 106.906 58.5849C105.345 58.5849 104.067 57.3113 104.067 55.7547C104.067 54.1981 105.345 52.9245 106.906 52.9245H110.455C110.881 52.9245 111.165 52.6415 111.165 52.217C111.165 51.7925 111.165 51.3679 111.023 51.0849C111.733 50.3774 112.301 49.3868 112.301 48.2547L121.954 46.2736C122.38 46.1321 122.522 45.8491 122.522 45.4245C122.522 45 122.096 44.717 121.812 44.8585ZM96.8268 51.5094C97.1107 48.2547 99.95 45.8491 103.215 45.8491C106.48 45.8491 109.32 48.3962 109.604 51.5094H96.8268ZM107.048 45.283C107.332 45.1415 107.758 45 108.184 45C109.745 45 111.023 46.2736 111.023 47.8302C111.023 48.3962 110.881 48.8208 110.597 49.2453C109.887 47.5472 108.61 46.1321 107.048 45.283ZM216.502 18.3962C215.225 16.8396 213.237 15.8491 211.25 15.8491H194.214V14.717H194.924C195.35 14.717 195.634 14.434 195.634 14.0094V5.09434C195.634 4.66981 195.35 4.38679 194.924 4.38679H194.214V4.24528V0.707547C194.214 0.283019 193.93 0 193.504 0C193.078 0 192.794 0.283019 192.794 0.707547V4.24528V4.38679H192.084C191.942 4.38679 191.659 4.5283 191.517 4.5283C191.375 4.66981 191.375 4.81132 191.375 5.09434C191.375 8.49057 191.375 13.5849 191.375 14.0094C191.375 14.1509 191.375 14.2925 191.375 14.2925C191.517 14.5755 191.801 14.717 192.084 14.717H192.794V15.8491H168.093C167.809 15.7075 167.383 15.7075 167.099 15.9906C166.531 16.8396 165.821 17.6887 165.111 18.3962L161.704 15L163.408 13.3019C163.692 13.0189 163.692 12.5943 163.408 12.3113C163.124 12.0283 162.698 12.0283 162.414 12.3113L158.013 16.8396C157.729 17.1226 157.729 17.5472 158.013 17.8302C158.155 17.9717 158.297 17.9717 158.581 17.9717C158.865 17.9717 159.007 17.9717 159.149 17.8302L160.852 16.1321L164.26 19.5283C161.704 21.7925 158.439 23.3491 154.89 23.7736C151.483 21.3679 147.224 19.9528 142.823 19.9528C141.687 19.9528 140.41 20.0943 139.274 20.2358C137.286 18.3962 134.873 17.4057 132.034 17.4057C131.608 17.4057 131.324 17.6887 131.324 18.1132V23.2075C128.485 25.0472 126.071 27.4528 124.226 30.4245C124.084 30.7075 124.084 31.1321 124.51 31.4151C124.794 31.5566 125.22 31.5566 125.503 31.1321C129.053 25.0472 135.725 21.3679 142.823 21.3679C153.044 21.3679 161.562 29.0094 162.698 39.0566C162.84 40.8962 164.402 42.1698 166.247 42.1698H188.535C188.961 42.1698 189.245 41.8868 189.245 41.4623C189.245 41.0377 188.961 40.7547 188.535 40.7547H166.105C164.969 40.7547 164.118 39.9057 163.976 38.9151C163.266 33.2547 160.427 28.3019 156.31 24.9057C160.994 23.9151 165.111 21.2264 167.951 17.2641H192.794V19.3868H177.178C171.642 19.3868 167.099 23.9151 167.099 29.434V33.2547C167.099 33.6792 167.383 33.9623 167.809 33.9623H192.368C192.652 33.9623 192.936 33.8208 193.078 33.5377L199.041 20.3774C199.183 20.0943 199.183 19.9528 199.041 19.6698C198.899 19.5283 198.757 19.3868 198.473 19.3868H194.498V17.2641H211.533C213.237 17.2641 214.657 17.9717 215.792 19.2453C216.786 20.5189 217.212 22.217 216.786 23.7736C216.786 23.7736 216.644 24.7641 216.218 26.1792H216.076H209.83C209.404 26.1792 209.12 26.4623 209.12 26.8868C209.12 27.3113 209.404 27.5943 209.83 27.5943H215.792C215.65 28.1604 215.367 28.7264 215.225 29.434H209.83C209.404 29.434 209.12 29.717 209.12 30.1415C209.12 30.566 209.404 30.8491 209.83 30.8491H214.657C214.373 31.4151 214.089 31.9811 213.805 32.6887H209.83C209.404 32.6887 209.12 32.9717 209.12 33.3962C209.12 33.8208 209.404 34.1038 209.83 34.1038H212.953C212.527 34.6698 212.243 35.3774 211.675 35.9434H209.688C209.262 35.9434 208.978 36.2264 208.978 36.6509C208.978 37.0755 209.262 37.3585 209.688 37.3585H210.398C209.972 37.783 209.546 38.2075 209.12 38.6321C208.836 38.9151 208.836 39.3396 208.978 39.6226C209.12 39.7641 209.262 39.9057 209.546 39.9057C209.688 39.9057 209.83 39.9057 209.972 39.7641C216.218 34.3868 217.78 24.7641 217.78 24.3396C218.348 22.0755 217.78 19.9528 216.502 18.3962ZM192.794 5.80189H194.214V13.3019H192.794C192.794 12.1698 192.794 10.0472 192.794 5.80189ZM132.602 18.8208C134.305 18.9623 135.867 19.5283 137.286 20.5189C135.583 20.9434 134.021 21.5094 132.602 22.3585V18.8208ZM197.053 20.8019L191.801 32.5472H168.377V29.434C168.377 24.6226 172.351 20.8019 177.036 20.8019H192.652V21.6509C192.652 22.0755 192.368 22.3585 191.942 22.3585C191.517 22.3585 191.233 22.6415 191.233 23.066C191.233 23.4906 191.517 23.7736 191.942 23.7736C193.078 23.7736 194.072 22.783 194.072 21.6509V20.8019H197.053ZM179.45 28.5849C179.45 29.0094 179.166 29.2924 178.74 29.2924H177.32C176.894 29.2924 176.61 29.0094 176.61 28.5849C176.61 28.1604 176.894 27.8774 177.32 27.8774H178.74C179.166 27.8774 179.45 28.3019 179.45 28.5849ZM180.585 21.0849C179.592 21.0849 178.74 21.7925 178.456 22.783C176.752 23.3491 175.191 24.1981 173.771 25.6132C173.487 25.4717 173.061 25.3302 172.635 25.3302C171.074 25.3302 169.796 26.6038 169.796 28.1604C169.796 29.717 171.074 30.9906 172.635 30.9906C174.197 30.9906 175.475 29.717 175.475 28.1604C175.475 27.4528 175.191 26.8868 174.907 26.4623C175.901 25.4717 177.178 24.6226 178.598 24.1981C179.024 24.9057 179.592 25.3302 180.443 25.3302C181.579 25.3302 182.573 24.3396 182.573 23.2075C182.573 22.0755 181.721 21.0849 180.585 21.0849ZM172.635 29.717C171.784 29.717 171.216 29.0094 171.216 28.3019C171.216 27.4528 171.926 26.8868 172.635 26.8868C173.487 26.8868 174.055 27.5943 174.055 28.3019C174.197 29.0094 173.487 29.717 172.635 29.717ZM180.585 24.0566C180.159 24.0566 179.876 23.7736 179.876 23.3491C179.876 22.9245 180.159 22.6415 180.585 22.6415C181.011 22.6415 181.295 22.9245 181.295 23.3491C181.295 23.6321 181.011 24.0566 180.585 24.0566ZM189.813 23.2075V28.5849C189.813 29.0094 189.529 29.2924 189.103 29.2924H187.684C187.258 29.2924 186.974 29.0094 186.974 28.5849C186.974 28.1604 187.258 27.8774 187.684 27.8774H188.393V23.9151H184.276C183.851 23.9151 183.567 23.6321 183.567 23.2075C183.567 22.783 183.851 22.5 184.276 22.5H189.103C189.529 22.5 189.813 22.9245 189.813 23.2075ZM185.98 27.8774V29.5755C185.98 30 185.696 30.283 185.27 30.283C184.844 30.283 184.56 30 184.56 29.5755V28.0189C184.56 27.5943 184.844 27.3113 185.27 27.3113C185.696 27.3113 185.98 27.4528 185.98 27.8774ZM183.851 27.8774V29.5755C183.851 30 183.567 30.283 183.141 30.283C182.715 30.283 182.431 30 182.431 29.5755V28.0189C182.431 27.5943 182.715 27.3113 183.141 27.3113C183.567 27.3113 183.851 27.4528 183.851 27.8774ZM181.579 27.8774V29.5755C181.579 30 181.295 30.283 180.869 30.283C180.443 30.283 180.159 30 180.159 29.5755V28.0189C180.159 27.5943 180.443 27.3113 180.869 27.3113C181.295 27.3113 181.579 27.4528 181.579 27.8774ZM212.385 21.5094C212.385 22.3585 213.095 22.9245 213.805 22.9245C214.231 22.9245 214.515 23.2075 214.515 23.6321C214.515 24.0566 214.231 24.3396 213.805 24.3396C212.243 24.3396 210.966 23.066 210.966 21.5094C210.966 19.9528 212.243 18.6792 213.805 18.6792C214.231 18.6792 214.515 18.9623 214.515 19.3868C214.515 19.8113 214.231 20.0943 213.805 20.0943C213.095 20.0943 212.385 20.6604 212.385 21.5094Z"/>
</mask>
<path d="M142.681 23.6321C132.744 23.6321 124.794 31.5566 124.794 41.4623C124.794 51.3679 132.744 59.2924 142.681 59.2924C152.619 59.2924 160.568 51.3679 160.568 41.4623C160.568 31.5566 152.477 23.6321 142.681 23.6321ZM142.681 57.8774C133.595 57.8774 126.213 50.5189 126.213 41.4623C126.213 32.4057 133.595 25.0472 142.681 25.0472C151.767 25.0472 159.149 32.4057 159.149 41.4623C159.149 50.5189 151.767 57.8774 142.681 57.8774ZM142.681 30.7075C136.719 30.7075 131.892 35.5189 131.892 41.4623C131.892 47.4057 136.719 52.217 142.681 52.217C148.644 52.217 153.47 47.4057 153.47 41.4623C153.328 35.5189 148.644 30.7075 142.681 30.7075ZM142.681 50.8019C137.57 50.8019 133.311 46.6981 133.311 41.4623C133.311 36.3679 137.428 32.1226 142.681 32.1226C147.934 32.1226 152.051 36.2264 152.051 41.4623C151.909 46.5566 147.792 50.8019 142.681 50.8019ZM142.681 34.3868C138.706 34.3868 135.583 37.6415 135.583 41.4623C135.583 45.283 138.848 48.5377 142.681 48.5377C146.514 48.5377 149.779 45.283 149.779 41.4623C149.779 37.6415 146.656 34.3868 142.681 34.3868ZM142.681 47.1226C139.558 47.1226 137.003 44.5755 137.003 41.4623C137.003 38.3491 139.558 35.8019 142.681 35.8019C145.804 35.8019 148.36 38.3491 148.36 41.4623C148.36 44.5755 145.804 47.1226 142.681 47.1226ZM142.681 39.1981C141.545 39.1981 140.552 40.1887 140.552 41.3208C140.552 42.4528 141.545 43.4434 142.681 43.4434C143.817 43.4434 144.811 42.4528 144.811 41.3208C144.811 40.0472 143.817 39.1981 142.681 39.1981ZM142.681 42.0283C142.255 42.0283 141.971 41.7453 141.971 41.3208C141.971 40.8962 142.255 40.6132 142.681 40.6132C143.107 40.6132 143.391 40.8962 143.391 41.3208C143.391 41.7453 143.107 42.0283 142.681 42.0283ZM199.892 37.9245C193.93 37.9245 189.103 42.7358 189.103 48.6792C189.103 54.6226 193.93 59.434 199.892 59.434C205.855 59.434 210.682 54.6226 210.682 48.6792C210.682 42.7358 205.855 37.9245 199.892 37.9245ZM199.892 57.8774C194.782 57.8774 190.523 53.7736 190.523 48.5377C190.523 43.3019 194.64 39.1981 199.892 39.1981C205.145 39.1981 209.262 43.3019 209.262 48.5377C209.262 53.7736 205.003 57.8774 199.892 57.8774ZM199.892 43.0189C196.911 43.0189 194.498 45.4245 194.498 48.3962C194.498 51.3679 196.911 53.7736 199.892 53.7736C202.874 53.7736 205.287 51.3679 205.287 48.3962C205.287 45.4245 202.874 43.0189 199.892 43.0189ZM199.892 52.3585C197.763 52.3585 195.917 50.6604 195.917 48.3962C195.917 46.1321 197.621 44.434 199.892 44.434C202.164 44.434 203.867 46.1321 203.867 48.3962C203.867 50.6604 202.022 52.3585 199.892 52.3585ZM199.892 46.2736C198.757 46.2736 197.763 47.2641 197.763 48.3962C197.763 49.5283 198.757 50.5189 199.892 50.5189C201.028 50.5189 202.022 49.5283 202.022 48.3962C202.022 47.2641 201.028 46.2736 199.892 46.2736ZM199.892 49.1038C199.467 49.1038 199.183 48.8207 199.183 48.3962C199.183 47.9717 199.467 47.6887 199.892 47.6887C200.318 47.6887 200.602 47.9717 200.602 48.3962C200.602 48.8207 200.318 49.1038 199.892 49.1038ZM121.812 44.8585L112.301 46.8396C112.159 46.4151 112.017 45.849 111.733 45.566L121.954 43.4434C122.38 43.3019 122.522 43.0189 122.522 42.5943C122.38 42.1698 122.096 42.0283 121.67 42.0283L110.455 44.2924C109.745 43.8679 109.036 43.5849 108.184 43.5849C107.19 43.5849 106.196 44.0094 105.487 44.5755C104.777 44.434 104.067 44.2924 103.357 44.2924C99.2402 44.2924 95.833 47.4057 95.5491 51.5094C93.5616 51.7925 92 53.6321 92 55.7547C92 58.1604 93.9875 60 96.2589 60C96.5428 60 96.8268 59.717 96.8268 59.2924C96.8268 58.8679 96.5428 58.5849 96.1169 58.5849C94.5553 58.5849 93.2777 57.3113 93.2777 55.7547C93.2777 54.1981 94.5553 52.9245 96.1169 52.9245H98.3884C97.6786 53.6321 97.2527 54.6226 97.2527 55.7547C97.2527 58.1604 99.2402 60 101.512 60C101.937 60 102.221 59.717 102.221 59.2924C102.221 58.8679 101.937 58.5849 101.512 58.5849C99.95 58.5849 98.6723 57.3113 98.6723 55.7547C98.6723 54.1981 99.95 52.9245 101.512 52.9245H103.783C103.073 53.6321 102.647 54.6226 102.647 55.7547C102.647 58.1604 104.635 60 106.906 60C107.332 60 107.616 59.717 107.616 59.2924C107.616 58.8679 107.332 58.5849 106.906 58.5849C105.345 58.5849 104.067 57.3113 104.067 55.7547C104.067 54.1981 105.345 52.9245 106.906 52.9245H110.455C110.881 52.9245 111.165 52.6415 111.165 52.217C111.165 51.7925 111.165 51.3679 111.023 51.0849C111.733 50.3774 112.301 49.3868 112.301 48.2547L121.954 46.2736C122.38 46.1321 122.522 45.8491 122.522 45.4245C122.522 45 122.096 44.717 121.812 44.8585ZM96.8268 51.5094C97.1107 48.2547 99.95 45.8491 103.215 45.8491C106.48 45.8491 109.32 48.3962 109.604 51.5094H96.8268ZM107.048 45.283C107.332 45.1415 107.758 45 108.184 45C109.745 45 111.023 46.2736 111.023 47.8302C111.023 48.3962 110.881 48.8208 110.597 49.2453C109.887 47.5472 108.61 46.1321 107.048 45.283ZM216.502 18.3962C215.225 16.8396 213.237 15.8491 211.25 15.8491H194.214V14.717H194.924C195.35 14.717 195.634 14.434 195.634 14.0094V5.09434C195.634 4.66981 195.35 4.38679 194.924 4.38679H194.214V4.24528V0.707547C194.214 0.283019 193.93 0 193.504 0C193.078 0 192.794 0.283019 192.794 0.707547V4.24528V4.38679H192.084C191.942 4.38679 191.659 4.5283 191.517 4.5283C191.375 4.66981 191.375 4.81132 191.375 5.09434C191.375 8.49057 191.375 13.5849 191.375 14.0094C191.375 14.1509 191.375 14.2925 191.375 14.2925C191.517 14.5755 191.801 14.717 192.084 14.717H192.794V15.8491H168.093C167.809 15.7075 167.383 15.7075 167.099 15.9906C166.531 16.8396 165.821 17.6887 165.111 18.3962L161.704 15L163.408 13.3019C163.692 13.0189 163.692 12.5943 163.408 12.3113C163.124 12.0283 162.698 12.0283 162.414 12.3113L158.013 16.8396C157.729 17.1226 157.729 17.5472 158.013 17.8302C158.155 17.9717 158.297 17.9717 158.581 17.9717C158.865 17.9717 159.007 17.9717 159.149 17.8302L160.852 16.1321L164.26 19.5283C161.704 21.7925 158.439 23.3491 154.89 23.7736C151.483 21.3679 147.224 19.9528 142.823 19.9528C141.687 19.9528 140.41 20.0943 139.274 20.2358C137.286 18.3962 134.873 17.4057 132.034 17.4057C131.608 17.4057 131.324 17.6887 131.324 18.1132V23.2075C128.485 25.0472 126.071 27.4528 124.226 30.4245C124.084 30.7075 124.084 31.1321 124.51 31.4151C124.794 31.5566 125.22 31.5566 125.503 31.1321C129.053 25.0472 135.725 21.3679 142.823 21.3679C153.044 21.3679 161.562 29.0094 162.698 39.0566C162.84 40.8962 164.402 42.1698 166.247 42.1698H188.535C188.961 42.1698 189.245 41.8868 189.245 41.4623C189.245 41.0377 188.961 40.7547 188.535 40.7547H166.105C164.969 40.7547 164.118 39.9057 163.976 38.9151C163.266 33.2547 160.427 28.3019 156.31 24.9057C160.994 23.9151 165.111 21.2264 167.951 17.2641H192.794V19.3868H177.178C171.642 19.3868 167.099 23.9151 167.099 29.434V33.2547C167.099 33.6792 167.383 33.9623 167.809 33.9623H192.368C192.652 33.9623 192.936 33.8208 193.078 33.5377L199.041 20.3774C199.183 20.0943 199.183 19.9528 199.041 19.6698C198.899 19.5283 198.757 19.3868 198.473 19.3868H194.498V17.2641H211.533C213.237 17.2641 214.657 17.9717 215.792 19.2453C216.786 20.5189 217.212 22.217 216.786 23.7736C216.786 23.7736 216.644 24.7641 216.218 26.1792H216.076H209.83C209.404 26.1792 209.12 26.4623 209.12 26.8868C209.12 27.3113 209.404 27.5943 209.83 27.5943H215.792C215.65 28.1604 215.367 28.7264 215.225 29.434H209.83C209.404 29.434 209.12 29.717 209.12 30.1415C209.12 30.566 209.404 30.8491 209.83 30.8491H214.657C214.373 31.4151 214.089 31.9811 213.805 32.6887H209.83C209.404 32.6887 209.12 32.9717 209.12 33.3962C209.12 33.8208 209.404 34.1038 209.83 34.1038H212.953C212.527 34.6698 212.243 35.3774 211.675 35.9434H209.688C209.262 35.9434 208.978 36.2264 208.978 36.6509C208.978 37.0755 209.262 37.3585 209.688 37.3585H210.398C209.972 37.783 209.546 38.2075 209.12 38.6321C208.836 38.9151 208.836 39.3396 208.978 39.6226C209.12 39.7641 209.262 39.9057 209.546 39.9057C209.688 39.9057 209.83 39.9057 209.972 39.7641C216.218 34.3868 217.78 24.7641 217.78 24.3396C218.348 22.0755 217.78 19.9528 216.502 18.3962ZM192.794 5.80189H194.214V13.3019H192.794C192.794 12.1698 192.794 10.0472 192.794 5.80189ZM132.602 18.8208C134.305 18.9623 135.867 19.5283 137.286 20.5189C135.583 20.9434 134.021 21.5094 132.602 22.3585V18.8208ZM197.053 20.8019L191.801 32.5472H168.377V29.434C168.377 24.6226 172.351 20.8019 177.036 20.8019H192.652V21.6509C192.652 22.0755 192.368 22.3585 191.942 22.3585C191.517 22.3585 191.233 22.6415 191.233 23.066C191.233 23.4906 191.517 23.7736 191.942 23.7736C193.078 23.7736 194.072 22.783 194.072 21.6509V20.8019H197.053ZM179.45 28.5849C179.45 29.0094 179.166 29.2924 178.74 29.2924H177.32C176.894 29.2924 176.61 29.0094 176.61 28.5849C176.61 28.1604 176.894 27.8774 177.32 27.8774H178.74C179.166 27.8774 179.45 28.3019 179.45 28.5849ZM180.585 21.0849C179.592 21.0849 178.74 21.7925 178.456 22.783C176.752 23.3491 175.191 24.1981 173.771 25.6132C173.487 25.4717 173.061 25.3302 172.635 25.3302C171.074 25.3302 169.796 26.6038 169.796 28.1604C169.796 29.717 171.074 30.9906 172.635 30.9906C174.197 30.9906 175.475 29.717 175.475 28.1604C175.475 27.4528 175.191 26.8868 174.907 26.4623C175.901 25.4717 177.178 24.6226 178.598 24.1981C179.024 24.9057 179.592 25.3302 180.443 25.3302C181.579 25.3302 182.573 24.3396 182.573 23.2075C182.573 22.0755 181.721 21.0849 180.585 21.0849ZM172.635 29.717C171.784 29.717 171.216 29.0094 171.216 28.3019C171.216 27.4528 171.926 26.8868 172.635 26.8868C173.487 26.8868 174.055 27.5943 174.055 28.3019C174.197 29.0094 173.487 29.717 172.635 29.717ZM180.585 24.0566C180.159 24.0566 179.876 23.7736 179.876 23.3491C179.876 22.9245 180.159 22.6415 180.585 22.6415C181.011 22.6415 181.295 22.9245 181.295 23.3491C181.295 23.6321 181.011 24.0566 180.585 24.0566ZM189.813 23.2075V28.5849C189.813 29.0094 189.529 29.2924 189.103 29.2924H187.684C187.258 29.2924 186.974 29.0094 186.974 28.5849C186.974 28.1604 187.258 27.8774 187.684 27.8774H188.393V23.9151H184.276C183.851 23.9151 183.567 23.6321 183.567 23.2075C183.567 22.783 183.851 22.5 184.276 22.5H189.103C189.529 22.5 189.813 22.9245 189.813 23.2075ZM185.98 27.8774V29.5755C185.98 30 185.696 30.283 185.27 30.283C184.844 30.283 184.56 30 184.56 29.5755V28.0189C184.56 27.5943 184.844 27.3113 185.27 27.3113C185.696 27.3113 185.98 27.4528 185.98 27.8774ZM183.851 27.8774V29.5755C183.851 30 183.567 30.283 183.141 30.283C182.715 30.283 182.431 30 182.431 29.5755V28.0189C182.431 27.5943 182.715 27.3113 183.141 27.3113C183.567 27.3113 183.851 27.4528 183.851 27.8774ZM181.579 27.8774V29.5755C181.579 30 181.295 30.283 180.869 30.283C180.443 30.283 180.159 30 180.159 29.5755V28.0189C180.159 27.5943 180.443 27.3113 180.869 27.3113C181.295 27.3113 181.579 27.4528 181.579 27.8774ZM212.385 21.5094C212.385 22.3585 213.095 22.9245 213.805 22.9245C214.231 22.9245 214.515 23.2075 214.515 23.6321C214.515 24.0566 214.231 24.3396 213.805 24.3396C212.243 24.3396 210.966 23.066 210.966 21.5094C210.966 19.9528 212.243 18.6792 213.805 18.6792C214.231 18.6792 214.515 18.9623 214.515 19.3868C214.515 19.8113 214.231 20.0943 213.805 20.0943C213.095 20.0943 212.385 20.6604 212.385 21.5094Z" fill="#252525" stroke="#F8EEE6" stroke-width="0.2" mask="url(#path-8-inside-3_80_936)"/>
</svg>
