<svg width="645" height="363" viewBox="0 0 645 363" fill="none" xmlns="http://www.w3.org/2000/svg" preserveAspectRatio="none">
<path d="M0 47.8088C0 34.5547 0 27.9277 2.56536 22.8344C4.82239 18.3533 8.42708 14.6922 12.8726 12.3659C17.9255 9.72187 24.5518 9.61906 37.8043 9.41343L605.504 0.605053C619.133 0.393586 625.948 0.287852 631.163 2.87405C635.749 5.14845 639.488 8.82971 641.833 13.3801C644.5 18.5543 644.5 25.3697 644.5 39.0004V324C644.5 337.63 644.5 344.446 641.833 349.62C639.488 354.17 635.749 357.852 631.163 360.126C625.948 362.712 619.133 362.606 605.504 362.395L37.8042 353.587C24.5517 353.381 17.9255 353.278 12.8726 350.634C8.42708 348.308 4.82239 344.647 2.56536 340.166C0 335.072 0 328.445 0 315.191L0 47.8088Z" fill="#D7D7D7"/>
</svg>
