<svg width="645" height="363" viewBox="0 0 645 363" fill="none" xmlns="http://www.w3.org/2000/svg" preserveAspectRatio="none">
<path d="M644.5 47.8088C644.5 34.5547 644.5 27.9277 641.935 22.8344C639.678 18.3533 636.073 14.6922 631.627 12.3659C626.575 9.72187 619.948 9.61906 606.696 9.41343L38.9957 0.605053C25.3666 0.393586 18.5521 0.287852 13.3371 2.87405C8.75092 5.14845 5.01208 8.82971 2.66681 13.3801C0 18.5543 0 25.3697 0 39.0004V324C0 337.63 0 344.446 2.66681 349.62C5.01208 354.17 8.75092 357.852 13.3371 360.126C18.5521 362.712 25.3666 362.606 38.9957 362.395L606.696 353.587C619.948 353.381 626.575 353.278 631.627 350.634C636.073 348.308 639.678 344.647 641.935 340.166C644.5 335.072 644.5 328.445 644.5 315.191L644.5 47.8088Z" fill="#D7D7D7"/>
</svg>
