<svg width="419" height="276" viewBox="0 0 419 276" fill="none" xmlns="http://www.w3.org/2000/svg" preserveAspectRatio="none">
<path d="M419 39.348C419 25.6078 419 18.7377 416.304 13.5406C413.933 8.97062 410.156 5.28413 405.529 3.02548C400.268 0.456881 393.4 0.624395 379.664 0.959422L45.0277 9.12127C32.3413 9.4307 25.998 9.58541 21.0924 12.1182C16.7736 14.3479 13.2336 17.8365 10.9407 22.1221C8.33633 26.9902 8.08865 33.3304 7.59332 46.011L0.521881 227.04C-0.0100403 240.657 -0.276001 247.466 2.18591 252.739C4.35101 257.377 7.94211 261.201 12.4348 263.653C17.5433 266.441 24.3551 266.604 37.9786 266.928L379.686 275.064C393.415 275.391 400.28 275.554 405.538 272.984C410.162 270.725 413.937 267.039 416.306 262.47C419 257.274 419 250.408 419 236.675V39.348Z" fill="#F8EEE6"/>
</svg>
