<svg width="438" height="256" viewBox="0 0 438 256" fill="none" xmlns="http://www.w3.org/2000/svg" preserveAspectRatio="none">
<path d="M0.558549 39.8988C0.0151031 25.9866 -0.25662 19.0305 2.28189 13.6926C4.51363 8.99984 8.20819 5.15814 12.8103 2.74493C18.045 0 25.0065 0 38.9293 0H399.071C412.994 0 419.955 0 425.19 2.74493C429.792 5.15814 433.486 8.99984 435.718 13.6926C438.257 19.0305 437.985 25.9866 437.441 39.8989L430.441 219.099C429.935 232.064 429.682 238.546 426.998 243.476C424.635 247.815 420.992 251.319 416.564 253.51C411.533 256 405.045 256 392.071 256H45.9293C32.9547 256 26.4674 256 21.4362 253.51C17.0084 251.319 13.3647 247.815 11.0024 243.476C8.3182 238.546 8.06498 232.064 7.55855 219.099L0.558549 39.8988Z" fill="#F8EEE6"/>
</svg>
