<svg width="419" height="276" viewBox="0 0 419 276" fill="none" xmlns="http://www.w3.org/2000/svg" preserveAspectRatio="none">
<path d="M0 39.348C0 25.6078 0 18.7377 2.69612 13.5406C5.06691 8.97062 8.8444 5.28413 13.4708 3.02548C18.7321 0.456881 25.6002 0.624395 39.3363 0.959422L373.972 9.12127C386.659 9.4307 393.002 9.58541 397.908 12.1182C402.226 14.3479 405.766 17.8365 408.059 22.1221C410.664 26.9902 410.911 33.3304 411.407 46.011L418.478 227.04C419.01 240.657 419.276 247.466 416.814 252.739C414.649 257.377 411.058 261.201 406.565 263.653C401.457 266.441 394.645 266.604 381.021 266.928L39.314 275.064C25.5849 275.391 18.7203 275.554 13.4621 272.984C8.83827 270.725 5.06331 267.039 2.6942 262.47C0 257.274 0 250.408 0 236.675V39.348Z" fill="#F8EEE6"/>
</svg>
