<svg width="62" height="62" viewBox="0 0 62 62" fill="none" xmlns="http://www.w3.org/2000/svg">
<mask id="path-1-outside-1_58_252" maskUnits="userSpaceOnUse" x="0" y="0" width="62" height="62" fill="black">
<rect fill="white" width="62" height="62"/>
<path d="M27.3375 7.74076C27.343 7.73963 27.3474 7.73738 27.3529 7.73625C27.5488 7.19519 27.8324 6.7071 28.1827 6.29567C28.8986 5.45476 29.8905 4.93512 30.9896 4.93512C32.0887 4.93512 33.0806 5.45476 33.7965 6.29567C34.1468 6.7071 34.4315 7.19631 34.6274 7.7385L34.6329 7.74076C36.0528 8.20517 37.2395 8.70115 38.332 9.37297C39.4312 10.0493 40.4274 10.8981 41.4543 12.0625C41.8002 12.4548 42.0848 12.6272 42.3016 12.6442C42.3881 12.6509 42.4625 12.6272 42.5227 12.581C42.6004 12.5213 42.665 12.4243 42.7121 12.3026C42.8424 11.9667 42.8369 11.4865 42.6497 11.0119C41.7279 8.67635 40.0103 6.21676 37.7267 4.43914C35.824 2.9591 33.5316 1.95475 30.9863 1.89952C28.441 1.95475 26.1486 2.9591 24.246 4.43914C21.9624 6.21676 20.2447 8.67522 19.3229 11.0119C19.1357 11.4865 19.1292 11.9667 19.2605 12.3026C19.3076 12.4243 19.3722 12.5213 19.4499 12.581C19.5101 12.6272 19.5846 12.6509 19.6711 12.6442C19.8878 12.6272 20.1724 12.4559 20.5184 12.0625C21.5453 10.8981 22.5404 10.0504 23.6406 9.37297C24.7331 8.70115 25.9198 8.20405 27.3397 7.74076H27.3375ZM53.1527 21.5616C53.156 21.5661 53.1592 21.5717 53.1625 21.5762C53.723 21.601 54.2605 21.7273 54.7488 21.9426C55.745 22.3833 56.531 23.1938 56.8715 24.2714C57.2109 25.3468 57.0379 26.4785 56.4829 27.4389C56.2103 27.9101 55.8468 28.3384 55.4067 28.698V28.707C55.4166 30.24 55.3257 31.5566 55.0422 32.8326C54.7565 34.1188 54.2803 35.3553 53.5227 36.7215C53.2665 37.1825 53.1954 37.5151 53.2479 37.7338C53.2676 37.8183 53.3125 37.8825 53.3738 37.9276C53.4526 37.9851 53.5621 38.0178 53.6902 38.0268C54.0427 38.0516 54.485 37.8972 54.8648 37.5681C56.7379 35.9437 58.4786 33.5011 59.4146 30.7157C60.1941 28.3948 60.4119 25.8371 59.673 23.3212H59.674C58.8344 20.848 57.201 18.916 55.2491 17.5137C52.9031 15.8274 50.0994 14.9054 47.6571 14.7239C47.16 14.6867 46.7145 14.8298 46.4441 15.062C46.3467 15.1454 46.2766 15.239 46.2459 15.3337C46.2219 15.4081 46.2219 15.4881 46.2547 15.5693C46.3368 15.7756 46.5842 16.001 47.055 16.2197C48.4475 16.8656 49.5389 17.578 50.5045 18.4459C51.4668 19.3116 52.2922 20.3194 53.156 21.5627L53.1527 21.5616ZM52.1291 21.6461C51.4109 20.6519 50.7125 19.829 49.9265 19.1223C49.0299 18.3163 48.0063 17.649 46.6926 17.0403C45.9985 16.719 45.6077 16.3178 45.4446 15.9074C45.3274 15.6121 45.3253 15.3179 45.4161 15.0451C45.4993 14.7915 45.6624 14.5627 45.8847 14.3722C46.3149 14.0025 46.9904 13.7725 47.7173 13.8266C50.3009 14.0182 53.2643 14.9933 55.7472 16.7777C57.8436 18.2847 59.5996 20.3678 60.5028 23.0439C60.505 23.0495 60.5071 23.0563 60.5082 23.0619H60.5093C61.3052 25.7729 61.0742 28.521 60.2378 31.0099C59.2482 33.9553 57.4068 36.5378 55.4254 38.2568C54.867 38.7415 54.1894 38.9647 53.6322 38.9264C53.3453 38.9061 53.0837 38.8193 52.8702 38.6648C52.6403 38.4969 52.4728 38.2579 52.3995 37.9468C52.2977 37.5173 52.3853 36.9571 52.7629 36.2763C53.4778 34.989 53.9245 33.8302 54.1905 32.6342C54.4237 31.5848 54.5189 30.4993 54.5331 29.2684C54.3229 29.3743 54.1029 29.4667 53.8719 29.5445C52.717 29.9312 51.5357 29.8568 50.5592 29.425C49.563 28.9843 48.777 28.1738 48.4365 27.0962C48.0971 26.0208 48.2701 24.8891 48.8251 23.9287C49.3692 22.9864 50.2833 22.2108 51.435 21.8253C51.666 21.7476 51.8981 21.6889 52.1291 21.6484V21.6461ZM55.733 26.9824C56.1621 26.2395 56.2979 25.3704 56.0395 24.551C55.7811 23.7326 55.1747 23.1126 54.4029 22.7711C53.6125 22.4216 52.6502 22.363 51.7054 22.6786C50.7585 22.9954 50.0129 23.6244 49.574 24.3841C49.1448 25.127 49.0091 25.996 49.2674 26.8155C49.5258 27.6339 50.1323 28.2539 50.9041 28.5954C51.6945 28.9448 52.6567 29.0035 53.6015 28.6867C54.5485 28.37 55.294 27.741 55.733 26.9812V26.9824ZM48.3643 51.1127C48.361 51.1183 48.3566 51.1228 48.3533 51.1274C48.5033 51.6831 48.5526 52.2489 48.5044 52.7934C48.4048 53.9059 47.899 54.9272 47.0101 55.5923C46.1211 56.2573 45.022 56.4365 43.9645 56.1908C43.4456 56.0702 42.9365 55.8459 42.468 55.5258L42.4614 55.528C41.0492 56.0116 39.8056 56.3283 38.5368 56.4456C37.2614 56.5639 35.9718 56.4794 34.4775 56.1593C33.9728 56.051 33.6433 56.0849 33.4582 56.2032C33.386 56.2494 33.34 56.3126 33.3181 56.3858C33.2897 56.4805 33.2929 56.5977 33.3247 56.7285C33.4112 57.0802 33.6892 57.4646 34.1107 57.734C36.1907 59.0663 38.9845 60.0166 41.8451 60.073C44.2305 60.1192 46.6608 59.542 48.7562 58.0406L48.7573 58.0417C50.7815 56.4557 52.0612 54.2588 52.7542 51.9142C53.5873 49.0939 53.5731 46.0639 52.9852 43.6156C52.8658 43.1185 52.5965 42.7273 52.2988 42.5346C52.1893 42.4636 52.082 42.4241 51.9868 42.423C51.9123 42.4219 51.839 42.4478 51.7722 42.5053C51.6058 42.6507 51.4733 42.9618 51.4175 43.4882C51.2511 45.0539 50.9303 46.3434 50.4279 47.5552C49.9276 48.7625 49.2499 49.8818 48.3686 51.115L48.3643 51.1127ZM47.9702 50.1377C48.6642 49.1288 49.2083 48.191 49.6199 47.2001C50.0885 46.0707 50.3884 44.8634 50.545 43.3913C50.6282 42.6101 50.8767 42.1017 51.204 41.8165C51.4405 41.6114 51.7109 41.519 51.9933 41.5223C52.255 41.5257 52.5177 41.6148 52.7597 41.7715C53.2337 42.0792 53.6552 42.6698 53.8292 43.3992C54.451 45.9884 54.4664 49.1919 53.5851 52.1734C52.8418 54.6916 51.4591 57.0543 49.2663 58.7665C49.262 58.7699 49.2565 58.7744 49.2521 58.7778L49.2532 58.7789C46.9947 60.3965 44.3849 61.0187 41.8297 60.9691C38.8017 60.9105 35.847 59.905 33.6476 58.4971C33.028 58.1003 32.612 57.5051 32.4752 56.9449C32.4051 56.6597 32.4051 56.3768 32.4817 56.1198C32.5649 55.8425 32.7346 55.6047 32.9985 55.4367C33.363 55.2045 33.9082 55.1177 34.6537 55.2766C36.0637 55.5787 37.2734 55.6588 38.4601 55.5483C39.5001 55.4525 40.5314 55.2101 41.6732 54.8438C41.5101 54.6713 41.3557 54.4831 41.2134 54.2813C40.5007 53.2713 40.2051 52.0923 40.3026 51.0011C40.4022 49.8885 40.908 48.8673 41.7969 48.2022C42.6858 47.5372 43.785 47.3568 44.8425 47.6037C45.8737 47.8438 46.8656 48.4919 47.5771 49.4895C47.5881 49.503 47.5979 49.5177 47.6078 49.5323C47.7446 49.7273 47.8651 49.9291 47.9713 50.1354L47.9702 50.1377ZM44.155 55.3138C44.9738 55.5043 45.819 55.3691 46.4955 54.863C47.1721 54.3568 47.5574 53.5723 47.6341 52.7122C47.7129 51.8307 47.4688 50.8703 46.8842 50.0418C46.2996 49.2133 45.4884 48.6779 44.6509 48.4829C43.832 48.2924 42.9869 48.4277 42.3103 48.9338C41.6338 49.4399 41.2484 50.2245 41.1718 51.0845C41.093 51.966 41.3371 52.9264 41.9228 53.756C42.5074 54.5845 43.3186 55.12 44.1561 55.315L44.155 55.3138ZM19.589 55.5539C19.5835 55.5517 19.578 55.5506 19.5725 55.5483C19.1051 55.8673 18.596 56.0916 18.0782 56.2122C17.0207 56.4591 15.9216 56.2787 15.0326 55.6137C14.1437 54.9486 13.6379 53.9274 13.5383 52.8148C13.4901 52.2704 13.5394 51.7022 13.6894 51.1454L13.685 51.1386C12.8026 49.9054 12.1261 48.7861 11.6247 47.5789C11.1222 46.3671 10.8015 45.0776 10.6351 43.5119C10.5792 42.9855 10.4468 42.6744 10.2804 42.5289C10.2147 42.4715 10.1413 42.4455 10.0658 42.4467C9.97054 42.4478 9.86326 42.4872 9.75378 42.5582C9.45601 42.751 9.18561 43.1433 9.06738 43.6392C8.4795 46.0887 8.46527 49.1187 9.29837 51.9378C9.98915 54.2779 11.2645 56.4692 13.281 58.0552C13.2854 58.0586 13.2909 58.062 13.2953 58.0654C15.3906 59.5668 17.8209 60.144 20.2064 60.0977C23.0669 60.0425 25.8607 59.0923 27.9407 57.7588C28.3622 57.4882 28.6414 57.1039 28.7268 56.7533C28.7585 56.6237 28.7618 56.5053 28.7333 56.4106C28.7114 56.3374 28.6655 56.2742 28.5932 56.228C28.4082 56.1097 28.0787 56.077 27.574 56.1841C26.0786 56.5042 24.789 56.5887 23.5147 56.4704C22.2448 56.3531 21.0012 56.0364 19.59 55.5528L19.589 55.5539ZM20.3662 54.8686C21.5124 55.2372 22.5469 55.4795 23.5891 55.5765C24.7769 55.6858 25.9855 55.6058 27.3956 55.3048C28.1411 55.1448 28.6863 55.2327 29.0508 55.4649C29.3146 55.6328 29.4843 55.8707 29.5675 56.148C29.6442 56.405 29.6442 56.6879 29.5741 56.9731C29.4373 57.5333 29.0202 58.1285 28.4016 58.5253C26.2023 59.9343 23.2476 60.9387 20.2195 60.9973C17.6633 61.0469 15.0534 60.4246 12.7961 58.8071C12.7797 58.7958 12.7643 58.7823 12.7501 58.7688C10.5759 57.0588 9.20313 54.7063 8.46308 52.2005C7.58181 49.2178 7.59714 46.0143 8.21895 43.4262C8.39411 42.6969 8.81449 42.1062 9.28852 41.7985C9.53155 41.6418 9.79319 41.5528 10.0548 41.5494C10.3373 41.5449 10.6077 41.6373 10.8441 41.8436C11.1715 42.1288 11.42 42.6372 11.5032 43.4183C11.6597 44.8905 11.9597 46.0977 12.4282 47.2272C12.8377 48.2158 13.3807 49.1502 14.0725 50.1557C14.182 49.9426 14.3068 49.7352 14.4491 49.5335C15.1618 48.5224 16.1613 47.8674 17.1991 47.6262C18.2566 47.3794 19.3558 47.5597 20.2447 48.2248C21.1336 48.8898 21.6405 49.9111 21.739 51.0237C21.8365 52.1148 21.5398 53.2939 20.8282 54.3039C20.6848 54.5068 20.5304 54.695 20.3662 54.8686ZM14.4064 52.7325C14.482 53.5858 14.8629 54.3647 15.5286 54.8708C15.5395 54.8787 15.5504 54.8866 15.5614 54.8956C16.2358 55.3916 17.0732 55.5235 17.8855 55.3341C18.7241 55.1391 19.5342 54.6037 20.1188 53.7752C20.7034 52.9456 20.9475 51.9863 20.8698 51.1037C20.7932 50.2436 20.4078 49.4591 19.7313 48.953C19.0547 48.4468 18.2096 48.3116 17.3907 48.5021C16.5521 48.6971 15.742 49.2325 15.1574 50.061C14.5728 50.8906 14.3287 51.8499 14.4064 52.7325ZM6.59326 28.7498C6.59326 28.7431 6.59326 28.7374 6.59326 28.7307C6.15427 28.3711 5.79081 27.9427 5.51932 27.4727C4.96428 26.5123 4.79131 25.3806 5.13068 24.3052C5.47115 23.2276 6.25717 22.4171 7.25339 21.9764C7.74165 21.76 8.28135 21.6337 8.84186 21.61L8.84624 21.6044C9.71109 20.3622 10.5354 19.3534 11.4977 18.4876C12.4633 17.6197 13.5547 16.9073 14.9472 16.2614C15.418 16.0427 15.6654 15.8173 15.7475 15.611C15.7803 15.5298 15.7803 15.4498 15.7563 15.3754C15.7245 15.2807 15.6555 15.1883 15.5581 15.1037C15.2877 14.8715 14.8421 14.7295 14.3451 14.7656C11.9017 14.9459 9.09913 15.868 6.75309 17.5554C4.80445 18.9554 3.17328 20.8841 2.33252 23.3516L2.32924 23.364C1.59029 25.8799 1.80705 28.4387 2.5876 30.7585C3.5236 33.545 5.26424 35.9866 7.13735 37.6109C7.51722 37.94 7.95841 38.0933 8.31201 38.0697C8.44009 38.0606 8.54957 38.028 8.62839 37.9705C8.68969 37.9265 8.73348 37.8611 8.75428 37.7766C8.80574 37.5579 8.73458 37.2254 8.4795 36.7644C7.72194 35.3982 7.24573 34.1616 6.96 32.8755C6.67646 31.5994 6.5856 30.2829 6.59545 28.7498H6.59326ZM7.46687 29.2988C7.4811 30.5331 7.57634 31.622 7.80952 32.6748C8.07445 33.8708 8.5222 35.0296 9.23706 36.3168C9.61475 36.9977 9.70343 37.5579 9.60052 37.9874C9.52608 38.2985 9.35968 38.5386 9.12978 38.7054C8.9174 38.8598 8.65466 38.9466 8.36784 38.9669C7.80952 39.0053 7.13297 38.7809 6.57465 38.2974C4.59317 36.5784 2.75181 33.9948 1.76216 31.0505C0.925778 28.5616 0.694787 25.8134 1.49067 23.1025C1.49614 23.0844 1.50161 23.0675 1.50928 23.0506C2.41572 20.3915 4.16622 18.3186 6.2528 16.8182C8.73567 15.0339 11.7002 14.0577 14.2827 13.8672C15.0085 13.8131 15.684 14.043 16.1153 14.4128C16.3376 14.6033 16.5007 14.8321 16.5839 15.0857C16.6747 15.3596 16.6726 15.6527 16.5554 15.948C16.3923 16.3583 16.0004 16.7596 15.3074 17.0809C13.9937 17.6907 12.9701 18.3569 12.0735 19.1629C11.2897 19.8685 10.5924 20.6891 9.87639 21.6788C10.0964 21.7183 10.3176 21.7735 10.5376 21.8456C10.5573 21.8513 10.577 21.8569 10.5956 21.8648C11.7342 22.2537 12.6373 23.0236 13.177 23.958C13.7266 24.9094 13.9018 26.0276 13.5755 27.0951C13.5701 27.1165 13.5635 27.1368 13.5558 27.156C13.211 28.2178 12.4304 29.0181 11.4441 29.4543C10.4665 29.8861 9.28523 29.9605 8.13137 29.5738C7.90038 29.4961 7.67815 29.4036 7.46796 29.2965L7.46687 29.2988ZM7.59933 22.8038C6.82754 23.1453 6.22105 23.7653 5.96269 24.5836C5.70433 25.4031 5.84008 26.2722 6.26922 27.015C6.70821 27.7748 7.45373 28.4038 8.40068 28.7205C9.34544 29.0361 10.3077 28.9787 11.0981 28.6292C11.8699 28.2877 12.4764 27.6677 12.7348 26.8493C12.9931 26.0299 12.8574 25.1608 12.4282 24.4179C11.9892 23.6582 11.2437 23.0292 10.2968 22.7125C9.35201 22.3968 8.38973 22.4543 7.59933 22.8038ZM27.0978 8.7654C25.9614 9.16105 24.986 9.59052 24.0862 10.144C23.0637 10.773 22.132 11.5699 21.1632 12.6678C20.6509 13.2483 20.1593 13.5087 19.7302 13.5414C19.4215 13.5651 19.15 13.476 18.9244 13.3025C18.7164 13.1424 18.5544 12.9113 18.4471 12.6363C18.2391 12.0997 18.2358 11.367 18.5095 10.6727C19.485 8.20066 21.3022 5.59905 23.7172 3.71998C25.7556 2.13398 28.2232 1.05862 30.9754 1C30.9808 1 30.9863 1 30.9929 1H30.9984C33.7494 1.05974 36.2137 2.13398 38.251 3.71998C40.666 5.59905 42.4833 8.20066 43.4587 10.6727C43.7324 11.367 43.7302 12.1008 43.5211 12.6363C43.4138 12.9113 43.2529 13.1424 43.0438 13.3025C42.8183 13.476 42.5468 13.5651 42.2381 13.5414C41.81 13.5087 41.3174 13.2483 40.8051 12.6678C39.8362 11.5699 38.9046 10.7741 37.8821 10.144C36.9844 9.59165 36.0123 9.16331 34.8803 8.76878C34.9132 9.00775 34.9307 9.25236 34.9307 9.50147C34.9307 10.7493 34.4961 11.8833 33.7943 12.7073C33.0784 13.5482 32.0865 14.0678 30.9874 14.0678C29.8883 14.0678 28.8965 13.5482 28.1805 12.7073C27.4788 11.8833 27.0441 10.7493 27.0441 9.50147C27.0441 9.25123 27.0617 9.0055 27.0956 8.7654H27.0978ZM33.1397 6.88633C32.5868 6.23705 31.8271 5.83576 30.9896 5.83576C30.1532 5.83576 29.3924 6.23705 28.8395 6.88633C28.2724 7.55139 27.9221 8.47571 27.9221 9.50035C27.9221 10.525 28.2724 11.4493 28.8395 12.1144C29.3924 12.7636 30.1521 13.1649 30.9896 13.1649C31.826 13.1649 32.5868 12.7636 33.1397 12.1144C33.7068 11.4493 34.0571 10.525 34.0571 9.50035C34.0571 8.47571 33.7068 7.55139 33.1397 6.88633Z"/>
</mask>
<path d="M27.3375 7.74076C27.343 7.73963 27.3474 7.73738 27.3529 7.73625C27.5488 7.19519 27.8324 6.7071 28.1827 6.29567C28.8986 5.45476 29.8905 4.93512 30.9896 4.93512C32.0887 4.93512 33.0806 5.45476 33.7965 6.29567C34.1468 6.7071 34.4315 7.19631 34.6274 7.7385L34.6329 7.74076C36.0528 8.20517 37.2395 8.70115 38.332 9.37297C39.4312 10.0493 40.4274 10.8981 41.4543 12.0625C41.8002 12.4548 42.0848 12.6272 42.3016 12.6442C42.3881 12.6509 42.4625 12.6272 42.5227 12.581C42.6004 12.5213 42.665 12.4243 42.7121 12.3026C42.8424 11.9667 42.8369 11.4865 42.6497 11.0119C41.7279 8.67635 40.0103 6.21676 37.7267 4.43914C35.824 2.9591 33.5316 1.95475 30.9863 1.89952C28.441 1.95475 26.1486 2.9591 24.246 4.43914C21.9624 6.21676 20.2447 8.67522 19.3229 11.0119C19.1357 11.4865 19.1292 11.9667 19.2605 12.3026C19.3076 12.4243 19.3722 12.5213 19.4499 12.581C19.5101 12.6272 19.5846 12.6509 19.6711 12.6442C19.8878 12.6272 20.1724 12.4559 20.5184 12.0625C21.5453 10.8981 22.5404 10.0504 23.6406 9.37297C24.7331 8.70115 25.9198 8.20405 27.3397 7.74076H27.3375ZM53.1527 21.5616C53.156 21.5661 53.1592 21.5717 53.1625 21.5762C53.723 21.601 54.2605 21.7273 54.7488 21.9426C55.745 22.3833 56.531 23.1938 56.8715 24.2714C57.2109 25.3468 57.0379 26.4785 56.4829 27.4389C56.2103 27.9101 55.8468 28.3384 55.4067 28.698V28.707C55.4166 30.24 55.3257 31.5566 55.0422 32.8326C54.7565 34.1188 54.2803 35.3553 53.5227 36.7215C53.2665 37.1825 53.1954 37.5151 53.2479 37.7338C53.2676 37.8183 53.3125 37.8825 53.3738 37.9276C53.4526 37.9851 53.5621 38.0178 53.6902 38.0268C54.0427 38.0516 54.485 37.8972 54.8648 37.5681C56.7379 35.9437 58.4786 33.5011 59.4146 30.7157C60.1941 28.3948 60.4119 25.8371 59.673 23.3212H59.674C58.8344 20.848 57.201 18.916 55.2491 17.5137C52.9031 15.8274 50.0994 14.9054 47.6571 14.7239C47.16 14.6867 46.7145 14.8298 46.4441 15.062C46.3467 15.1454 46.2766 15.239 46.2459 15.3337C46.2219 15.4081 46.2219 15.4881 46.2547 15.5693C46.3368 15.7756 46.5842 16.001 47.055 16.2197C48.4475 16.8656 49.5389 17.578 50.5045 18.4459C51.4668 19.3116 52.2922 20.3194 53.156 21.5627L53.1527 21.5616ZM52.1291 21.6461C51.4109 20.6519 50.7125 19.829 49.9265 19.1223C49.0299 18.3163 48.0063 17.649 46.6926 17.0403C45.9985 16.719 45.6077 16.3178 45.4446 15.9074C45.3274 15.6121 45.3253 15.3179 45.4161 15.0451C45.4993 14.7915 45.6624 14.5627 45.8847 14.3722C46.3149 14.0025 46.9904 13.7725 47.7173 13.8266C50.3009 14.0182 53.2643 14.9933 55.7472 16.7777C57.8436 18.2847 59.5996 20.3678 60.5028 23.0439C60.505 23.0495 60.5071 23.0563 60.5082 23.0619H60.5093C61.3052 25.7729 61.0742 28.521 60.2378 31.0099C59.2482 33.9553 57.4068 36.5378 55.4254 38.2568C54.867 38.7415 54.1894 38.9647 53.6322 38.9264C53.3453 38.9061 53.0837 38.8193 52.8702 38.6648C52.6403 38.4969 52.4728 38.2579 52.3995 37.9468C52.2977 37.5173 52.3853 36.9571 52.7629 36.2763C53.4778 34.989 53.9245 33.8302 54.1905 32.6342C54.4237 31.5848 54.5189 30.4993 54.5331 29.2684C54.3229 29.3743 54.1029 29.4667 53.8719 29.5445C52.717 29.9312 51.5357 29.8568 50.5592 29.425C49.563 28.9843 48.777 28.1738 48.4365 27.0962C48.0971 26.0208 48.2701 24.8891 48.8251 23.9287C49.3692 22.9864 50.2833 22.2108 51.435 21.8253C51.666 21.7476 51.8981 21.6889 52.1291 21.6484V21.6461ZM55.733 26.9824C56.1621 26.2395 56.2979 25.3704 56.0395 24.551C55.7811 23.7326 55.1747 23.1126 54.4029 22.7711C53.6125 22.4216 52.6502 22.363 51.7054 22.6786C50.7585 22.9954 50.0129 23.6244 49.574 24.3841C49.1448 25.127 49.0091 25.996 49.2674 26.8155C49.5258 27.6339 50.1323 28.2539 50.9041 28.5954C51.6945 28.9448 52.6567 29.0035 53.6015 28.6867C54.5485 28.37 55.294 27.741 55.733 26.9812V26.9824ZM48.3643 51.1127C48.361 51.1183 48.3566 51.1228 48.3533 51.1274C48.5033 51.6831 48.5526 52.2489 48.5044 52.7934C48.4048 53.9059 47.899 54.9272 47.0101 55.5923C46.1211 56.2573 45.022 56.4365 43.9645 56.1908C43.4456 56.0702 42.9365 55.8459 42.468 55.5258L42.4614 55.528C41.0492 56.0116 39.8056 56.3283 38.5368 56.4456C37.2614 56.5639 35.9718 56.4794 34.4775 56.1593C33.9728 56.051 33.6433 56.0849 33.4582 56.2032C33.386 56.2494 33.34 56.3126 33.3181 56.3858C33.2897 56.4805 33.2929 56.5977 33.3247 56.7285C33.4112 57.0802 33.6892 57.4646 34.1107 57.734C36.1907 59.0663 38.9845 60.0166 41.8451 60.073C44.2305 60.1192 46.6608 59.542 48.7562 58.0406L48.7573 58.0417C50.7815 56.4557 52.0612 54.2588 52.7542 51.9142C53.5873 49.0939 53.5731 46.0639 52.9852 43.6156C52.8658 43.1185 52.5965 42.7273 52.2988 42.5346C52.1893 42.4636 52.082 42.4241 51.9868 42.423C51.9123 42.4219 51.839 42.4478 51.7722 42.5053C51.6058 42.6507 51.4733 42.9618 51.4175 43.4882C51.2511 45.0539 50.9303 46.3434 50.4279 47.5552C49.9276 48.7625 49.2499 49.8818 48.3686 51.115L48.3643 51.1127ZM47.9702 50.1377C48.6642 49.1288 49.2083 48.191 49.6199 47.2001C50.0885 46.0707 50.3884 44.8634 50.545 43.3913C50.6282 42.6101 50.8767 42.1017 51.204 41.8165C51.4405 41.6114 51.7109 41.519 51.9933 41.5223C52.255 41.5257 52.5177 41.6148 52.7597 41.7715C53.2337 42.0792 53.6552 42.6698 53.8292 43.3992C54.451 45.9884 54.4664 49.1919 53.5851 52.1734C52.8418 54.6916 51.4591 57.0543 49.2663 58.7665C49.262 58.7699 49.2565 58.7744 49.2521 58.7778L49.2532 58.7789C46.9947 60.3965 44.3849 61.0187 41.8297 60.9691C38.8017 60.9105 35.847 59.905 33.6476 58.4971C33.028 58.1003 32.612 57.5051 32.4752 56.9449C32.4051 56.6597 32.4051 56.3768 32.4817 56.1198C32.5649 55.8425 32.7346 55.6047 32.9985 55.4367C33.363 55.2045 33.9082 55.1177 34.6537 55.2766C36.0637 55.5787 37.2734 55.6588 38.4601 55.5483C39.5001 55.4525 40.5314 55.2101 41.6732 54.8438C41.5101 54.6713 41.3557 54.4831 41.2134 54.2813C40.5007 53.2713 40.2051 52.0923 40.3026 51.0011C40.4022 49.8885 40.908 48.8673 41.7969 48.2022C42.6858 47.5372 43.785 47.3568 44.8425 47.6037C45.8737 47.8438 46.8656 48.4919 47.5771 49.4895C47.5881 49.503 47.5979 49.5177 47.6078 49.5323C47.7446 49.7273 47.8651 49.9291 47.9713 50.1354L47.9702 50.1377ZM44.155 55.3138C44.9738 55.5043 45.819 55.3691 46.4955 54.863C47.1721 54.3568 47.5574 53.5723 47.6341 52.7122C47.7129 51.8307 47.4688 50.8703 46.8842 50.0418C46.2996 49.2133 45.4884 48.6779 44.6509 48.4829C43.832 48.2924 42.9869 48.4277 42.3103 48.9338C41.6338 49.4399 41.2484 50.2245 41.1718 51.0845C41.093 51.966 41.3371 52.9264 41.9228 53.756C42.5074 54.5845 43.3186 55.12 44.1561 55.315L44.155 55.3138ZM19.589 55.5539C19.5835 55.5517 19.578 55.5506 19.5725 55.5483C19.1051 55.8673 18.596 56.0916 18.0782 56.2122C17.0207 56.4591 15.9216 56.2787 15.0326 55.6137C14.1437 54.9486 13.6379 53.9274 13.5383 52.8148C13.4901 52.2704 13.5394 51.7022 13.6894 51.1454L13.685 51.1386C12.8026 49.9054 12.1261 48.7861 11.6247 47.5789C11.1222 46.3671 10.8015 45.0776 10.6351 43.5119C10.5792 42.9855 10.4468 42.6744 10.2804 42.5289C10.2147 42.4715 10.1413 42.4455 10.0658 42.4467C9.97054 42.4478 9.86326 42.4872 9.75378 42.5582C9.45601 42.751 9.18561 43.1433 9.06738 43.6392C8.4795 46.0887 8.46527 49.1187 9.29837 51.9378C9.98915 54.2779 11.2645 56.4692 13.281 58.0552C13.2854 58.0586 13.2909 58.062 13.2953 58.0654C15.3906 59.5668 17.8209 60.144 20.2064 60.0977C23.0669 60.0425 25.8607 59.0923 27.9407 57.7588C28.3622 57.4882 28.6414 57.1039 28.7268 56.7533C28.7585 56.6237 28.7618 56.5053 28.7333 56.4106C28.7114 56.3374 28.6655 56.2742 28.5932 56.228C28.4082 56.1097 28.0787 56.077 27.574 56.1841C26.0786 56.5042 24.789 56.5887 23.5147 56.4704C22.2448 56.3531 21.0012 56.0364 19.59 55.5528L19.589 55.5539ZM20.3662 54.8686C21.5124 55.2372 22.5469 55.4795 23.5891 55.5765C24.7769 55.6858 25.9855 55.6058 27.3956 55.3048C28.1411 55.1448 28.6863 55.2327 29.0508 55.4649C29.3146 55.6328 29.4843 55.8707 29.5675 56.148C29.6442 56.405 29.6442 56.6879 29.5741 56.9731C29.4373 57.5333 29.0202 58.1285 28.4016 58.5253C26.2023 59.9343 23.2476 60.9387 20.2195 60.9973C17.6633 61.0469 15.0534 60.4246 12.7961 58.8071C12.7797 58.7958 12.7643 58.7823 12.7501 58.7688C10.5759 57.0588 9.20313 54.7063 8.46308 52.2005C7.58181 49.2178 7.59714 46.0143 8.21895 43.4262C8.39411 42.6969 8.81449 42.1062 9.28852 41.7985C9.53155 41.6418 9.79319 41.5528 10.0548 41.5494C10.3373 41.5449 10.6077 41.6373 10.8441 41.8436C11.1715 42.1288 11.42 42.6372 11.5032 43.4183C11.6597 44.8905 11.9597 46.0977 12.4282 47.2272C12.8377 48.2158 13.3807 49.1502 14.0725 50.1557C14.182 49.9426 14.3068 49.7352 14.4491 49.5335C15.1618 48.5224 16.1613 47.8674 17.1991 47.6262C18.2566 47.3794 19.3558 47.5597 20.2447 48.2248C21.1336 48.8898 21.6405 49.9111 21.739 51.0237C21.8365 52.1148 21.5398 53.2939 20.8282 54.3039C20.6848 54.5068 20.5304 54.695 20.3662 54.8686ZM14.4064 52.7325C14.482 53.5858 14.8629 54.3647 15.5286 54.8708C15.5395 54.8787 15.5504 54.8866 15.5614 54.8956C16.2358 55.3916 17.0732 55.5235 17.8855 55.3341C18.7241 55.1391 19.5342 54.6037 20.1188 53.7752C20.7034 52.9456 20.9475 51.9863 20.8698 51.1037C20.7932 50.2436 20.4078 49.4591 19.7313 48.953C19.0547 48.4468 18.2096 48.3116 17.3907 48.5021C16.5521 48.6971 15.742 49.2325 15.1574 50.061C14.5728 50.8906 14.3287 51.8499 14.4064 52.7325ZM6.59326 28.7498C6.59326 28.7431 6.59326 28.7374 6.59326 28.7307C6.15427 28.3711 5.79081 27.9427 5.51932 27.4727C4.96428 26.5123 4.79131 25.3806 5.13068 24.3052C5.47115 23.2276 6.25717 22.4171 7.25339 21.9764C7.74165 21.76 8.28135 21.6337 8.84186 21.61L8.84624 21.6044C9.71109 20.3622 10.5354 19.3534 11.4977 18.4876C12.4633 17.6197 13.5547 16.9073 14.9472 16.2614C15.418 16.0427 15.6654 15.8173 15.7475 15.611C15.7803 15.5298 15.7803 15.4498 15.7563 15.3754C15.7245 15.2807 15.6555 15.1883 15.5581 15.1037C15.2877 14.8715 14.8421 14.7295 14.3451 14.7656C11.9017 14.9459 9.09913 15.868 6.75309 17.5554C4.80445 18.9554 3.17328 20.8841 2.33252 23.3516L2.32924 23.364C1.59029 25.8799 1.80705 28.4387 2.5876 30.7585C3.5236 33.545 5.26424 35.9866 7.13735 37.6109C7.51722 37.94 7.95841 38.0933 8.31201 38.0697C8.44009 38.0606 8.54957 38.028 8.62839 37.9705C8.68969 37.9265 8.73348 37.8611 8.75428 37.7766C8.80574 37.5579 8.73458 37.2254 8.4795 36.7644C7.72194 35.3982 7.24573 34.1616 6.96 32.8755C6.67646 31.5994 6.5856 30.2829 6.59545 28.7498H6.59326ZM7.46687 29.2988C7.4811 30.5331 7.57634 31.622 7.80952 32.6748C8.07445 33.8708 8.5222 35.0296 9.23706 36.3168C9.61475 36.9977 9.70343 37.5579 9.60052 37.9874C9.52608 38.2985 9.35968 38.5386 9.12978 38.7054C8.9174 38.8598 8.65466 38.9466 8.36784 38.9669C7.80952 39.0053 7.13297 38.7809 6.57465 38.2974C4.59317 36.5784 2.75181 33.9948 1.76216 31.0505C0.925778 28.5616 0.694787 25.8134 1.49067 23.1025C1.49614 23.0844 1.50161 23.0675 1.50928 23.0506C2.41572 20.3915 4.16622 18.3186 6.2528 16.8182C8.73567 15.0339 11.7002 14.0577 14.2827 13.8672C15.0085 13.8131 15.684 14.043 16.1153 14.4128C16.3376 14.6033 16.5007 14.8321 16.5839 15.0857C16.6747 15.3596 16.6726 15.6527 16.5554 15.948C16.3923 16.3583 16.0004 16.7596 15.3074 17.0809C13.9937 17.6907 12.9701 18.3569 12.0735 19.1629C11.2897 19.8685 10.5924 20.6891 9.87639 21.6788C10.0964 21.7183 10.3176 21.7735 10.5376 21.8456C10.5573 21.8513 10.577 21.8569 10.5956 21.8648C11.7342 22.2537 12.6373 23.0236 13.177 23.958C13.7266 24.9094 13.9018 26.0276 13.5755 27.0951C13.5701 27.1165 13.5635 27.1368 13.5558 27.156C13.211 28.2178 12.4304 29.0181 11.4441 29.4543C10.4665 29.8861 9.28523 29.9605 8.13137 29.5738C7.90038 29.4961 7.67815 29.4036 7.46796 29.2965L7.46687 29.2988ZM7.59933 22.8038C6.82754 23.1453 6.22105 23.7653 5.96269 24.5836C5.70433 25.4031 5.84008 26.2722 6.26922 27.015C6.70821 27.7748 7.45373 28.4038 8.40068 28.7205C9.34544 29.0361 10.3077 28.9787 11.0981 28.6292C11.8699 28.2877 12.4764 27.6677 12.7348 26.8493C12.9931 26.0299 12.8574 25.1608 12.4282 24.4179C11.9892 23.6582 11.2437 23.0292 10.2968 22.7125C9.35201 22.3968 8.38973 22.4543 7.59933 22.8038ZM27.0978 8.7654C25.9614 9.16105 24.986 9.59052 24.0862 10.144C23.0637 10.773 22.132 11.5699 21.1632 12.6678C20.6509 13.2483 20.1593 13.5087 19.7302 13.5414C19.4215 13.5651 19.15 13.476 18.9244 13.3025C18.7164 13.1424 18.5544 12.9113 18.4471 12.6363C18.2391 12.0997 18.2358 11.367 18.5095 10.6727C19.485 8.20066 21.3022 5.59905 23.7172 3.71998C25.7556 2.13398 28.2232 1.05862 30.9754 1C30.9808 1 30.9863 1 30.9929 1H30.9984C33.7494 1.05974 36.2137 2.13398 38.251 3.71998C40.666 5.59905 42.4833 8.20066 43.4587 10.6727C43.7324 11.367 43.7302 12.1008 43.5211 12.6363C43.4138 12.9113 43.2529 13.1424 43.0438 13.3025C42.8183 13.476 42.5468 13.5651 42.2381 13.5414C41.81 13.5087 41.3174 13.2483 40.8051 12.6678C39.8362 11.5699 38.9046 10.7741 37.8821 10.144C36.9844 9.59165 36.0123 9.16331 34.8803 8.76878C34.9132 9.00775 34.9307 9.25236 34.9307 9.50147C34.9307 10.7493 34.4961 11.8833 33.7943 12.7073C33.0784 13.5482 32.0865 14.0678 30.9874 14.0678C29.8883 14.0678 28.8965 13.5482 28.1805 12.7073C27.4788 11.8833 27.0441 10.7493 27.0441 9.50147C27.0441 9.25123 27.0617 9.0055 27.0956 8.7654H27.0978ZM33.1397 6.88633C32.5868 6.23705 31.8271 5.83576 30.9896 5.83576C30.1532 5.83576 29.3924 6.23705 28.8395 6.88633C28.2724 7.55139 27.9221 8.47571 27.9221 9.50035C27.9221 10.525 28.2724 11.4493 28.8395 12.1144C29.3924 12.7636 30.1521 13.1649 30.9896 13.1649C31.826 13.1649 32.5868 12.7636 33.1397 12.1144C33.7068 11.4493 34.0571 10.525 34.0571 9.50035C34.0571 8.47571 33.7068 7.55139 33.1397 6.88633Z" fill="#252525"/>
<path d="M27.3375 7.74076C27.343 7.73963 27.3474 7.73738 27.3529 7.73625C27.5488 7.19519 27.8324 6.7071 28.1827 6.29567C28.8986 5.45476 29.8905 4.93512 30.9896 4.93512C32.0887 4.93512 33.0806 5.45476 33.7965 6.29567C34.1468 6.7071 34.4315 7.19631 34.6274 7.7385L34.6329 7.74076C36.0528 8.20517 37.2395 8.70115 38.332 9.37297C39.4312 10.0493 40.4274 10.8981 41.4543 12.0625C41.8002 12.4548 42.0848 12.6272 42.3016 12.6442C42.3881 12.6509 42.4625 12.6272 42.5227 12.581C42.6004 12.5213 42.665 12.4243 42.7121 12.3026C42.8424 11.9667 42.8369 11.4865 42.6497 11.0119C41.7279 8.67635 40.0103 6.21676 37.7267 4.43914C35.824 2.9591 33.5316 1.95475 30.9863 1.89952C28.441 1.95475 26.1486 2.9591 24.246 4.43914C21.9624 6.21676 20.2447 8.67522 19.3229 11.0119C19.1357 11.4865 19.1292 11.9667 19.2605 12.3026C19.3076 12.4243 19.3722 12.5213 19.4499 12.581C19.5101 12.6272 19.5846 12.6509 19.6711 12.6442C19.8878 12.6272 20.1724 12.4559 20.5184 12.0625C21.5453 10.8981 22.5404 10.0504 23.6406 9.37297C24.7331 8.70115 25.9198 8.20405 27.3397 7.74076H27.3375ZM53.1527 21.5616C53.156 21.5661 53.1592 21.5717 53.1625 21.5762C53.723 21.601 54.2605 21.7273 54.7488 21.9426C55.745 22.3833 56.531 23.1938 56.8715 24.2714C57.2109 25.3468 57.0379 26.4785 56.4829 27.4389C56.2103 27.9101 55.8468 28.3384 55.4067 28.698V28.707C55.4166 30.24 55.3257 31.5566 55.0422 32.8326C54.7565 34.1188 54.2803 35.3553 53.5227 36.7215C53.2665 37.1825 53.1954 37.5151 53.2479 37.7338C53.2676 37.8183 53.3125 37.8825 53.3738 37.9276C53.4526 37.9851 53.5621 38.0178 53.6902 38.0268C54.0427 38.0516 54.485 37.8972 54.8648 37.5681C56.7379 35.9437 58.4786 33.5011 59.4146 30.7157C60.1941 28.3948 60.4119 25.8371 59.673 23.3212H59.674C58.8344 20.848 57.201 18.916 55.2491 17.5137C52.9031 15.8274 50.0994 14.9054 47.6571 14.7239C47.16 14.6867 46.7145 14.8298 46.4441 15.062C46.3467 15.1454 46.2766 15.239 46.2459 15.3337C46.2219 15.4081 46.2219 15.4881 46.2547 15.5693C46.3368 15.7756 46.5842 16.001 47.055 16.2197C48.4475 16.8656 49.5389 17.578 50.5045 18.4459C51.4668 19.3116 52.2922 20.3194 53.156 21.5627L53.1527 21.5616ZM52.1291 21.6461C51.4109 20.6519 50.7125 19.829 49.9265 19.1223C49.0299 18.3163 48.0063 17.649 46.6926 17.0403C45.9985 16.719 45.6077 16.3178 45.4446 15.9074C45.3274 15.6121 45.3253 15.3179 45.4161 15.0451C45.4993 14.7915 45.6624 14.5627 45.8847 14.3722C46.3149 14.0025 46.9904 13.7725 47.7173 13.8266C50.3009 14.0182 53.2643 14.9933 55.7472 16.7777C57.8436 18.2847 59.5996 20.3678 60.5028 23.0439C60.505 23.0495 60.5071 23.0563 60.5082 23.0619H60.5093C61.3052 25.7729 61.0742 28.521 60.2378 31.0099C59.2482 33.9553 57.4068 36.5378 55.4254 38.2568C54.867 38.7415 54.1894 38.9647 53.6322 38.9264C53.3453 38.9061 53.0837 38.8193 52.8702 38.6648C52.6403 38.4969 52.4728 38.2579 52.3995 37.9468C52.2977 37.5173 52.3853 36.9571 52.7629 36.2763C53.4778 34.989 53.9245 33.8302 54.1905 32.6342C54.4237 31.5848 54.5189 30.4993 54.5331 29.2684C54.3229 29.3743 54.1029 29.4667 53.8719 29.5445C52.717 29.9312 51.5357 29.8568 50.5592 29.425C49.563 28.9843 48.777 28.1738 48.4365 27.0962C48.0971 26.0208 48.2701 24.8891 48.8251 23.9287C49.3692 22.9864 50.2833 22.2108 51.435 21.8253C51.666 21.7476 51.8981 21.6889 52.1291 21.6484V21.6461ZM55.733 26.9824C56.1621 26.2395 56.2979 25.3704 56.0395 24.551C55.7811 23.7326 55.1747 23.1126 54.4029 22.7711C53.6125 22.4216 52.6502 22.363 51.7054 22.6786C50.7585 22.9954 50.0129 23.6244 49.574 24.3841C49.1448 25.127 49.0091 25.996 49.2674 26.8155C49.5258 27.6339 50.1323 28.2539 50.9041 28.5954C51.6945 28.9448 52.6567 29.0035 53.6015 28.6867C54.5485 28.37 55.294 27.741 55.733 26.9812V26.9824ZM48.3643 51.1127C48.361 51.1183 48.3566 51.1228 48.3533 51.1274C48.5033 51.6831 48.5526 52.2489 48.5044 52.7934C48.4048 53.9059 47.899 54.9272 47.0101 55.5923C46.1211 56.2573 45.022 56.4365 43.9645 56.1908C43.4456 56.0702 42.9365 55.8459 42.468 55.5258L42.4614 55.528C41.0492 56.0116 39.8056 56.3283 38.5368 56.4456C37.2614 56.5639 35.9718 56.4794 34.4775 56.1593C33.9728 56.051 33.6433 56.0849 33.4582 56.2032C33.386 56.2494 33.34 56.3126 33.3181 56.3858C33.2897 56.4805 33.2929 56.5977 33.3247 56.7285C33.4112 57.0802 33.6892 57.4646 34.1107 57.734C36.1907 59.0663 38.9845 60.0166 41.8451 60.073C44.2305 60.1192 46.6608 59.542 48.7562 58.0406L48.7573 58.0417C50.7815 56.4557 52.0612 54.2588 52.7542 51.9142C53.5873 49.0939 53.5731 46.0639 52.9852 43.6156C52.8658 43.1185 52.5965 42.7273 52.2988 42.5346C52.1893 42.4636 52.082 42.4241 51.9868 42.423C51.9123 42.4219 51.839 42.4478 51.7722 42.5053C51.6058 42.6507 51.4733 42.9618 51.4175 43.4882C51.2511 45.0539 50.9303 46.3434 50.4279 47.5552C49.9276 48.7625 49.2499 49.8818 48.3686 51.115L48.3643 51.1127ZM47.9702 50.1377C48.6642 49.1288 49.2083 48.191 49.6199 47.2001C50.0885 46.0707 50.3884 44.8634 50.545 43.3913C50.6282 42.6101 50.8767 42.1017 51.204 41.8165C51.4405 41.6114 51.7109 41.519 51.9933 41.5223C52.255 41.5257 52.5177 41.6148 52.7597 41.7715C53.2337 42.0792 53.6552 42.6698 53.8292 43.3992C54.451 45.9884 54.4664 49.1919 53.5851 52.1734C52.8418 54.6916 51.4591 57.0543 49.2663 58.7665C49.262 58.7699 49.2565 58.7744 49.2521 58.7778L49.2532 58.7789C46.9947 60.3965 44.3849 61.0187 41.8297 60.9691C38.8017 60.9105 35.847 59.905 33.6476 58.4971C33.028 58.1003 32.612 57.5051 32.4752 56.9449C32.4051 56.6597 32.4051 56.3768 32.4817 56.1198C32.5649 55.8425 32.7346 55.6047 32.9985 55.4367C33.363 55.2045 33.9082 55.1177 34.6537 55.2766C36.0637 55.5787 37.2734 55.6588 38.4601 55.5483C39.5001 55.4525 40.5314 55.2101 41.6732 54.8438C41.5101 54.6713 41.3557 54.4831 41.2134 54.2813C40.5007 53.2713 40.2051 52.0923 40.3026 51.0011C40.4022 49.8885 40.908 48.8673 41.7969 48.2022C42.6858 47.5372 43.785 47.3568 44.8425 47.6037C45.8737 47.8438 46.8656 48.4919 47.5771 49.4895C47.5881 49.503 47.5979 49.5177 47.6078 49.5323C47.7446 49.7273 47.8651 49.9291 47.9713 50.1354L47.9702 50.1377ZM44.155 55.3138C44.9738 55.5043 45.819 55.3691 46.4955 54.863C47.1721 54.3568 47.5574 53.5723 47.6341 52.7122C47.7129 51.8307 47.4688 50.8703 46.8842 50.0418C46.2996 49.2133 45.4884 48.6779 44.6509 48.4829C43.832 48.2924 42.9869 48.4277 42.3103 48.9338C41.6338 49.4399 41.2484 50.2245 41.1718 51.0845C41.093 51.966 41.3371 52.9264 41.9228 53.756C42.5074 54.5845 43.3186 55.12 44.1561 55.315L44.155 55.3138ZM19.589 55.5539C19.5835 55.5517 19.578 55.5506 19.5725 55.5483C19.1051 55.8673 18.596 56.0916 18.0782 56.2122C17.0207 56.4591 15.9216 56.2787 15.0326 55.6137C14.1437 54.9486 13.6379 53.9274 13.5383 52.8148C13.4901 52.2704 13.5394 51.7022 13.6894 51.1454L13.685 51.1386C12.8026 49.9054 12.1261 48.7861 11.6247 47.5789C11.1222 46.3671 10.8015 45.0776 10.6351 43.5119C10.5792 42.9855 10.4468 42.6744 10.2804 42.5289C10.2147 42.4715 10.1413 42.4455 10.0658 42.4467C9.97054 42.4478 9.86326 42.4872 9.75378 42.5582C9.45601 42.751 9.18561 43.1433 9.06738 43.6392C8.4795 46.0887 8.46527 49.1187 9.29837 51.9378C9.98915 54.2779 11.2645 56.4692 13.281 58.0552C13.2854 58.0586 13.2909 58.062 13.2953 58.0654C15.3906 59.5668 17.8209 60.144 20.2064 60.0977C23.0669 60.0425 25.8607 59.0923 27.9407 57.7588C28.3622 57.4882 28.6414 57.1039 28.7268 56.7533C28.7585 56.6237 28.7618 56.5053 28.7333 56.4106C28.7114 56.3374 28.6655 56.2742 28.5932 56.228C28.4082 56.1097 28.0787 56.077 27.574 56.1841C26.0786 56.5042 24.789 56.5887 23.5147 56.4704C22.2448 56.3531 21.0012 56.0364 19.59 55.5528L19.589 55.5539ZM20.3662 54.8686C21.5124 55.2372 22.5469 55.4795 23.5891 55.5765C24.7769 55.6858 25.9855 55.6058 27.3956 55.3048C28.1411 55.1448 28.6863 55.2327 29.0508 55.4649C29.3146 55.6328 29.4843 55.8707 29.5675 56.148C29.6442 56.405 29.6442 56.6879 29.5741 56.9731C29.4373 57.5333 29.0202 58.1285 28.4016 58.5253C26.2023 59.9343 23.2476 60.9387 20.2195 60.9973C17.6633 61.0469 15.0534 60.4246 12.7961 58.8071C12.7797 58.7958 12.7643 58.7823 12.7501 58.7688C10.5759 57.0588 9.20313 54.7063 8.46308 52.2005C7.58181 49.2178 7.59714 46.0143 8.21895 43.4262C8.39411 42.6969 8.81449 42.1062 9.28852 41.7985C9.53155 41.6418 9.79319 41.5528 10.0548 41.5494C10.3373 41.5449 10.6077 41.6373 10.8441 41.8436C11.1715 42.1288 11.42 42.6372 11.5032 43.4183C11.6597 44.8905 11.9597 46.0977 12.4282 47.2272C12.8377 48.2158 13.3807 49.1502 14.0725 50.1557C14.182 49.9426 14.3068 49.7352 14.4491 49.5335C15.1618 48.5224 16.1613 47.8674 17.1991 47.6262C18.2566 47.3794 19.3558 47.5597 20.2447 48.2248C21.1336 48.8898 21.6405 49.9111 21.739 51.0237C21.8365 52.1148 21.5398 53.2939 20.8282 54.3039C20.6848 54.5068 20.5304 54.695 20.3662 54.8686ZM14.4064 52.7325C14.482 53.5858 14.8629 54.3647 15.5286 54.8708C15.5395 54.8787 15.5504 54.8866 15.5614 54.8956C16.2358 55.3916 17.0732 55.5235 17.8855 55.3341C18.7241 55.1391 19.5342 54.6037 20.1188 53.7752C20.7034 52.9456 20.9475 51.9863 20.8698 51.1037C20.7932 50.2436 20.4078 49.4591 19.7313 48.953C19.0547 48.4468 18.2096 48.3116 17.3907 48.5021C16.5521 48.6971 15.742 49.2325 15.1574 50.061C14.5728 50.8906 14.3287 51.8499 14.4064 52.7325ZM6.59326 28.7498C6.59326 28.7431 6.59326 28.7374 6.59326 28.7307C6.15427 28.3711 5.79081 27.9427 5.51932 27.4727C4.96428 26.5123 4.79131 25.3806 5.13068 24.3052C5.47115 23.2276 6.25717 22.4171 7.25339 21.9764C7.74165 21.76 8.28135 21.6337 8.84186 21.61L8.84624 21.6044C9.71109 20.3622 10.5354 19.3534 11.4977 18.4876C12.4633 17.6197 13.5547 16.9073 14.9472 16.2614C15.418 16.0427 15.6654 15.8173 15.7475 15.611C15.7803 15.5298 15.7803 15.4498 15.7563 15.3754C15.7245 15.2807 15.6555 15.1883 15.5581 15.1037C15.2877 14.8715 14.8421 14.7295 14.3451 14.7656C11.9017 14.9459 9.09913 15.868 6.75309 17.5554C4.80445 18.9554 3.17328 20.8841 2.33252 23.3516L2.32924 23.364C1.59029 25.8799 1.80705 28.4387 2.5876 30.7585C3.5236 33.545 5.26424 35.9866 7.13735 37.6109C7.51722 37.94 7.95841 38.0933 8.31201 38.0697C8.44009 38.0606 8.54957 38.028 8.62839 37.9705C8.68969 37.9265 8.73348 37.8611 8.75428 37.7766C8.80574 37.5579 8.73458 37.2254 8.4795 36.7644C7.72194 35.3982 7.24573 34.1616 6.96 32.8755C6.67646 31.5994 6.5856 30.2829 6.59545 28.7498H6.59326ZM7.46687 29.2988C7.4811 30.5331 7.57634 31.622 7.80952 32.6748C8.07445 33.8708 8.5222 35.0296 9.23706 36.3168C9.61475 36.9977 9.70343 37.5579 9.60052 37.9874C9.52608 38.2985 9.35968 38.5386 9.12978 38.7054C8.9174 38.8598 8.65466 38.9466 8.36784 38.9669C7.80952 39.0053 7.13297 38.7809 6.57465 38.2974C4.59317 36.5784 2.75181 33.9948 1.76216 31.0505C0.925778 28.5616 0.694787 25.8134 1.49067 23.1025C1.49614 23.0844 1.50161 23.0675 1.50928 23.0506C2.41572 20.3915 4.16622 18.3186 6.2528 16.8182C8.73567 15.0339 11.7002 14.0577 14.2827 13.8672C15.0085 13.8131 15.684 14.043 16.1153 14.4128C16.3376 14.6033 16.5007 14.8321 16.5839 15.0857C16.6747 15.3596 16.6726 15.6527 16.5554 15.948C16.3923 16.3583 16.0004 16.7596 15.3074 17.0809C13.9937 17.6907 12.9701 18.3569 12.0735 19.1629C11.2897 19.8685 10.5924 20.6891 9.87639 21.6788C10.0964 21.7183 10.3176 21.7735 10.5376 21.8456C10.5573 21.8513 10.577 21.8569 10.5956 21.8648C11.7342 22.2537 12.6373 23.0236 13.177 23.958C13.7266 24.9094 13.9018 26.0276 13.5755 27.0951C13.5701 27.1165 13.5635 27.1368 13.5558 27.156C13.211 28.2178 12.4304 29.0181 11.4441 29.4543C10.4665 29.8861 9.28523 29.9605 8.13137 29.5738C7.90038 29.4961 7.67815 29.4036 7.46796 29.2965L7.46687 29.2988ZM7.59933 22.8038C6.82754 23.1453 6.22105 23.7653 5.96269 24.5836C5.70433 25.4031 5.84008 26.2722 6.26922 27.015C6.70821 27.7748 7.45373 28.4038 8.40068 28.7205C9.34544 29.0361 10.3077 28.9787 11.0981 28.6292C11.8699 28.2877 12.4764 27.6677 12.7348 26.8493C12.9931 26.0299 12.8574 25.1608 12.4282 24.4179C11.9892 23.6582 11.2437 23.0292 10.2968 22.7125C9.35201 22.3968 8.38973 22.4543 7.59933 22.8038ZM27.0978 8.7654C25.9614 9.16105 24.986 9.59052 24.0862 10.144C23.0637 10.773 22.132 11.5699 21.1632 12.6678C20.6509 13.2483 20.1593 13.5087 19.7302 13.5414C19.4215 13.5651 19.15 13.476 18.9244 13.3025C18.7164 13.1424 18.5544 12.9113 18.4471 12.6363C18.2391 12.0997 18.2358 11.367 18.5095 10.6727C19.485 8.20066 21.3022 5.59905 23.7172 3.71998C25.7556 2.13398 28.2232 1.05862 30.9754 1C30.9808 1 30.9863 1 30.9929 1H30.9984C33.7494 1.05974 36.2137 2.13398 38.251 3.71998C40.666 5.59905 42.4833 8.20066 43.4587 10.6727C43.7324 11.367 43.7302 12.1008 43.5211 12.6363C43.4138 12.9113 43.2529 13.1424 43.0438 13.3025C42.8183 13.476 42.5468 13.5651 42.2381 13.5414C41.81 13.5087 41.3174 13.2483 40.8051 12.6678C39.8362 11.5699 38.9046 10.7741 37.8821 10.144C36.9844 9.59165 36.0123 9.16331 34.8803 8.76878C34.9132 9.00775 34.9307 9.25236 34.9307 9.50147C34.9307 10.7493 34.4961 11.8833 33.7943 12.7073C33.0784 13.5482 32.0865 14.0678 30.9874 14.0678C29.8883 14.0678 28.8965 13.5482 28.1805 12.7073C27.4788 11.8833 27.0441 10.7493 27.0441 9.50147C27.0441 9.25123 27.0617 9.0055 27.0956 8.7654H27.0978ZM33.1397 6.88633C32.5868 6.23705 31.8271 5.83576 30.9896 5.83576C30.1532 5.83576 29.3924 6.23705 28.8395 6.88633C28.2724 7.55139 27.9221 8.47571 27.9221 9.50035C27.9221 10.525 28.2724 11.4493 28.8395 12.1144C29.3924 12.7636 30.1521 13.1649 30.9896 13.1649C31.826 13.1649 32.5868 12.7636 33.1397 12.1144C33.7068 11.4493 34.0571 10.525 34.0571 9.50035C34.0571 8.47571 33.7068 7.55139 33.1397 6.88633Z" stroke="#252525" stroke-width="0.4" mask="url(#path-1-outside-1_58_252)"/>
</svg>
