<svg width="65" height="61" viewBox="0 0 65 61" fill="none" xmlns="http://www.w3.org/2000/svg">
<path d="M32.0629 44.9699C16.8033 44.9699 3.64873 40.4199 0.0737976 33.9047C-0.0852921 33.6149 0.0213291 33.251 0.311974 33.0923C0.602771 32.9336 0.967148 33.04 1.12624 33.3299C2.70765 36.212 6.59372 38.8442 12.0687 40.7418C17.7089 42.6965 24.8097 43.773 32.0629 43.773C38.3835 43.773 44.4939 42.9783 49.7337 41.4751C50.0517 41.3835 50.3844 41.5671 50.476 41.8848C50.5678 42.2026 50.3836 42.5341 50.0653 42.6255C44.7193 44.1593 38.4941 44.9699 32.0629 44.9699ZM56.8803 39.9447C56.6635 39.9447 56.4543 39.827 56.3475 39.6219C56.1948 39.3284 56.3096 38.9673 56.6036 38.8149C61.2444 36.4121 63.8003 33.4122 63.8003 30.3678C63.8003 28.4875 62.8651 26.6622 61.0188 24.9359C60.4473 25.3723 59.7412 25.6148 59.0107 25.6148C57.1939 25.6148 55.7157 24.1461 55.7157 22.3408C55.7157 22.064 55.75 21.7929 55.8176 21.53C49.7646 18.6239 41.1483 16.9635 32.0629 16.9635C17.8411 16.9635 5.24896 21.0418 1.4412 26.8809C1.2607 27.1581 0.88898 27.2365 0.611184 27.0563C0.333542 26.876 0.254762 26.5053 0.435574 26.2282C2.41349 23.195 6.48022 20.5873 12.1963 18.6868C17.9425 16.7762 24.8123 15.7664 32.0631 15.7664C41.5684 15.7664 50.5956 17.562 56.8298 20.6927C57.1186 20.8379 57.2402 21.1852 57.1047 21.4781C56.9793 21.7491 56.9158 22.0394 56.9158 22.3407C56.9158 23.4859 57.8558 24.4177 59.0109 24.4177C59.6053 24.4177 60.1739 24.1658 60.5709 23.7265C60.7902 23.4842 61.1636 23.4616 61.4102 23.6759C63.7921 25.7441 65 27.9956 65 30.3677C65 33.881 62.2144 37.2582 57.1564 39.8772C57.068 39.9228 56.9736 39.9447 56.8803 39.9447Z" fill="#252525"/>
<path d="M18.9557 60.4251C18.652 60.4251 18.3505 60.41 18.0594 60.3806C17.7299 60.3471 17.4899 60.0532 17.5234 59.7245C17.557 59.3956 17.8517 59.1569 18.181 59.1897C18.4319 59.2152 18.6925 59.2282 18.9557 59.2282C22.3236 59.2282 26.6143 57.1262 31.0371 53.3092C35.6593 49.3205 40.0603 43.8447 43.7645 37.4741C46.6985 32.4281 48.9786 27.1425 50.3592 22.1888C50.4479 21.8703 50.7785 21.6841 51.0977 21.7723C51.4172 21.861 51.6039 22.1908 51.5152 22.5093C50.1077 27.5594 47.7865 32.9418 44.8022 38.0745C37.1511 51.2344 26.5224 60.4251 18.9557 60.4251ZM12.4362 56.0866C12.2073 56.0866 11.9887 55.9554 11.8887 55.7336C11.7321 55.3861 11.588 55.0159 11.4604 54.6331C11.4018 54.4572 11.4283 54.264 11.5321 54.1101C11.636 53.9561 11.8055 53.8589 11.991 53.8472C13.0874 53.7765 13.9462 52.8663 13.9462 51.7747C13.9462 50.6294 13.0066 49.6979 11.8521 49.6979C11.6937 49.6979 11.5364 49.7151 11.385 49.7496C11.2081 49.7896 11.0223 49.7475 10.88 49.6352C10.7376 49.5228 10.6539 49.3522 10.6524 49.1712C10.6518 49.0961 10.6513 49.0207 10.6513 48.9449C10.6513 41.6417 13.6652 32.2692 18.9199 23.2311C26.5712 10.0714 37.2002 0.880371 44.7678 0.880371C46.1929 0.880371 47.4844 1.20635 48.6065 1.84947C51.5279 3.52471 53.072 7.15814 53.072 12.3569C53.072 13.2204 53.0279 14.1317 52.9414 15.0654C52.9106 15.3944 52.6157 15.6362 52.2885 15.6059C51.9585 15.5754 51.7161 15.2839 51.7467 14.9547C51.8299 14.0577 51.8722 13.1836 51.8722 12.3569C51.8722 7.61125 50.5363 4.33662 48.0085 2.88724C47.0709 2.34989 45.9806 2.07717 44.7677 2.07717C41.3995 2.07717 37.1087 4.17912 32.6856 7.99599C28.0629 11.9849 23.6617 17.4606 19.9576 23.8315C14.9123 32.5094 11.9744 41.4668 11.8549 48.5008C13.6699 48.5023 15.1461 49.9703 15.1461 51.7747C15.1461 53.2303 14.1788 54.4813 12.8362 54.8997C12.8835 55.0165 12.9324 55.131 12.9828 55.2424C13.1187 55.5438 12.984 55.8981 12.6819 56.0337C12.6022 56.0698 12.5185 56.0866 12.4362 56.0866Z" fill="#252525"/>
<path d="M47.4242 59.9094C47.1854 59.9094 46.9599 59.7662 46.8665 59.5313C46.7444 59.224 46.8952 58.8762 47.2032 58.7542C47.4641 58.6511 47.7194 58.5284 47.9619 58.3892C50.5101 56.9284 51.8571 53.6281 51.8571 48.8453C51.8571 41.6918 48.8796 32.4682 43.6883 23.5398C39.9565 17.1215 35.5224 11.6046 30.8654 7.58585C26.4087 3.73998 22.0853 1.62185 18.6912 1.62185C17.469 1.62185 16.3697 1.89671 15.4244 2.43864C13.048 3.80148 11.7147 6.7715 11.5475 11.0526C11.6484 11.0433 11.7503 11.0387 11.8525 11.0387C12.4864 11.0387 13.1021 11.2182 13.6331 11.5579C13.9119 11.7363 13.993 12.1066 13.8142 12.3848C13.6355 12.663 13.2644 12.744 12.9854 12.5655C12.442 12.218 11.7401 12.1421 11.1343 12.3607C10.9495 12.4274 10.7441 12.3996 10.5838 12.2865C10.4236 12.1734 10.3287 11.9894 10.3303 11.7936C10.3685 6.65963 11.9232 3.06588 14.8262 1.40101C15.9559 0.753474 17.2562 0.425049 18.6909 0.425049C26.3125 0.425049 37.0184 9.68322 44.7258 22.9391C50.0201 32.0447 53.0566 41.487 53.0566 48.8453C53.0566 54.0813 51.5015 57.7403 48.5594 59.4271C48.2672 59.5948 47.9594 59.7427 47.6449 59.8671C47.5727 59.8958 47.4976 59.9094 47.4242 59.9094ZM40.1226 59.4195C40.0485 59.4195 39.9733 59.4057 39.9005 59.3767C32.88 56.5819 24.7412 48.3483 18.6603 37.889C14.6021 30.9106 11.7999 23.5341 10.7696 17.1186C10.7171 16.7921 10.94 16.4852 11.2671 16.4329C11.5937 16.3807 11.9019 16.6029 11.9544 16.9292C12.9617 23.2034 15.7118 30.4338 19.6981 37.2885C25.6508 47.5269 33.5621 55.5646 40.345 58.265C40.6528 58.3875 40.8027 58.7356 40.6797 59.0427C40.5864 59.2769 40.3608 59.4195 40.1226 59.4195Z" fill="#252525"/>
<path d="M59.0107 25.6148C57.1939 25.6148 55.7157 24.146 55.7157 22.3407C55.7157 20.5352 57.1939 19.0664 59.0107 19.0664C60.8271 19.0664 62.3048 20.5352 62.3048 22.3407C62.3048 24.146 60.8271 25.6148 59.0107 25.6148ZM59.0107 20.2634C57.8555 20.2634 56.9156 21.1952 56.9156 22.3407C56.9156 23.486 57.8556 24.4178 59.0107 24.4178C60.1655 24.4178 61.105 23.4861 61.105 22.3407C61.105 21.1952 60.1655 20.2634 59.0107 20.2634Z" fill="#252525"/>
<path d="M11.8525 55.0495C10.0355 55.0495 8.55733 53.5804 8.55733 51.7749C8.55733 49.9696 10.0355 48.501 11.8525 48.501C13.6687 48.501 15.1464 49.9696 15.1464 51.7749C15.1464 53.5804 13.6687 55.0495 11.8525 55.0495ZM11.8525 49.6979C10.6971 49.6979 9.75708 50.6295 9.75708 51.7747C9.75708 52.9202 10.6971 53.8522 11.8525 53.8522C13.0071 53.8522 13.9465 52.9202 13.9465 51.7747C13.9465 50.6296 13.0071 49.6979 11.8525 49.6979Z" fill="#252525"/>
<path d="M11.8525 17.5872C10.0355 17.5872 8.55733 16.1184 8.55733 14.313C8.55733 12.5076 10.0355 11.0388 11.8525 11.0388C13.6687 11.0388 15.1464 12.5077 15.1464 14.313C15.1464 16.1184 13.6687 17.5872 11.8525 17.5872ZM11.8525 12.2358C10.6971 12.2358 9.75708 13.1676 9.75708 14.313C9.75708 15.4584 10.6971 16.3902 11.8525 16.3902C13.0071 16.3902 13.9465 15.4584 13.9465 14.313C13.9465 13.1676 13.0071 12.2358 11.8525 12.2358Z" fill="#252525"/>
<path d="M38.8284 38.994H23.95C23.6186 38.994 23.3502 38.726 23.3502 38.3955V33.0885C23.3502 31.2589 24.848 29.7705 26.6891 29.7705H36.1653C37.9645 29.7705 39.4283 31.2254 39.4283 33.0136V38.3955C39.4283 38.7262 39.1597 38.994 38.8284 38.994ZM24.5499 37.7972H38.2284V33.0137C38.2284 31.8853 37.3028 30.9675 36.1653 30.9675H26.6891C25.5095 30.9675 24.5499 31.919 24.5499 33.0885V37.7972Z" fill="#252525"/>
<path d="M31.3886 28.2705C28.8359 28.2705 26.7592 26.207 26.7592 23.6707C26.7592 21.1344 28.8359 19.0708 31.3886 19.0708C33.942 19.0708 36.0193 21.1343 36.0193 23.6707C36.0193 26.2072 33.942 28.2705 31.3886 28.2705ZM31.3886 20.2679C29.4975 20.2679 27.959 21.7943 27.959 23.6707C27.959 25.547 29.4975 27.0736 31.3886 27.0736C33.2805 27.0736 34.8197 25.5471 34.8197 23.6707C34.8196 21.7943 33.2805 20.2679 31.3886 20.2679Z" fill="#252525"/>
</svg>
