<svg width="108" height="60" viewBox="0 0 108 60" fill="none" xmlns="http://www.w3.org/2000/svg">
<path d="M11.1146 18.4217C16.0616 18.4217 20.0861 14.3759 20.0861 9.40167C20.0861 4.42854 16.0616 0.382811 11.1146 0.382811C6.16648 0.382811 2.14202 4.42854 2.14202 9.40167C2.14202 14.3759 6.16648 18.4217 11.1146 18.4217ZM11.1146 1.73746C15.3181 1.73746 18.7385 5.17707 18.7385 9.40167C18.7385 13.6274 15.3181 17.067 11.1146 17.067C6.90995 17.067 3.48955 13.6285 3.48955 9.40167C3.48955 5.17707 6.90995 1.73746 11.1146 1.73746ZM22.0773 51.1224C21.862 50.8706 18.2421 48.0052 18.2421 48.0052C19.8401 47.1621 20.4397 45.3996 20.4397 43.9333C20.4397 43.9242 20.4397 43.9151 20.4397 43.9048L19.8787 30.2751L28.3039 24.8531C30.4481 23.4734 31.0749 20.5978 29.7024 18.441C28.8501 17.1012 26.6424 15.2122 23.3274 17.0317L18.003 20.4132C17.1745 19.7045 16.1715 19.3343 15.0688 19.3343H8.81848C6.58468 19.3343 4.96288 20.5146 4.24888 22.6565C4.23982 22.6861 0.185884 43.8638 0.185884 43.9071C-0.0883825 45.3039 0.500951 46.9126 5.00255 50.1768C5.10568 50.2998 2.80275 49.9341 1.32148 51.6374C0.490751 52.5933 -0.00338257 53.785 1.74324e-05 55.0941C0.00681743 57.8148 2.07288 59.9829 4.60475 59.9829C4.60475 59.9829 4.61495 59.9829 4.61608 59.9829L19.3494 59.9897C20.5893 59.9863 21.7498 59.5078 22.6191 58.5599C23.4747 57.6268 23.9439 56.3906 23.9405 55.0793C23.9349 53.5241 23.2401 52.051 22.0773 51.1224ZM19.3721 58.6795L4.71015 58.7171C2.91382 58.7148 1.40422 57.1107 1.40195 55.1351C1.39968 52.3324 3.73435 51.5406 4.59342 51.5383L6.96095 51.5314C7.24882 51.5314 7.50382 51.3469 7.59675 51.0734C7.68968 50.8 7.59901 50.4969 7.37235 50.3192C7.37235 50.3192 3.50315 47.3376 3.06568 46.8807C2.33355 46.1185 1.33168 45.2857 1.53228 43.9675C1.73515 42.6504 5.53975 23.045 5.53975 23.045C6.07582 21.4819 7.17742 20.6889 8.81735 20.6889H15.0688C15.9902 20.6889 16.7835 21.0398 17.4273 21.7314C17.6483 21.9684 18.0064 22.0151 18.2784 21.8419L24.0505 18.1767C26.3602 16.9918 27.9627 18.2246 28.5668 19.1725C29.5392 20.6992 29.0949 22.7351 27.5763 23.7127L18.8247 29.3443C18.6218 29.4742 18.5039 29.7032 18.5141 29.9436L19.091 43.947C19.0865 45.2845 18.4552 46.7668 16.7235 47.0938C15.9562 47.2385 15.9857 48.0292 16.4175 48.298L20.5337 51.5098C21.9232 52.5318 22.5919 53.9195 22.5953 55.085C22.5998 56.0511 22.3459 58.5143 19.3721 58.6795ZM101.009 7.60154C100.72 6.43602 100.001 5.20555 98.7473 5.91763C97.4757 2.4165 94.1335 0 90.321 0C86.0211 0 81.8493 3.97623 81.5513 7.12645C81.1988 9.01658 81.379 10.2129 81.6249 11.2212C82.3389 14.9194 86.3169 18.0389 90.3232 18.0389C93.9805 18.0389 97.2581 15.7625 98.6215 12.4471C98.7326 12.5314 98.8516 12.6009 98.974 12.6442C99.5871 13.6935 100.694 14.36 101.884 14.36C102.365 14.36 106.32 16.3982 106.961 16.3982C107.779 16.6375 107.99 15.8479 108 15.3102C108.032 13.4633 103.273 6.17967 101.009 7.60154ZM101.884 12.9917C101.099 12.9917 100.37 12.5018 100.029 11.743C99.9181 11.498 99.6732 11.3465 99.4092 11.3442C99.3412 11.2793 99.1202 11.0913 99.0692 10.6412C99.0046 10.075 97.9665 9.76511 97.7647 10.6845C97.0031 14.1617 93.8695 16.6842 90.3244 16.6842C86.9153 16.6842 83.538 14.0581 82.9464 10.9489C82.9441 10.9363 82.9419 10.9249 82.9373 10.9135C82.7243 10.0454 82.5679 9.01202 82.8818 7.34747C82.8852 7.32469 82.8886 7.3019 82.8909 7.28025C83.0881 4.99478 86.5685 1.35579 90.3221 1.35579C93.9794 1.35579 97.0813 3.98306 97.8101 7.58103C97.9676 8.35463 98.8652 8.35463 99.1088 7.67218C99.2086 7.3976 99.3015 7.23354 99.3684 7.15151C99.5021 7.31899 99.6721 7.79523 99.8172 8.61668C99.8886 9.01772 100.207 9.57826 100.829 9.13051C102.248 8.1131 103.173 9.55775 104.653 11.5607C105.655 12.9176 106.334 14.1788 106.566 14.8898C106.122 14.7268 102.686 12.9917 101.884 12.9917ZM101.427 50.1973C103.02 49.5114 104.339 47.2806 103.919 45.4315C103.625 44.1429 98.2985 23.045 98.2985 23.045C98.294 23.0279 98.2895 23.012 98.2838 22.996C97.4746 20.567 95.9004 19.3354 93.6031 19.3354H87.3517C86.2512 19.3354 85.2482 19.7068 84.4186 20.4178L79.0965 17.018C78.3564 16.5406 74.9666 14.9319 72.7181 18.4376C71.3365 20.5921 71.9723 23.4745 74.1166 24.8565L81.8969 29.865L78.6647 53.8089C78.1955 56.9375 79.3186 59.7323 83.7556 60L101.065 59.9863C101.067 59.9863 101.075 59.9863 101.076 59.9863C103.987 59.9863 106.362 57.8182 106.371 55.0975C106.378 53.842 105.351 50.2451 101.427 50.1973ZM101.083 58.6283H101.072L83.7601 58.6419C81.7927 58.6009 79.6847 57.612 79.8309 55.0816C79.8501 54.766 83.2932 29.6178 83.2932 29.6178C83.3283 29.3569 83.2093 29.0994 82.9872 28.957L74.8453 23.7127C73.3244 22.7351 72.8711 20.6901 73.8537 19.1656C75.5843 16.4825 77.8453 17.819 78.3711 18.1573L84.1398 21.843C84.4141 22.0174 84.7733 21.9729 84.9943 21.7348C85.6403 21.041 86.4337 20.6889 87.3517 20.6889H93.6031C95.2963 20.6889 96.3741 21.5514 96.9975 23.4016C96.9975 23.4016 102.457 44.9553 102.584 45.6525C102.936 47.4777 101.701 48.7036 100.507 49.2049C99.3129 49.7074 96.339 50.1962 96.339 50.1962C96.0046 50.2736 95.7837 50.5915 95.8245 50.9322C95.863 51.2728 96.1157 51.5223 96.492 51.5314C102.683 51.0609 104.732 51.7673 105.027 55.0884C105.203 57.0571 103.331 58.6283 101.083 58.6283ZM74.3002 48.6923H70.2621C70.5704 48.2388 70.7563 47.6828 70.7563 47.0813V41.1955C70.7563 39.6996 69.6297 38.5295 68.1904 38.5295H65.0964C65.4035 38.0772 65.5905 37.5212 65.5905 36.9197V31.0328C65.5905 30.4563 65.4217 29.9288 65.1327 29.4959H69.0903C70.5047 29.4959 71.6561 28.2665 71.6561 26.7569V20.8712C71.6561 19.3753 70.5296 18.2041 69.0903 18.2041H63.1947C61.6919 18.2041 60.4237 19.4254 60.4237 20.8712V26.7569C60.4237 27.3482 60.6379 27.9076 60.9892 28.3679H57.9088C58.2159 27.9145 58.4018 27.3596 58.4018 26.7569V20.8712C58.4018 19.3753 57.2809 18.2041 55.8484 18.2041H51.3071C51.5315 17.7985 51.6619 17.3256 51.6619 16.8209V10.9352C51.6619 9.4404 50.5342 8.26918 49.096 8.26918H43.2015C41.6999 8.26918 40.4305 9.49053 40.4305 10.9352V16.8221C40.4305 17.3188 40.5835 17.7939 40.8397 18.2052H36.4661C35.0359 18.2052 33.9161 19.3764 33.9161 20.8723V26.7581C33.9161 28.2688 35.0597 29.497 36.4661 29.497H41.65C41.3111 29.9379 41.1049 30.4722 41.1049 31.0339V36.9208C41.1049 37.5155 41.3236 38.0818 41.6817 38.542C41.6092 38.5352 35.5674 38.5307 35.5674 38.5307C34.1371 38.5307 33.0174 39.7007 33.0174 41.1967V47.0824C33.0174 47.684 33.201 48.2399 33.5093 48.6934H28.3787C26.9722 48.6934 25.8287 49.9284 25.8287 51.4483V57.334C25.8287 58.8208 26.9484 59.9841 28.3787 59.9841H34.2743C35.785 59.9841 37.0611 58.7695 37.0611 57.334V51.4483C37.0611 50.8558 36.8356 50.2873 36.4707 49.8213H39.6723C39.3085 50.2873 39.083 50.8558 39.083 51.4483V57.334C39.083 58.7695 40.358 59.9841 41.8665 59.9841H47.7621C49.1935 59.9841 50.3155 58.8208 50.3155 57.334V51.4483C50.3155 50.8387 50.1285 50.2782 49.8179 49.8213H52.9085C52.5538 50.2839 52.3373 50.8501 52.3373 51.4483V57.334C52.3373 58.7695 53.6067 59.9841 55.1083 59.9841H61.0017C62.4421 59.9841 63.5698 58.8208 63.5698 57.334V51.4483C63.5698 50.8387 63.3817 50.2782 63.07 49.8213H66.1878C65.8195 50.2873 65.5917 50.8558 65.5917 51.4483V57.334C65.5917 58.7456 66.9063 59.9841 68.4069 59.9841H74.3013C75.7384 59.9841 76.8241 58.8447 76.8241 57.334V51.4483C76.8219 49.9022 75.7146 48.6923 74.3002 48.6923ZM69.4076 41.1955V47.0813C69.4076 47.7466 68.9429 48.4655 68.1904 48.4655H62.2959C61.5638 48.4655 60.8725 47.7933 60.8725 47.0813V41.1955C60.8725 40.5085 61.5502 39.8853 62.2959 39.8853H68.1904C68.884 39.8853 69.4076 40.4481 69.4076 41.1955ZM43.6957 39.6483C43.7591 39.654 46.8157 39.6586 46.8157 39.6586C46.4769 40.1006 46.2706 40.6327 46.2706 41.1967V47.0824C46.2706 47.6748 46.4859 48.2342 46.8384 48.6934H43.6787C44.0323 48.2342 44.2476 47.6737 44.2476 47.0824V41.1967C44.2487 40.6293 44.0391 40.0915 43.6957 39.6483ZM47.7383 28.3679H44.5785C44.9321 27.9088 45.1475 27.3482 45.1475 26.7569V20.8712C45.1475 20.4018 45.0035 19.9529 44.7587 19.5598H47.5569C47.3133 19.9529 47.1682 20.4018 47.1682 20.8712V26.7569C47.1693 27.3482 47.3847 27.9088 47.7383 28.3679ZM55.7056 36.9197V31.0328C55.7056 30.3469 56.3833 29.7226 57.1291 29.7226H63.0235C63.7171 29.7226 64.2407 30.2865 64.2407 31.0328V36.9197C64.2407 37.5839 63.7761 38.3039 63.0235 38.3039H57.1291C56.3969 38.3039 55.7056 37.6306 55.7056 36.9197ZM54.9236 38.5295H51.8443C52.1515 38.0772 52.3362 37.5212 52.3362 36.9197V31.0328C52.3362 30.4563 52.1673 29.9288 51.8795 29.4959H54.8839C54.5553 29.9334 54.3569 30.4654 54.3569 31.0328V36.9197C54.3569 37.511 54.5723 38.0704 54.9236 38.5295ZM42.4524 31.0328C42.4524 30.3469 43.1369 29.7226 43.8883 29.7226H49.7839C50.4707 29.7226 50.9887 30.2865 50.9887 31.0328V36.9197C50.9887 37.5839 50.5274 38.3039 49.7839 38.3039H43.8883C43.1641 38.3039 42.4524 37.6169 42.4524 36.9197V31.0328ZM47.6193 47.0813V41.1955C47.6193 40.5085 48.3038 39.8853 49.0552 39.8853H54.9508C55.6376 39.8853 56.1567 40.4481 56.1567 41.1955V47.0813C56.1567 47.7466 55.6965 48.4655 54.9508 48.4655H49.0552C48.3299 48.4655 47.6193 47.7808 47.6193 47.0813ZM57.0429 39.654C57.0713 39.6552 60.0508 39.6586 60.0508 39.6586C59.721 40.0972 59.5238 40.6293 59.5238 41.1967V47.0824C59.5238 47.6748 59.738 48.2342 60.0905 48.6934H57.0101C57.3172 48.2399 57.5031 47.684 57.5031 47.0824V41.1967C57.5031 40.6168 57.3331 40.087 57.0429 39.654ZM61.7712 20.8712C61.7712 20.1842 62.4489 19.5598 63.1947 19.5598H69.0891C69.7827 19.5598 70.3063 20.1249 70.3063 20.8712V26.7569C70.3063 27.4223 69.8417 28.1401 69.0891 28.1401H63.1947C62.4625 28.1401 61.7712 27.469 61.7712 26.7569V20.8712ZM57.0543 20.8712V26.7569C57.0543 27.4223 56.593 28.1401 55.8484 28.1401H49.9539C49.2297 28.1401 48.5169 27.4553 48.5169 26.7569V20.8712C48.5169 20.1842 49.2025 19.5598 49.9539 19.5598H55.8484C56.5363 19.5598 57.0543 20.1249 57.0543 20.8712ZM41.7781 10.9352C41.7781 10.2493 42.4569 9.62383 43.2015 9.62383H49.096C49.7907 9.62383 50.3143 10.1878 50.3143 10.9352V16.8221C50.3143 17.4874 49.8485 18.2052 49.096 18.2052H43.2015C42.4694 18.2052 41.7781 17.533 41.7781 16.8221V10.9352ZM35.2637 26.7569V20.8712C35.2637 20.1238 35.7805 19.5598 36.4661 19.5598H42.3606C43.1143 19.5598 43.8011 20.1853 43.8011 20.8712V26.7569C43.8011 27.4553 43.0882 28.1401 42.3606 28.1401H36.4661C35.7227 28.1412 35.2637 27.4223 35.2637 26.7569ZM34.3649 41.1955C34.3649 40.4481 34.8817 39.8853 35.5674 39.8853H41.463C42.2167 39.8853 42.9023 40.5097 42.9023 41.1955V47.0813C42.9023 47.7797 42.1895 48.4655 41.463 48.4655H35.5674C34.8251 48.4655 34.3649 47.7466 34.3649 47.0813V41.1955ZM35.7125 57.3329C35.7125 58.0107 35.0268 58.6283 34.2731 58.6283H28.3787C27.6941 58.6283 27.1762 58.0711 27.1762 57.3329V51.4471C27.1762 50.7727 27.6363 50.0469 28.3787 50.0469H34.2743C35.0007 50.0469 35.7136 50.7396 35.7136 51.4471L35.7125 57.3329ZM48.9668 57.3329C48.9668 58.07 48.4477 58.6283 47.7609 58.6283H41.8653C41.1139 58.6283 40.4294 58.0107 40.4294 57.3329V51.4471C40.4294 50.7396 41.1411 50.0469 41.8653 50.0469H47.7609C48.5055 50.0469 48.9668 50.7738 48.9668 51.4471V57.3329ZM62.22 57.3329C62.22 58.07 61.6953 58.6283 61.0005 58.6283H55.1072C54.3626 58.6283 53.6849 58.0107 53.6849 57.3329V51.4471C53.6849 50.7396 54.3898 50.0469 55.1072 50.0469H61.0005C61.7531 50.0469 62.22 50.7738 62.22 51.4471V57.3329ZM75.4732 57.3329C75.4732 57.9754 75.0709 58.6283 74.3002 58.6283H68.4057C67.6509 58.6283 66.9381 57.9982 66.9381 57.3329V51.4471C66.9381 50.7533 67.6781 50.0469 68.4057 50.0469H74.3002C75.0346 50.0469 75.4732 50.759 75.4732 51.4471V57.3329Z" fill="#252525"/>
</svg>
