<svg width="370" height="18" viewBox="0 0 370 18" fill="none" xmlns="http://www.w3.org/2000/svg" preserveAspectRatio="none">
<g clip-path="url(#clip0_78_628)">
<path d="M364.002 17.9999L370 12.8076" stroke="#9A8C3D" stroke-width="2"/>
<path d="M352.432 17.9999L370 2.99557" stroke="#9A8C3D" stroke-width="2"/>
<path d="M342.075 17.9999L363.094 -0.000121519" stroke="#9A8C3D" stroke-width="2"/>
<path d="M330.593 17.9999L351.521 -0.000121519" stroke="#9A8C3D" stroke-width="2"/>
<path d="M320.166 17.9999C320.168 17.9975 320.167 17.9953 320.163 17.9933C320.159 17.9909 320.158 17.9883 320.161 17.9856L341.183 -0.000121519" stroke="#9A8C3D" stroke-width="2"/>
<path d="M308.664 17.9999L329.682 -0.000121519" stroke="#9A8C3D" stroke-width="2"/>
<path d="M298.397 17.9999L319.325 -0.000121519" stroke="#9A8C3D" stroke-width="2"/>
<path d="M286.818 17.9999L307.728 0.0202141C307.732 0.0163668 307.733 0.0123362 307.731 0.00812242L307.727 -0.000121519" stroke="#9A8C3D" stroke-width="2"/>
<path d="M276.376 17.9999L297.485 -0.000121519" stroke="#9A8C3D" stroke-width="2"/>
<path d="M264.893 17.9999L285.912 -0.000121519" stroke="#9A8C3D" stroke-width="2"/>
<path d="M254.556 17.9999L254.553 17.9922C254.551 17.9889 254.552 17.9859 254.555 17.9831L275.464 -0.000121519" stroke="#9A8C3D" stroke-width="2"/>
<path d="M242.963 17.9999L263.982 -0.000121519" stroke="#9A8C3D" stroke-width="2"/>
<path d="M232.605 17.9999L253.624 -0.000121519" stroke="#9A8C3D" stroke-width="2"/>
<path d="M221.125 17.9999L242.051 -0.000121519" stroke="#9A8C3D" stroke-width="2"/>
<path d="M210.675 17.9999L231.693 -0.000121519" stroke="#9A8C3D" stroke-width="2"/>
<path d="M200 17.2631C200.007 17.2644 200.013 17.2649 200.019 17.2647C200.023 17.2646 200.026 17.2635 200.028 17.2617L220.192 0.0171639C220.195 0.0144158 220.196 0.0114843 220.194 0.00836984L220.191 -0.000149176" stroke="#9A8C3D" stroke-width="2"/>
<path d="M370 17.9999L364.002 17.9999L370 12.8076L370 17.9999Z" fill="#FDE143"/>
<path d="M364.002 17.9999L352.432 17.9999L370 2.99557L370 12.8076L364.002 17.9999Z" fill="#363636"/>
<path d="M352.432 17.9999L342.075 17.9999L363.094 -0.000122674L370 -0.00012207L370 2.99557L352.432 17.9999Z" fill="#FDE143"/>
<path d="M342.075 17.9999L330.593 17.9999L351.521 -0.000123082L363.094 -0.00012207L342.075 17.9999Z" fill="#363636"/>
<path d="M210.981 17.9999L199.499 17.9999L220.427 -0.000123082L232 -0.00012207L210.981 17.9999Z" fill="#363636"/>
<path d="M79.8869 17.9999L68.4044 17.9999L89.3325 -0.000123082L100.906 -0.00012207L79.8869 17.9999Z" fill="#363636"/>
<path d="M330.593 17.9999L320.166 17.9999C320.168 17.9975 320.167 17.9953 320.163 17.9933C320.159 17.9909 320.158 17.9883 320.161 17.9856L341.183 -0.000122974L351.521 -0.00012207L330.593 17.9999Z" fill="#FDE143"/>
<path d="M199.499 17.9999L189.071 17.9999C189.073 17.9975 189.073 17.9953 189.069 17.9933C189.064 17.9909 189.064 17.9883 189.067 17.9856L210.089 -0.000122974L220.427 -0.00012207L199.499 17.9999Z" fill="#FDE143"/>
<path d="M68.4045 17.9999L57.9771 17.9999C57.9792 17.9975 57.9783 17.9953 57.9744 17.9933C57.9702 17.9909 57.9696 17.9883 57.9728 17.9856L78.9944 -0.000122974L89.3325 -0.00012207L68.4045 17.9999Z" fill="#FDE143"/>
<path d="M320.166 17.9999L308.663 17.9999L329.682 -0.000123076L341.183 -0.00012207L320.161 17.9856C320.158 17.9883 320.159 17.9909 320.163 17.9933C320.167 17.9953 320.168 17.9975 320.166 17.9999Z" fill="#363636"/>
<path d="M189.071 17.9999L177.569 17.9999L198.588 -0.000123076L210.089 -0.00012207L189.067 17.9856C189.064 17.9883 189.064 17.9909 189.069 17.9933C189.073 17.9953 189.073 17.9975 189.071 17.9999Z" fill="#363636"/>
<path d="M57.9771 17.9999L46.475 17.9999L67.4934 -0.000123076L78.9944 -0.00012207L57.9728 17.9856C57.9696 17.9883 57.9702 17.9909 57.9744 17.9933C57.9783 17.9953 57.9792 17.9975 57.9771 17.9999Z" fill="#363636"/>
<path d="M308.664 17.9999L298.397 17.9999L319.325 -0.000122976L329.682 -0.00012207L308.664 17.9999Z" fill="#FDE143"/>
<path d="M177.569 17.9999L167.302 17.9999L188.23 -0.000122976L198.588 -0.00012207L177.569 17.9999Z" fill="#FDE143"/>
<path d="M46.475 17.9999L36.2081 17.9999L57.1362 -0.000122976L67.4934 -0.00012207L46.475 17.9999Z" fill="#FDE143"/>
<path d="M287.115 17.9999L275.438 17.9999L296.156 -0.137529L310.495 -0.137527L310.499 -0.129221C310.501 -0.124975 310.5 -0.120914 310.495 -0.117037L287.115 17.9999Z" fill="#FDE143"/>
<path d="M156.02 17.9999L144.343 17.9999L165.062 -0.137529L179.4 -0.137527L179.405 -0.129221C179.407 -0.124975 179.406 -0.120914 179.401 -0.117037L156.02 17.9999Z" fill="#FDE143"/>
<path d="M24.926 17.9999L13.249 17.9999L33.9678 -0.137529L48.3062 -0.137527L48.3103 -0.129221C48.3127 -0.124975 48.3115 -0.120914 48.3068 -0.117037L24.926 17.9999Z" fill="#FDE143"/>
<path d="M276.376 17.9999L264.893 17.9999L285.912 -0.000123082L297.485 -0.00012207L276.376 17.9999Z" fill="#363636"/>
<path d="M145.281 17.9999L133.799 17.9999L154.818 -0.000123082L166.391 -0.00012207L145.281 17.9999Z" fill="#363636"/>
<path d="M14.1872 17.9999L2.70473 17.9999L23.7236 -0.000123082L35.2964 -0.00012207L14.1872 17.9999Z" fill="#363636"/>
<path d="M264.893 17.9999L254.556 17.9999L254.552 17.9922C254.551 17.9889 254.552 17.9859 254.555 17.9831L275.464 -0.000122984L285.912 -0.00012207L264.893 17.9999Z" fill="#FDE143"/>
<path d="M133.799 17.9999L123.462 17.9999L123.458 17.9922C123.457 17.9889 123.458 17.9859 123.461 17.9831L144.37 -0.000122984L154.818 -0.00012207L133.799 17.9999Z" fill="#FDE143"/>
<path d="M2.70473 17.9999L-7.63234 17.9999L-7.63605 17.9922C-7.63747 17.9889 -7.63659 17.9859 -7.63341 17.9831L13.2755 -0.000122984L23.7236 -0.00012207L2.70473 17.9999Z" fill="#FDE143"/>
<path d="M254.556 17.9999L242.963 17.9999L263.982 -0.000123074L275.464 -0.00012207L254.555 17.9831C254.552 17.9859 254.551 17.9889 254.553 17.9922L254.556 17.9999Z" fill="#363636"/>
<path d="M123.462 17.9999L111.869 17.9999L132.887 -0.000123074L144.37 -0.00012207L123.461 17.9831C123.458 17.9859 123.457 17.9889 123.458 17.9922L123.462 17.9999Z" fill="#363636"/>
<path d="M-7.63224 17.9998L-19.2257 17.9998L1.7932 -0.000184109L13.2756 -0.000183105L-7.63331 17.9831C-7.6365 17.9858 -7.63737 17.9888 -7.63595 17.9921L-7.63224 17.9998Z" fill="#363636"/>
<path d="M242.963 17.9999L232.606 17.9999L253.624 -0.000122976L263.982 -0.00012207L242.963 17.9999Z" fill="#FDE143"/>
<path d="M111.869 17.9999L101.511 17.9999L122.53 -0.000122976L132.887 -0.00012207L111.869 17.9999Z" fill="#FDE143"/>
<path d="M-19.2257 17.9998L-29.5829 17.9998L-8.56404 -0.000184011L1.79321 -0.000183105L-19.2257 17.9998Z" fill="#FDE143"/>
<path d="M232.606 17.9999L221.125 17.9999L242.051 -0.000123082L253.625 -0.00012207L232.606 17.9999Z" fill="#363636"/>
<path d="M101.511 17.9999L90.0305 17.9999L110.957 -0.000123082L122.53 -0.00012207L101.511 17.9999Z" fill="#363636"/>
<path d="M221.125 17.9999L210.675 17.9999L231.693 -0.000122976L242.051 -0.00012207L221.125 17.9999Z" fill="#FDE143"/>
<path d="M90.0306 17.9999L79.5809 17.9999L100.599 -0.000122976L110.957 -0.00012207L90.0306 17.9999Z" fill="#FDE143"/>
<path d="M210.675 17.9999L200 17.9999L200 17.2631C200.007 17.2644 200.013 17.2649 200.019 17.2648C200.023 17.2646 200.026 17.2636 200.028 17.2617L220.192 0.0171899C220.195 0.0144433 220.196 0.0115118 220.194 0.00839705L220.191 -0.000123076L231.693 -0.00012207L210.675 17.9999Z" fill="#363636"/>
<path d="M298.397 17.9999L286.819 17.9999L307.728 0.0202131C307.732 0.0163659 307.733 0.0123357 307.731 0.00812048L307.728 -0.000123084L319.325 -0.00012207L298.397 17.9999Z" fill="#363636"/>
<path d="M167.302 17.9999L155.724 17.9999L176.634 0.0202131C176.638 0.0163659 176.639 0.0123357 176.637 0.00812048L176.633 -0.000123084L188.23 -0.00012207L167.302 17.9999Z" fill="#363636"/>
<path d="M36.2082 17.9999L24.6301 17.9999L45.5396 0.0202131C45.5438 0.0163659 45.5449 0.0123357 45.5428 0.00812048L45.539 -0.000123084L57.1362 -0.00012207L36.2082 17.9999Z" fill="#363636"/>
</g>
<defs>
<clipPath id="clip0_78_628">
<rect width="370" height="17.9999" fill="white" transform="translate(370 17.9999) rotate(-180)"/>
</clipPath>
</defs>
</svg>
